<svg xmlns="http://www.w3.org/2000/svg" viewBox="0 0 778.87 112.2"><title>header_logo_text</title><path d="M56,33.1c5.2-.5,8.9-5.8,8.4-11.9S59.2,10.5,54.1,10.9s-8.9,5.8-8.4,11.9S50.8,33.6,56,33.1Z" fill="#333"/><polygon points="183.7 96.9 109.3 103.4 105.8 63.5 112.9 62.8 115.8 95.6 175.9 90.4 168.6 7.8 108.6 13.1 111.1 41.2 103.9 41.8 100.8 6.5 175.2 0 183.7 96.9" fill="#333"/><polygon points="146.9 49.6 121.5 37.6 122.2 46.4 82 49.8 82.9 60 123.1 56.5 123.9 65.2 146.9 49.6" fill="#333"/><path d="M75,50.5l-8.6.8.2,1.7L55.5,54,54,36.6s-14.2-8.3-13.8-7.3L16,31.5,4.3,51.6l4.3,2.5L7.4,56.4l2.1,1.1-4.1,8L9.5,68l8.6-16.4-3-1.8,5.3-9.6,14.4-1.3-15,27.9L21.9,90,0,102.4l4.2,9.8L32.1,96.9l-.7-20.3,17.8,8.9.4,22.8,11.1-.8L58.3,78,39,68.1,46.5,55l.7,8.1,28.7-2.5Z" fill="#333"/><path d="M258.91,55.24c-3.89,5.27-9.62,8.79-15.64,9.25-2.4.18-5.46.37-9.25.37H218.39V.55h13c3.7,0,8.6.19,11.19.37A21.86,21.86,0,0,1,256.6,7.31c5.92,5.83,8.79,14.06,8.79,25.63C265.39,41.73,263.26,49.41,258.91,55.24ZM247.62,16.1c-2.13-3.52-5.09-5.37-10.17-5.37h-5.93V54.31h6.94c8.51,0,12.4-6.57,12.4-20.17C250.86,26.65,250.21,20.35,247.62,16.1Z" fill="#333"/><path d="M314.42,64.86l-4.53-15.27H291l-4.54,15.27H273L294.07.37h14L328.3,64.86ZM303.23,25.91l-2.59-11.38c-.37,1.48-1.94,8.14-3.05,12.39-1.21,4.63-2,7.68-3.43,11.94h12.59C306.28,37.47,304.25,30.35,303.23,25.91Z" fill="#333"/><path d="M362.08,65.32H350.33L328.49.55h14.16l10.64,33.5c.92,2.87,1.94,6.47,3,11.19A122,122,0,0,1,360,32.38L370.87.55h13.6Z" fill="#333"/><path d="M430.92,64.86H394.65V.55h13.23V54.13h23Z" fill="#333"/><path d="M499.75,62.18c-4.16,2.68-8.41,3.88-14.24,3.88a37.18,37.18,0,0,1-20.36-5.74l3.33-5.92a27.68,27.68,0,0,0,17,5.46c4.81,0,7.4-.74,10.08-2.77A10.88,10.88,0,0,0,500.13,48c0-5.65-3.71-9.53-11.39-11.84l-6.38-2c-5.74-1.75-8.79-3-11.29-5.64a14.79,14.79,0,0,1-4-10.36C467.09,7.4,475.33,0,487.63,0a33.41,33.41,0,0,1,19.16,6.11l-3.33,5.46c-6.11-4-10-5.37-15.45-5.37-8,0-12.68,4-12.68,10.45,0,5.09,3.05,8,10.55,10.37l7.31,2.31c5.64,1.76,8.6,3.42,11.19,6.38a17.63,17.63,0,0,1,4.17,11.2A18.23,18.23,0,0,1,499.75,62.18Z" fill="#333"/><path d="M561.19,7.77H544V64.86h-7.3V7.77h-17V1.39h42Z" fill="#333"/><path d="M610.51,61.06c-3.89,3.34-9,4.91-16.66,4.91-9.8,0-15.35-2.87-18.78-9.16-1.66-3.05-1.85-7.13-1.85-9.9V1.39h7.5V44.13c0,3.15.27,7.22,1.11,9.16,1.2,2.78,4.62,6.2,12.39,6.2,5.28,0,9.26-1.39,11.2-4,2.13-2.87,2.41-5.64,2.41-9.9V1.39h7.49V46.54C615.32,54.22,614.3,57.83,610.51,61.06Z" fill="#333"/><path d="M673.61,56.9c-5.55,6.2-11.1,8-20,8H637.06V1.39h12.68c9.72,0,14.16.46,20.36,4.9,7.21,5.18,10.73,14.53,10.73,26.93C680.83,44.32,677.87,52.18,673.61,56.9Zm-6.48-43.48C663,8.51,658.9,7.59,652.24,7.59h-7.59v51h7.59c6.57,0,12.67-.74,16.1-6.66,2.87-4.91,4.25-11.11,4.25-17.77C672.59,24.61,671.39,18.5,667.13,13.42Z" fill="#333"/><path d="M700.26,64.86V1.39h7.4V64.86Z" fill="#333"/><path d="M768.82,60a22.17,22.17,0,0,1-16.1,6.11,23,23,0,0,1-18-8.05c-5-5.73-7.59-14.34-7.59-25.16,0-20.18,9.62-32.57,25.26-32.57,11,0,16.93,5.83,20,10.36,4,5.92,5.73,13.32,5.73,23.5C778.07,46.35,775.3,54,768.82,60Zm-2.31-44.87a14.94,14.94,0,0,0-14.16-8.7c-5.92,0-11.19,2.87-13.6,7.41-2.22,4.16-3.24,9.62-3.24,17.48,0,9.53,1.58,17.86,4.07,22.12,2.41,4.07,8.33,6.84,13.51,6.84s9-1.85,11.84-5.46c3.15-4,4.63-9.06,4.63-19.52C769.56,25.91,768.64,19.52,766.51,15.08Z" fill="#333"/><path d="M231.9,105.83l-2.23-7.22h-8.76l-2.26,7.22h-2.84l7.84-23.49h3.66l7.77,23.49Zm-6.54-21-3.7,11.5H229Z" fill="#333"/><path d="M246.16,91.35a2.23,2.23,0,0,0-.75-.14,4.07,4.07,0,0,0-2.84,1.23,3.08,3.08,0,0,0-1,2.71v10.68H238.9V92.68a9.35,9.35,0,0,0-.58-3.63l2.67-.71a5.89,5.89,0,0,1,.55,2.77,6.17,6.17,0,0,1,4.79-2.84,3,3,0,0,1,.93.17Z" fill="#333"/><path d="M255.91,106.21a6.22,6.22,0,0,1-5.45-2.57,10.13,10.13,0,0,1-1.64-6.06c0-3.73,1.09-5.79,2.57-7.26a6.21,6.21,0,0,1,4.62-2,6.71,6.71,0,0,1,4.66,1.84L259.19,92a4.51,4.51,0,0,0-3.25-1.37,3.7,3.7,0,0,0-3.22,1.92,12.28,12.28,0,0,0-1,5.58c0,3.84,1.48,5.93,4.21,5.93a4.76,4.76,0,0,0,3.67-1.85l1.47,1.71A6.64,6.64,0,0,1,255.91,106.21Z" fill="#333"/><path d="M275.7,105.83V94.05a3.42,3.42,0,0,0-.66-2.53,2.81,2.81,0,0,0-2-.69,6.93,6.93,0,0,0-5,2.88v12.12h-2.67v-21a11.29,11.29,0,0,0-.44-3.49l2.67-.52a14.89,14.89,0,0,1,.44,4v4c0,1-.06,2.08-.1,2.32a8.69,8.69,0,0,1,5.69-2.7c2.05,0,3.9,1.13,4.38,2.7a7.85,7.85,0,0,1,.27,2.47v12.22Z" fill="#333"/><path d="M285.61,85.6a2.07,2.07,0,0,1-2.09-2.06,2.1,2.1,0,0,1,2.09-2.12,2.09,2.09,0,0,1,0,4.18Zm-1.44,20.23v-17l2.77-.45v17.43Z" fill="#333"/><path d="M299.39,90.8h-3.56v11c0,1.88.51,2.54,2.19,2.54a3.41,3.41,0,0,0,1.68-.35l.38,1.71a6.3,6.3,0,0,1-3,.69,4.91,4.91,0,0,1-2.22-.48c-1.2-.58-1.65-1.68-1.65-3.39V90.8H291v-2h2.22c0-1.47.21-3.76.28-4.31l2.81-.62a44.55,44.55,0,0,0-.35,4.93h4.28Z" fill="#333"/><path d="M305.51,97.75v.41a6.81,6.81,0,0,0,.79,3.73,4.82,4.82,0,0,0,4.25,2.09,5.87,5.87,0,0,0,4.18-1.61l1,1.72a8.55,8.55,0,0,1-5.75,2.12c-4.72,0-7.57-3.43-7.57-9.08a9.09,9.09,0,0,1,2.06-6.43,6.7,6.7,0,0,1,9.72-.52c1.47,1.51,2,3.12,2,7.2v.37Zm7-5.82a3.63,3.63,0,0,0-3.08-1.5c-2.43,0-3.8,1.78-3.94,5.3h7.81A7.2,7.2,0,0,0,312.53,91.93Z" fill="#333"/><path d="M327.23,106.21a6.22,6.22,0,0,1-5.45-2.57,10.13,10.13,0,0,1-1.64-6.06c0-3.73,1.1-5.79,2.57-7.26a6.23,6.23,0,0,1,4.62-2A6.71,6.71,0,0,1,332,90.18L330.51,92a4.51,4.51,0,0,0-3.25-1.37A3.7,3.7,0,0,0,324,92.58a12.3,12.3,0,0,0-1,5.58c0,3.84,1.47,5.93,4.21,5.93a4.75,4.75,0,0,0,3.66-1.85l1.47,1.71A6.64,6.64,0,0,1,327.23,106.21Z" fill="#333"/><path d="M343.83,90.8h-3.56v11c0,1.88.51,2.54,2.19,2.54a3.38,3.38,0,0,0,1.68-.35l.38,1.71a6.3,6.3,0,0,1-3,.69,4.91,4.91,0,0,1-2.22-.48c-1.2-.58-1.65-1.68-1.65-3.39V90.8h-2.22v-2h2.22c0-1.47.21-3.76.28-4.31l2.81-.62a44.55,44.55,0,0,0-.35,4.93h4.28Z" fill="#333"/><path d="M360.63,106.55a4.4,4.4,0,0,1-1.85-2.74,6.31,6.31,0,0,1-5.41,2.6,4.66,4.66,0,0,1-4.48-2.43,6.06,6.06,0,0,1-.45-2.53V88.92l2.64-.52v12.26c0,1.61.24,2.33,1,2.88a3.84,3.84,0,0,0,2.08.58,5.21,5.21,0,0,0,4.35-3.08V89l2.64-.44v12.43c0,2.15.31,3,1.16,3.79Z" fill="#333"/><path d="M379.16,106.55a4.4,4.4,0,0,1-1.85-2.74,6.31,6.31,0,0,1-5.41,2.6,4.66,4.66,0,0,1-4.48-2.43,6.06,6.06,0,0,1-.45-2.53V88.92l2.64-.52v12.26c0,1.61.24,2.33,1,2.88a3.84,3.84,0,0,0,2.08.58,5.21,5.21,0,0,0,4.35-3.08V89l2.64-.44v12.43c0,2.15.31,3,1.16,3.79Z" fill="#333"/><path d="M392.93,91.35a2.23,2.23,0,0,0-.75-.14,4.09,4.09,0,0,0-2.84,1.23,3.08,3.08,0,0,0-1,2.71v10.68h-2.68V92.68a9.13,9.13,0,0,0-.58-3.63l2.67-.71a5.89,5.89,0,0,1,.55,2.77,6.17,6.17,0,0,1,4.8-2.84,3,3,0,0,1,.92.17Z" fill="#333"/><path d="M405.87,110.9h-2.26l8.87-31h2.26Z" fill="#333"/><path d="M439.53,104.84a9.12,9.12,0,0,1-5.28,1.44,13.77,13.77,0,0,1-7.53-2.13L428,102a10.21,10.21,0,0,0,6.3,2,5.46,5.46,0,0,0,3.74-1,4,4,0,0,0,1.67-3.35c0-2.09-1.37-3.53-4.21-4.38l-2.36-.72c-2.12-.65-3.25-1.13-4.18-2.09a5.47,5.47,0,0,1-1.47-3.83c0-4,3.05-6.75,7.6-6.75a12.35,12.35,0,0,1,7.09,2.26l-1.23,2c-2.26-1.47-3.7-2-5.72-2-2.95,0-4.69,1.48-4.69,3.87,0,1.89,1.13,3,3.9,3.84l2.71.85a8.08,8.08,0,0,1,4.14,2.37,6.49,6.49,0,0,1,1.54,4.14A6.75,6.75,0,0,1,439.53,104.84Z" fill="#333"/><path d="M453.53,90.8H450v11c0,1.88.52,2.54,2.19,2.54a3.38,3.38,0,0,0,1.68-.35l.38,1.71a6.3,6.3,0,0,1-3,.69,4.91,4.91,0,0,1-2.22-.48c-1.2-.58-1.64-1.68-1.64-3.39V90.8h-2.23v-2h2.23c0-1.47.2-3.76.27-4.31l2.81-.62a44.55,44.55,0,0,0-.35,4.93h4.28Z" fill="#333"/><path d="M465.78,91.35a2.23,2.23,0,0,0-.75-.14,4.09,4.09,0,0,0-2.84,1.23,3.08,3.08,0,0,0-1,2.71v10.68h-2.67V92.68a9,9,0,0,0-.59-3.63l2.67-.71a5.77,5.77,0,0,1,.55,2.77A6.17,6.17,0,0,1,466,88.27a2.91,2.91,0,0,1,.93.17Z" fill="#333"/><path d="M481.65,106.48a3.5,3.5,0,0,1-2.33-2.5,6.35,6.35,0,0,1-4.93,2.3c-4.21,0-5.47-2.57-5.47-4.87,0-3.86,3.32-6.12,9-6.12.38,0,.66,0,1.2,0v-1.2c0-1.5-.07-2.12-.54-2.67a2.8,2.8,0,0,0-2.3-.92,9.36,9.36,0,0,0-5.44,2l-1.34-1.92a12.81,12.81,0,0,1,7.16-2.29c2.36,0,4,.92,4.72,2.67a10.08,10.08,0,0,1,.38,3.76l-.14,5.62c-.07,2.77.1,3.49,1.37,4.17Zm-3.9-9.38c-4.32,0-5.86,1.47-5.86,4.07,0,2,1,3.12,2.95,3.12a4.68,4.68,0,0,0,4.14-2.67l.1-4.45C478.74,97.13,478.12,97.1,477.75,97.1Z" fill="#333"/><path d="M494.08,90.8h-3.56v11c0,1.88.52,2.54,2.19,2.54a3.38,3.38,0,0,0,1.68-.35l.38,1.71a6.3,6.3,0,0,1-3,.69,4.91,4.91,0,0,1-2.22-.48c-1.2-.58-1.65-1.68-1.65-3.39V90.8h-2.22v-2h2.22c0-1.47.21-3.76.28-4.31l2.81-.62a44.55,44.55,0,0,0-.35,4.93h4.28Z" fill="#333"/><path d="M500.21,97.75v.41a6.82,6.82,0,0,0,.78,3.73,4.82,4.82,0,0,0,4.25,2.09,5.87,5.87,0,0,0,4.18-1.61l1,1.72a8.55,8.55,0,0,1-5.75,2.12c-4.72,0-7.57-3.43-7.57-9.08a9.09,9.09,0,0,1,2.06-6.43,6.7,6.7,0,0,1,9.72-.52c1.47,1.51,2,3.12,2,7.2v.37Zm7-5.82a3.63,3.63,0,0,0-3.08-1.5c-2.43,0-3.8,1.78-3.93,5.3H508A7.2,7.2,0,0,0,507.22,91.93Z" fill="#333"/><path d="M527.36,91.32a2.9,2.9,0,0,1-1.16-.21,4.53,4.53,0,0,1,1,2.91,5.51,5.51,0,0,1-2.53,4.69,5.82,5.82,0,0,1-3.18.75c-2.3.82-3.08,1.41-3.08,2s.51.82,1.36.82h2.74a6.5,6.5,0,0,1,4.11,1,4.06,4.06,0,0,1,1.88,3.59c0,3.7-2.63,5.38-6.77,5.38-5.35,0-7.4-1.92-7.4-4.35a5.06,5.06,0,0,1,.34-1.81l2.81-.24a3.11,3.11,0,0,0-.48,1.54,2.24,2.24,0,0,0,1,2,7.19,7.19,0,0,0,3.46.79c2.64,0,4.15-.86,4.15-3a2.31,2.31,0,0,0-.93-2,6,6,0,0,0-3.35-.62c-.69,0-2.09,0-2.64,0-2,0-3.22-.93-3.22-2.47,0-1.37.75-2.19,3.08-2.91a5.23,5.23,0,0,1-3.83-4.93c0-3.42,2.57-5.75,6.3-5.75,2.6,0,3.11,1,5.2,1a3.86,3.86,0,0,0,2.36-.76l1.65,1.65A4.59,4.59,0,0,1,527.36,91.32Zm-6.4-.69c-2.12,0-3.22,1.16-3.22,3.53,0,2.19,1.13,3.39,3.29,3.39s3.08-1.2,3.08-3.5S523.22,90.63,521,90.63Z" fill="#333"/><path d="M535.23,85.6a2.07,2.07,0,0,1-2.09-2.06,2.1,2.1,0,0,1,2.09-2.12,2.09,2.09,0,1,1,0,4.18Zm-1.44,20.23v-17l2.77-.45v17.43Z" fill="#333"/><path d="M544.49,97.75v.41a6.81,6.81,0,0,0,.79,3.73,4.82,4.82,0,0,0,4.25,2.09,5.83,5.83,0,0,0,4.17-1.61l1,1.72a8.55,8.55,0,0,1-5.75,2.12c-4.73,0-7.57-3.43-7.57-9.08a9.09,9.09,0,0,1,2.06-6.43,6.7,6.7,0,0,1,9.72-.52c1.47,1.51,1.95,3.12,1.95,7.2v.37Zm7-5.82a3.63,3.63,0,0,0-3.08-1.5c-2.43,0-3.8,1.78-3.94,5.3h7.81A7.2,7.2,0,0,0,551.51,91.93Z" fill="#333"/><path d="M569.38,110.9h-2.26l8.87-31h2.26Z" fill="#333"/><path d="M606,104a8.2,8.2,0,0,1-6,2.26,8.56,8.56,0,0,1-6.68-3c-1.85-2.13-2.81-5.31-2.81-9.31,0-7.47,3.56-12.06,9.35-12.06a8.48,8.48,0,0,1,7.4,3.84c1.47,2.19,2.12,4.93,2.12,8.69C609.44,99,608.41,101.83,606,104Zm-.85-16.61a5.53,5.53,0,0,0-5.24-3.22,5.62,5.62,0,0,0-5,2.74,13.5,13.5,0,0,0-1.2,6.47c0,3.53.58,6.61,1.51,8.19a6.13,6.13,0,0,0,5,2.53,5.23,5.23,0,0,0,4.39-2c1.16-1.47,1.71-3.36,1.71-7.22C606.29,91.42,606,89.05,605.16,87.41Z" fill="#333"/><path d="M624.49,105.83V94.29c0-1.81-.14-2.26-.61-2.84a2.54,2.54,0,0,0-1.89-.72,7.84,7.84,0,0,0-4.72,2.4v12.7h-2.6V92.68a8.21,8.21,0,0,0-.65-3.59l2.6-.72a6.8,6.8,0,0,1,.61,2.67,7.65,7.65,0,0,1,5.38-2.64,4.52,4.52,0,0,1,4.17,2.5,4.87,4.87,0,0,1,.42,2v12.94Z" fill="#333"/><path d="M639.52,90.8H636v11c0,1.88.51,2.54,2.19,2.54a3.41,3.41,0,0,0,1.68-.35l.37,1.71a6.23,6.23,0,0,1-3,.69,4.91,4.91,0,0,1-2.22-.48c-1.2-.58-1.65-1.68-1.65-3.39V90.8H631.1v-2h2.22c0-1.47.21-3.76.28-4.31l2.8-.62a48.1,48.1,0,0,0-.34,4.93h4.28Z" fill="#333"/><path d="M660.55,106h-2.64l-3.39-12c-.27-1-.44-1.75-.48-1.89H654c0,.24-.24,1.27-.38,1.75L650.18,106h-2.5l-4.73-17,2.67-.58,2.74,11.26c.34,1.4.58,2.6.62,2.84h.1c0-.24.27-1.37.58-2.46l3.05-11.2h2.91l3,11.33c.2.83.58,2.19.68,2.5h.07l.52-2.36,2.7-11.47h2.81Z" fill="#333"/><path d="M670.72,85.6a2.07,2.07,0,0,1-2.08-2.06,2.1,2.1,0,0,1,2.08-2.12,2.09,2.09,0,0,1,0,4.18Zm-1.43,20.23v-17l2.77-.45v17.43Z" fill="#333"/><path d="M677.92,105.83v-21a11.29,11.29,0,0,0-.44-3.49l2.67-.52a14.89,14.89,0,0,1,.44,4v21Zm10.62,0-7.84-9.65,6.5-7.4h3.36l-6.71,7.4,8.25,9.65Z" fill="#333"/><path d="M695.74,105.83v-21a10.81,10.81,0,0,0-.45-3.49L698,80.8a14.25,14.25,0,0,1,.45,4v21Zm10.61,0-7.84-9.65,6.51-7.4h3.35l-6.71,7.4,8.25,9.65Z" fill="#333"/><path d="M714.51,97.75v.41a6.72,6.72,0,0,0,.79,3.73,4.8,4.8,0,0,0,4.24,2.09,5.85,5.85,0,0,0,4.18-1.61l1,1.72a8.57,8.57,0,0,1-5.76,2.12c-4.72,0-7.56-3.43-7.56-9.08a9.13,9.13,0,0,1,2.05-6.43,6.72,6.72,0,0,1,9.73-.52c1.47,1.51,1.95,3.12,1.95,7.2v.37Zm7-5.82a3.63,3.63,0,0,0-3.08-1.5c-2.43,0-3.8,1.78-3.94,5.3h7.81A7.4,7.4,0,0,0,721.53,91.93Z" fill="#333"/><path d="M732.76,106.17a2.85,2.85,0,0,1-2-.72,2.93,2.93,0,0,1-.82-2.43V85a13.66,13.66,0,0,0-.41-3.5l2.66-.51a14.11,14.11,0,0,1,.45,4v17.43c0,1.33.2,1.71,1,1.71a1.56,1.56,0,0,0,.34-.07l.55,1.75A3.36,3.36,0,0,1,732.76,106.17Z" fill="#333"/><path d="M740.12,85.6A2.07,2.07,0,0,1,738,83.54a2.1,2.1,0,0,1,2.09-2.12,2.09,2.09,0,1,1,0,4.18Zm-1.44,20.23v-17l2.77-.45v17.43Z" fill="#333"/><path d="M757.18,105.83V94.29c0-1.81-.14-2.26-.62-2.84a2.5,2.5,0,0,0-1.88-.72,7.84,7.84,0,0,0-4.72,2.4v12.7h-2.61V92.68a8.05,8.05,0,0,0-.65-3.59l2.61-.72a6.8,6.8,0,0,1,.61,2.67,7.65,7.65,0,0,1,5.38-2.64,4.52,4.52,0,0,1,4.17,2.5,4.86,4.86,0,0,1,.41,2v12.94Z" fill="#333"/><path d="M777.29,91.32a2.9,2.9,0,0,1-1.16-.21,4.54,4.54,0,0,1,1,2.91,5.52,5.52,0,0,1-2.54,4.69,5.82,5.82,0,0,1-3.18.75c-2.29.82-3.08,1.41-3.08,2s.51.82,1.37.82h2.73a6.5,6.5,0,0,1,4.11,1,4.07,4.07,0,0,1,1.89,3.59c0,3.7-2.64,5.38-6.78,5.38-5.34,0-7.4-1.92-7.4-4.35a5.29,5.29,0,0,1,.34-1.81l2.81-.24a3.11,3.11,0,0,0-.48,1.54,2.22,2.22,0,0,0,1,2,7.12,7.12,0,0,0,3.45.79c2.64,0,4.15-.86,4.15-3a2.31,2.31,0,0,0-.93-2,6,6,0,0,0-3.35-.62c-.69,0-2.09,0-2.64,0-2,0-3.22-.93-3.22-2.47,0-1.37.76-2.19,3.09-2.91a5.23,5.23,0,0,1-3.84-4.93c0-3.42,2.57-5.75,6.3-5.75,2.6,0,3.11,1,5.2,1a3.86,3.86,0,0,0,2.36-.76l1.65,1.65A4.59,4.59,0,0,1,777.29,91.32Zm-6.4-.69c-2.12,0-3.22,1.16-3.22,3.53,0,2.19,1.13,3.39,3.29,3.39s3.08-1.2,3.08-3.5S773.15,90.63,770.89,90.63Z" fill="#333"/></svg>