<svg xmlns="http://www.w3.org/2000/svg" viewBox="0 0 778.87 112.2"><path d="M56 33.1c5.2-.5 8.9-5.8 8.4-11.9s-5.2-10.7-10.3-10.3-8.9 5.8-8.4 11.9S50.8 33.6 56 33.1zm127.7 63.8l-74.4 6.5-3.5-39.9 7.1-.7 2.9 32.8 60.1-5.2-7.3-82.6-60 5.3 2.5 28.1-7.2.6-3.1-35.3L175.2 0l8.5 96.9z" fill="#333"/><path fill="#333" d="M146.9 49.6l-25.4-12 .7 8.8L82 49.8l.9 10.2 40.2-3.5.8 8.7 23-15.6zm-71.9.9l-8.6.8.2 1.7-11.1 1L54 36.6s-14.2-8.3-13.8-7.3L16 31.5 4.3 51.6l4.3 2.5-1.2 2.3 2.1 1.1-4.1 8L9.5 68l8.6-16.4-3-1.8 5.3-9.6 14.4-1.3-15 27.9L21.9 90 0 102.4l4.2 9.8 27.9-15.3-.7-20.3 17.8 8.9.4 22.8 11.1-.8L58.3 78 39 68.1 46.5 55l.7 8.1 28.7-2.5zm183.91 4.74c-3.89 5.27-9.62 8.79-15.64 9.25-2.4.18-5.46.37-9.25.37h-15.63V.55h13c3.7 0 8.6.19 11.19.37a21.86 21.86 0 0 1 14.02 6.39c5.92 5.83 8.79 14.06 8.79 25.63 0 8.79-2.13 16.47-6.48 22.3zM247.62 16.1c-2.13-3.52-5.09-5.37-10.17-5.37h-5.93v43.58h6.94c8.51 0 12.4-6.57 12.4-20.17 0-7.49-.65-13.79-3.24-18.04zm66.8 48.76l-4.53-15.27H291l-4.54 15.27H273L294.07.37h14l20.23 64.49zm-11.19-38.95l-2.59-11.38c-.37 1.48-1.94 8.14-3.05 12.39-1.21 4.63-2 7.68-3.43 11.94h12.59c-.47-1.39-2.5-8.51-3.52-12.95zm58.85 39.41h-11.75L328.49.55h14.16l10.64 33.5c.92 2.87 1.94 6.47 3 11.19A122 122 0 0 1 360 32.38L370.87.55h13.6zm68.84-.46h-36.27V.55h13.23v53.58h23zm68.83-2.68c-4.16 2.68-8.41 3.88-14.24 3.88a37.18 37.18 0 0 1-20.36-5.74l3.33-5.92a27.68 27.68 0 0 0 17 5.46c4.81 0 7.4-.74 10.08-2.77a10.88 10.88 0 0 0 4.57-9.09c0-5.65-3.71-9.53-11.39-11.84l-6.38-2c-5.74-1.75-8.79-3-11.29-5.64a14.79 14.79 0 0 1-4-10.36C467.09 7.4 475.33 0 487.63 0a33.41 33.41 0 0 1 19.16 6.11l-3.33 5.46c-6.11-4-10-5.37-15.45-5.37-8 0-12.68 4-12.68 10.45 0 5.09 3.05 8 10.55 10.37l7.31 2.31c5.64 1.76 8.6 3.42 11.19 6.38a17.63 17.63 0 0 1 4.17 11.2 18.23 18.23 0 0 1-8.8 15.27zm61.44-54.41H544v57.09h-7.3V7.77h-17V1.39h42zm49.32 53.29c-3.89 3.34-9 4.91-16.66 4.91-9.8 0-15.35-2.87-18.78-9.16-1.66-3.05-1.85-7.13-1.85-9.9V1.39h7.5v42.74c0 3.15.27 7.22 1.11 9.16 1.2 2.78 4.62 6.2 12.39 6.2 5.28 0 9.26-1.39 11.2-4 2.13-2.87 2.41-5.64 2.41-9.9V1.39h7.49v45.15c0 7.68-1.02 11.29-4.81 14.52zm63.1-4.16c-5.55 6.2-11.1 8-20 8h-16.55V1.39h12.68c9.72 0 14.16.46 20.36 4.9 7.21 5.18 10.73 14.53 10.73 26.93 0 11.1-2.96 18.96-7.22 23.68zm-6.48-43.48c-4.13-4.91-8.23-5.83-14.89-5.83h-7.59v51h7.59c6.57 0 12.67-.74 16.1-6.66 2.87-4.91 4.25-11.11 4.25-17.77 0-9.55-1.2-15.66-5.46-20.74zm33.13 51.44V1.39h7.4v63.47zM768.82 60a22.17 22.17 0 0 1-16.1 6.11 23 23 0 0 1-18-8.05c-5-5.73-7.59-14.34-7.59-25.16 0-20.18 9.62-32.57 25.26-32.57 11 0 16.93 5.83 20 10.36 4 5.92 5.73 13.32 5.73 23.5-.05 12.16-2.82 19.81-9.3 25.81zm-2.31-44.87a14.94 14.94 0 0 0-14.16-8.7c-5.92 0-11.19 2.87-13.6 7.41-2.22 4.16-3.24 9.62-3.24 17.48 0 9.53 1.58 17.86 4.07 22.12 2.41 4.07 8.33 6.84 13.51 6.84s9-1.85 11.84-5.46c3.15-4 4.63-9.06 4.63-19.52 0-9.39-.92-15.78-3.05-20.22zm-534.61 90.7l-2.23-7.22h-8.76l-2.26 7.22h-2.84l7.84-23.49h3.66l7.77 23.49zm-6.54-21l-3.7 11.5H229zm20.8 6.52a2.23 2.23 0 0 0-.75-.14 4.07 4.07 0 0 0-2.84 1.23 3.08 3.08 0 0 0-1 2.71v10.68h-2.67V92.68a9.35 9.35 0 0 0-.58-3.63l2.67-.71a5.89 5.89 0 0 1 .55 2.77 6.17 6.17 0 0 1 4.79-2.84 3 3 0 0 1 .93.17zm9.75 14.86a6.22 6.22 0 0 1-5.45-2.57 10.13 10.13 0 0 1-1.64-6.06c0-3.73 1.09-5.79 2.57-7.26a6.21 6.21 0 0 1 4.62-2 6.71 6.71 0 0 1 4.66 1.84L259.19 92a4.51 4.51 0 0 0-3.25-1.37 3.7 3.7 0 0 0-3.22 1.92 12.28 12.28 0 0 0-1 5.58c0 3.84 1.48 5.93 4.21 5.93a4.76 4.76 0 0 0 3.67-1.85l1.47 1.71a6.64 6.64 0 0 1-5.16 2.29zm19.79-.38V94.05a3.42 3.42 0 0 0-.66-2.53 2.81 2.81 0 0 0-2-.69 6.93 6.93 0 0 0-5 2.88v12.12h-2.67v-21a11.29 11.29 0 0 0-.44-3.49l2.67-.52a14.89 14.89 0 0 1 .44 4v4c0 1-.06 2.08-.1 2.32a8.69 8.69 0 0 1 5.69-2.7c2.05 0 3.9 1.13 4.38 2.7a7.85 7.85 0 0 1 .27 2.47v12.22zm9.91-20.23a2.07 2.07 0 0 1-2.09-2.06 2.1 2.1 0 0 1 2.09-2.12 2.09 2.09 0 0 1 0 4.18zm-1.44 20.23v-17l2.77-.45v17.43zm15.22-15.03h-3.56v11c0 1.88.51 2.54 2.19 2.54a3.41 3.41 0 0 0 1.68-.35l.38 1.71a6.3 6.3 0 0 1-3 .69 4.91 4.91 0 0 1-2.22-.48c-1.2-.58-1.65-1.68-1.65-3.39V90.8H291v-2h2.22c0-1.47.21-3.76.28-4.31l2.81-.62a44.55 44.55 0 0 0-.35 4.93h4.28zm6.12 6.95v.41a6.81 6.81 0 0 0 .79 3.73 4.82 4.82 0 0 0 4.25 2.09 5.87 5.87 0 0 0 4.18-1.61l1 1.72a8.55 8.55 0 0 1-5.75 2.12c-4.72 0-7.57-3.43-7.57-9.08a9.09 9.09 0 0 1 2.06-6.43 6.7 6.7 0 0 1 9.72-.52c1.47 1.51 2 3.12 2 7.2v.37zm7-5.82a3.63 3.63 0 0 0-3.08-1.5c-2.43 0-3.8 1.78-3.94 5.3h7.81a7.2 7.2 0 0 0-.77-3.8zm14.72 14.28a6.22 6.22 0 0 1-5.45-2.57 10.13 10.13 0 0 1-1.64-6.06c0-3.73 1.1-5.79 2.57-7.26a6.23 6.23 0 0 1 4.62-2 6.71 6.71 0 0 1 4.67 1.86L330.51 92a4.51 4.51 0 0 0-3.25-1.37 3.7 3.7 0 0 0-3.26 1.95 12.3 12.3 0 0 0-1 5.58c0 3.84 1.47 5.93 4.21 5.93a4.75 4.75 0 0 0 3.66-1.85l1.47 1.71a6.64 6.64 0 0 1-5.11 2.26zm16.6-15.41h-3.56v11c0 1.88.51 2.54 2.19 2.54a3.38 3.38 0 0 0 1.68-.35l.38 1.71a6.3 6.3 0 0 1-3 .69 4.91 4.91 0 0 1-2.22-.48c-1.2-.58-1.65-1.68-1.65-3.39V90.8h-2.22v-2h2.22c0-1.47.21-3.76.28-4.31l2.81-.62a44.55 44.55 0 0 0-.35 4.93h4.28zm16.8 15.75a4.4 4.4 0 0 1-1.85-2.74 6.31 6.31 0 0 1-5.41 2.6 4.66 4.66 0 0 1-4.48-2.43 6.06 6.06 0 0 1-.45-2.53V88.92l2.64-.52v12.26c0 1.61.24 2.33 1 2.88a3.84 3.84 0 0 0 2.08.58 5.21 5.21 0 0 0 4.35-3.08V89l2.64-.44v12.43c0 2.15.31 3 1.16 3.79zm18.53 0a4.4 4.4 0 0 1-1.85-2.74 6.31 6.31 0 0 1-5.41 2.6 4.66 4.66 0 0 1-4.48-2.43 6.06 6.06 0 0 1-.45-2.53V88.92l2.64-.52v12.26c0 1.61.24 2.33 1 2.88a3.84 3.84 0 0 0 2.08.58 5.21 5.21 0 0 0 4.35-3.08V89l2.64-.44v12.43c0 2.15.31 3 1.16 3.79zm13.77-15.2a2.23 2.23 0 0 0-.75-.14 4.09 4.09 0 0 0-2.84 1.23 3.08 3.08 0 0 0-1 2.71v10.68h-2.68V92.68a9.13 9.13 0 0 0-.58-3.63l2.67-.71a5.89 5.89 0 0 1 .55 2.77 6.17 6.17 0 0 1 4.8-2.84 3 3 0 0 1 .92.17zm12.94 19.55h-2.26l8.87-31h2.26zm33.66-6.06a9.12 9.12 0 0 1-5.28 1.44 13.77 13.77 0 0 1-7.53-2.13L428 102a10.21 10.21 0 0 0 6.3 2 5.46 5.46 0 0 0 3.74-1 4 4 0 0 0 1.67-3.35c0-2.09-1.37-3.53-4.21-4.38l-2.36-.72c-2.12-.65-3.25-1.13-4.18-2.09a5.47 5.47 0 0 1-1.47-3.83c0-4 3.05-6.75 7.6-6.75a12.35 12.35 0 0 1 7.09 2.26l-1.23 2c-2.26-1.47-3.7-2-5.72-2-2.95 0-4.69 1.48-4.69 3.87 0 1.89 1.13 3 3.9 3.84l2.71.85a8.08 8.08 0 0 1 4.14 2.37 6.49 6.49 0 0 1 1.54 4.14 6.75 6.75 0 0 1-3.3 5.63zm14-14.04H450v11c0 1.88.52 2.54 2.19 2.54a3.38 3.38 0 0 0 1.68-.35l.38 1.71a6.3 6.3 0 0 1-3 .69 4.91 4.91 0 0 1-2.22-.48c-1.2-.58-1.64-1.68-1.64-3.39V90.8h-2.23v-2h2.23c0-1.47.2-3.76.27-4.31l2.81-.62a44.55 44.55 0 0 0-.35 4.93h4.28zm12.25.55a2.23 2.23 0 0 0-.75-.14 4.09 4.09 0 0 0-2.84 1.23 3.08 3.08 0 0 0-1 2.71v10.68h-2.67V92.68a9 9 0 0 0-.59-3.63l2.67-.71a5.77 5.77 0 0 1 .55 2.77 6.17 6.17 0 0 1 4.85-2.84 2.91 2.91 0 0 1 .93.17zm15.87 15.13a3.5 3.5 0 0 1-2.33-2.5 6.35 6.35 0 0 1-4.93 2.3c-4.21 0-5.47-2.57-5.47-4.87 0-3.86 3.32-6.12 9-6.12h1.2v-1.2c0-1.5-.07-2.12-.54-2.67a2.8 2.8 0 0 0-2.3-.92 9.36 9.36 0 0 0-5.44 2l-1.34-1.92a12.81 12.81 0 0 1 7.16-2.29c2.36 0 4 .92 4.72 2.67a10.08 10.08 0 0 1 .38 3.76l-.14 5.62c-.07 2.77.1 3.49 1.37 4.17zm-3.9-9.38c-4.32 0-5.86 1.47-5.86 4.07 0 2 1 3.12 2.95 3.12a4.68 4.68 0 0 0 4.14-2.67l.1-4.45c-.34-.04-.96-.07-1.33-.07zm16.33-6.3h-3.56v11c0 1.88.52 2.54 2.19 2.54a3.38 3.38 0 0 0 1.68-.35l.38 1.71a6.3 6.3 0 0 1-3 .69 4.91 4.91 0 0 1-2.22-.48c-1.2-.58-1.65-1.68-1.65-3.39V90.8h-2.22v-2h2.22c0-1.47.21-3.76.28-4.31l2.81-.62a44.55 44.55 0 0 0-.35 4.93h4.28zm6.13 6.95v.41a6.82 6.82 0 0 0 .78 3.73 4.82 4.82 0 0 0 4.25 2.09 5.87 5.87 0 0 0 4.18-1.61l1 1.72a8.55 8.55 0 0 1-5.75 2.12c-4.72 0-7.57-3.43-7.57-9.08a9.09 9.09 0 0 1 2.06-6.43 6.7 6.7 0 0 1 9.72-.52c1.47 1.51 2 3.12 2 7.2v.37zm7-5.82a3.63 3.63 0 0 0-3.08-1.5c-2.43 0-3.8 1.78-3.93 5.3h7.8a7.2 7.2 0 0 0-.78-3.8zm20.15-.61a2.9 2.9 0 0 1-1.16-.21 4.53 4.53 0 0 1 1 2.91 5.51 5.51 0 0 1-2.53 4.69 5.82 5.82 0 0 1-3.18.75c-2.3.82-3.08 1.41-3.08 2s.51.82 1.36.82h2.74a6.5 6.5 0 0 1 4.11 1 4.06 4.06 0 0 1 1.88 3.59c0 3.7-2.63 5.38-6.77 5.38-5.35 0-7.4-1.92-7.4-4.35a5.06 5.06 0 0 1 .34-1.81l2.81-.24a3.11 3.11 0 0 0-.48 1.54 2.24 2.24 0 0 0 1 2 7.19 7.19 0 0 0 3.46.79c2.64 0 4.15-.86 4.15-3a2.31 2.31 0 0 0-.93-2 6 6 0 0 0-3.35-.62h-2.64c-2 0-3.22-.93-3.22-2.47 0-1.37.75-2.19 3.08-2.91a5.23 5.23 0 0 1-3.83-4.93c0-3.42 2.57-5.75 6.3-5.75 2.6 0 3.11 1 5.2 1a3.86 3.86 0 0 0 2.36-.76l1.65 1.65a4.59 4.59 0 0 1-2.87.93zm-6.4-.69c-2.12 0-3.22 1.16-3.22 3.53 0 2.19 1.13 3.39 3.29 3.39s3.08-1.2 3.08-3.5-.89-3.42-3.11-3.42zm14.27-5.03a2.07 2.07 0 0 1-2.09-2.06 2.1 2.1 0 0 1 2.09-2.12 2.09 2.09 0 1 1 0 4.18zm-1.44 20.23v-17l2.77-.45v17.43zm10.7-8.08v.41a6.81 6.81 0 0 0 .79 3.73 4.82 4.82 0 0 0 4.25 2.09 5.83 5.83 0 0 0 4.17-1.61l1 1.72a8.55 8.55 0 0 1-5.75 2.12c-4.73 0-7.57-3.43-7.57-9.08a9.09 9.09 0 0 1 2.06-6.43 6.7 6.7 0 0 1 9.72-.52c1.47 1.51 1.95 3.12 1.95 7.2v.37zm7-5.82a3.63 3.63 0 0 0-3.08-1.5c-2.43 0-3.8 1.78-3.94 5.3h7.81a7.2 7.2 0 0 0-.77-3.8zm17.89 18.97h-2.26l8.87-31h2.26zM606 104a8.2 8.2 0 0 1-6 2.26 8.56 8.56 0 0 1-6.68-3c-1.85-2.13-2.81-5.31-2.81-9.31 0-7.47 3.56-12.06 9.35-12.06a8.48 8.48 0 0 1 7.4 3.84c1.47 2.19 2.12 4.93 2.12 8.69.06 4.58-.97 7.41-3.38 9.58zm-.85-16.61a5.53 5.53 0 0 0-5.24-3.22 5.62 5.62 0 0 0-5 2.74 13.5 13.5 0 0 0-1.2 6.47c0 3.53.58 6.61 1.51 8.19a6.13 6.13 0 0 0 5 2.53 5.23 5.23 0 0 0 4.39-2c1.16-1.47 1.71-3.36 1.71-7.22-.03-3.46-.32-5.83-1.16-7.47zm19.34 18.44V94.29c0-1.81-.14-2.26-.61-2.84a2.54 2.54 0 0 0-1.89-.72 7.84 7.84 0 0 0-4.72 2.4v12.7h-2.6V92.68a8.21 8.21 0 0 0-.65-3.59l2.6-.72a6.8 6.8 0 0 1 .61 2.67 7.65 7.65 0 0 1 5.38-2.64 4.52 4.52 0 0 1 4.17 2.5 4.87 4.87 0 0 1 .42 2v12.94zm15.03-15.03H636v11c0 1.88.51 2.54 2.19 2.54a3.41 3.41 0 0 0 1.68-.35l.37 1.71a6.23 6.23 0 0 1-3 .69 4.91 4.91 0 0 1-2.22-.48c-1.2-.58-1.65-1.68-1.65-3.39V90.8h-2.27v-2h2.22c0-1.47.21-3.76.28-4.31l2.8-.62a48.1 48.1 0 0 0-.34 4.93h4.28zm21.03 15.2h-2.64l-3.39-12c-.27-1-.44-1.75-.48-1.89H654c0 .24-.24 1.27-.38 1.75L650.18 106h-2.5l-4.73-17 2.67-.58 2.74 11.26c.34 1.4.58 2.6.62 2.84h.1c0-.24.27-1.37.58-2.46l3.05-11.2h2.91l3 11.33c.2.83.58 2.19.68 2.5h.07l.52-2.36 2.7-11.47h2.81zm10.17-20.4a2.07 2.07 0 0 1-2.08-2.06 2.1 2.1 0 0 1 2.08-2.12 2.09 2.09 0 0 1 0 4.18zm-1.43 20.23v-17l2.77-.45v17.43zm8.63 0v-21a11.29 11.29 0 0 0-.44-3.49l2.67-.52a14.89 14.89 0 0 1 .44 4v21zm10.62 0l-7.84-9.65 6.5-7.4h3.36l-6.71 7.4 8.25 9.65zm7.2 0v-21a10.81 10.81 0 0 0-.45-3.49l2.71-.54a14.25 14.25 0 0 1 .45 4v21zm10.61 0l-7.84-9.65 6.51-7.4h3.35l-6.71 7.4 8.25 9.65zm8.16-8.08v.41a6.72 6.72 0 0 0 .79 3.73 4.8 4.8 0 0 0 4.24 2.09 5.85 5.85 0 0 0 4.18-1.61l1 1.72a8.57 8.57 0 0 1-5.76 2.12c-4.72 0-7.56-3.43-7.56-9.08a9.13 9.13 0 0 1 2.05-6.43 6.72 6.72 0 0 1 9.73-.52c1.47 1.51 1.95 3.12 1.95 7.2v.37zm7-5.82a3.63 3.63 0 0 0-3.08-1.5c-2.43 0-3.8 1.78-3.94 5.3h7.81a7.4 7.4 0 0 0-.77-3.8zm11.25 14.24a2.85 2.85 0 0 1-2-.72 2.93 2.93 0 0 1-.82-2.43V85a13.66 13.66 0 0 0-.41-3.5l2.66-.51a14.11 14.11 0 0 1 .45 4v17.43c0 1.33.2 1.71 1 1.71a1.56 1.56 0 0 0 .34-.07l.55 1.75a3.36 3.36 0 0 1-1.77.36zm7.36-20.57a2.07 2.07 0 0 1-2.12-2.06 2.1 2.1 0 0 1 2.09-2.12 2.09 2.09 0 1 1 0 4.18zm-1.44 20.23v-17l2.77-.45v17.43zm18.5 0V94.29c0-1.81-.14-2.26-.62-2.84a2.5 2.5 0 0 0-1.88-.72 7.84 7.84 0 0 0-4.72 2.4v12.7h-2.61V92.68a8.05 8.05 0 0 0-.65-3.59l2.61-.72a6.8 6.8 0 0 1 .61 2.67 7.65 7.65 0 0 1 5.38-2.64 4.52 4.52 0 0 1 4.17 2.5 4.86 4.86 0 0 1 .41 2v12.94zm20.11-14.51a2.9 2.9 0 0 1-1.16-.21 4.54 4.54 0 0 1 1 2.91 5.52 5.52 0 0 1-2.54 4.69 5.82 5.82 0 0 1-3.18.75c-2.29.82-3.08 1.41-3.08 2s.51.82 1.37.82h2.73a6.5 6.5 0 0 1 4.11 1 4.07 4.07 0 0 1 1.89 3.59c0 3.7-2.64 5.38-6.78 5.38-5.34 0-7.4-1.92-7.4-4.35a5.29 5.29 0 0 1 .34-1.81l2.81-.24a3.11 3.11 0 0 0-.48 1.54 2.22 2.22 0 0 0 1 2 7.12 7.12 0 0 0 3.45.79c2.64 0 4.15-.86 4.15-3a2.31 2.31 0 0 0-.93-2 6 6 0 0 0-3.35-.62h-2.64c-2 0-3.22-.93-3.22-2.47 0-1.37.76-2.19 3.09-2.91a5.23 5.23 0 0 1-3.84-4.93c0-3.42 2.57-5.75 6.3-5.75 2.6 0 3.11 1 5.2 1a3.86 3.86 0 0 0 2.36-.76l1.65 1.65a4.59 4.59 0 0 1-2.85.93zm-6.4-.69c-2.12 0-3.22 1.16-3.22 3.53 0 2.19 1.13 3.39 3.29 3.39s3.08-1.2 3.08-3.5-.89-3.42-3.15-3.42z"/></svg>