<?xml version="1.0" encoding="utf-8"?>
<!-- Generator: Adobe Illustrator 26.3.1, SVG Export Plug-In . SVG Version: 6.00 Build 0)  -->
<svg version="1.1" id="home-header-img" xmlns="http://www.w3.org/2000/svg" xmlns:xlink="http://www.w3.org/1999/xlink" x="0px"
	 y="0px" viewBox="0 0 1100 150" style="enable-background:new 0 0 1100 150;" xml:space="preserve">
<style type="text/css">
	.st0{fill:#4D4D4D;}
	.st1{fill:#FFFFFF;}
</style>
<rect class="st0" width="1100" height="150"/>
<g>
	<path class="st1" d="M94.7,75.1c-2.4,3.4-6.1,5.6-10.1,6c-1.6,0.1-3.5,0.2-6,0.2H68.4V39.6h8.4c2.4,0,5.6,0.1,7.3,0.2
		c3.4,0.2,6.7,1.7,9.1,4.1c3.8,3.8,5.7,9.1,5.7,16.6C98.9,66.3,97.5,71.3,94.7,75.1z M87.4,49.7c-1.4-2.3-3.3-3.5-6.6-3.5h-3.9v28.3
		h4.5c5.5,0,8-4.3,8-13.1C89.5,56.6,89.1,52.5,87.4,49.7z"/>
	<path class="st1" d="M129.4,81.3l-3-9.9h-12.2l-2.9,9.9h-8.8l13.7-41.8h9.1l13.1,41.8H129.4z M122.1,56.1l-1.7-7.4
		c-0.2,1-1.3,5.3-2,8c-0.8,3-1.3,5-2.2,7.7h8.2C124.1,63.6,122.7,58.9,122.1,56.1z"/>
	<path class="st1" d="M159.5,81.6h-7.6l-14.2-42h9.2l6.9,21.7c0.8,2.4,1.4,4.8,1.9,7.3c0.6-2.8,1.4-5.6,2.4-8.3l7.1-20.6h8.8
		L159.5,81.6z"/>
	<path class="st1" d="M204.3,81.3h-23.5V39.6h8.6v34.7h14.9V81.3z"/>
	<path class="st1" d="M250.1,79.6c-2.7,1.8-6,2.6-9.2,2.5c-4.7,0.1-9.3-1.2-13.2-3.7l2.2-3.8c3.2,2.4,7,3.6,11,3.5
		c3.1,0,4.8-0.5,6.5-1.8c1.9-1.3,3-3.6,2.9-5.9c0-3.7-2.4-6.2-7.4-7.7l-4.1-1.2c-3.7-1.1-5.7-2-7.3-3.7c-1.7-1.8-2.6-4.2-2.6-6.7
		c0-7,5.3-11.8,13.3-11.8c4.5,0,8.8,1.4,12.4,4l-2.2,3.5c-4-2.6-6.5-3.5-10-3.5c-5.2,0-8.2,2.6-8.2,6.8c0,3.3,2,5.2,6.8,6.7l4.7,1.5
		c3.7,1.1,5.6,2.2,7.3,4.1c1.7,2,2.7,4.6,2.7,7.3C255.7,73.8,253.6,77.5,250.1,79.6z"/>
	<path class="st1" d="M290.4,44.3h-11.1v37h-4.7v-37h-11v-4.1h27.2L290.4,44.3z"/>
	<path class="st1" d="M323.1,78.9c-2.5,2.2-5.8,3.2-10.8,3.2c-6.4,0-10-1.9-12.2-5.9c-0.9-2-1.3-4.2-1.2-6.4V40.2h4.9v27.7
		c-0.1,2,0.2,4,0.7,5.9c0.8,1.8,3,4,8,4c3.4,0,6-0.9,7.3-2.6c1.4-1.9,1.6-3.7,1.6-6.4V40.2h4.9v29.3
		C326.2,74.4,325.5,76.8,323.1,78.9z"/>
	<path class="st1" d="M362.9,76.2c-3.6,4-7.2,5.2-13,5.2h-10.7V40.2h8.2c6.3,0,9.2,0.3,13.2,3.2c4.7,3.4,7,9.4,7,17.5
		C367.6,68,365.7,73.1,362.9,76.2z M358.7,48c-2.7-3.2-5.3-3.8-9.7-3.8h-4.9v33.1h4.9c4.3,0,8.2-0.5,10.4-4.3
		c1.9-3.5,2.9-7.5,2.8-11.5C362.3,55.2,361.5,51.3,358.7,48L358.7,48z"/>
	<path class="st1" d="M379,81.3V40.2h4.8v41.2L379,81.3L379,81.3z"/>
	<path class="st1" d="M422.4,78.2c-2.8,2.7-6.6,4.1-10.4,4c-4.5,0.1-8.8-1.8-11.7-5.2c-3.2-3.7-4.9-9.3-4.9-16.3
		c0-13.1,6.2-21.1,16.3-21.1c5.2-0.2,10.1,2.4,13,6.7c2.6,3.8,3.7,8.6,3.7,15.2C428.4,69.3,426.5,74.3,422.4,78.2z M420.9,49.1
		c-1.6-3.6-5.3-5.8-9.2-5.6c-3.6-0.1-7,1.7-8.8,4.8c-1.4,2.7-2.1,6.2-2.1,11.3c0,6.2,1,11.6,2.6,14.3c1.6,2.7,5.4,4.4,8.8,4.4
		c3,0.1,5.8-1.2,7.7-3.5c2-2.6,3-5.9,3-12.7C422.8,56.1,422.2,51.9,420.9,49.1L420.9,49.1z"/>
	<path class="st1" d="M76.7,106.5l-1.4-4.6h-5.6l-1.5,4.6h-1.8l5-15.1h2.4l5,15.1H76.7z M72.5,93l-2.4,7.4h4.7L72.5,93z"/>
	<path class="st1" d="M85.9,97.2c-0.2-0.1-0.3-0.1-0.5-0.1c-0.7,0-1.3,0.3-1.8,0.8c-0.5,0.4-0.7,1.1-0.6,1.7v6.9h-1.7v-8.4
		c0-0.8-0.1-1.6-0.4-2.3l1.7-0.5c0.3,0.6,0.4,1.2,0.3,1.8c0.7-1.1,1.8-1.7,3.1-1.8c0.2,0,0.4,0,0.6,0.1L85.9,97.2z"/>
	<path class="st1" d="M92.1,106.7c-1.4,0.1-2.7-0.5-3.5-1.6c-0.8-1.2-1.1-2.5-1.1-3.9c-0.2-1.7,0.5-3.4,1.7-4.7
		c0.8-0.8,1.9-1.3,3-1.3s2.2,0.4,3,1.2l-1,1.2c-0.5-0.6-1.3-0.9-2.1-0.9c-0.9,0-1.7,0.5-2.1,1.2c-0.5,1.1-0.7,2.4-0.6,3.6
		c0,2.5,1,3.8,2.7,3.8c0.9,0,1.8-0.4,2.3-1.2l0.9,1.1C94.7,106.2,93.4,106.8,92.1,106.7z"/>
	<path class="st1" d="M104.9,106.5v-7.6c0.1-0.6-0.1-1.2-0.4-1.6c-0.3-0.3-0.8-0.5-1.3-0.4c-1.3,0.1-2.4,0.8-3.2,1.8v7.8h-1.7V93
		c0-0.8-0.1-1.5-0.3-2.2l1.7-0.3c0.2,0.8,0.3,1.7,0.3,2.6v2.6c0,0.6,0,1.3-0.1,1.5c1-1,2.3-1.6,3.7-1.7c1.2-0.1,2.4,0.6,2.8,1.7
		c0.1,0.5,0.2,1.1,0.2,1.6v7.9h-1.7V106.5z"/>
	<path class="st1" d="M111.2,93.5c-0.7,0-1.3-0.6-1.3-1.3l0,0c0-0.7,0.6-1.3,1.3-1.4c0.7,0,1.3,0.6,1.3,1.3
		C112.6,92.9,112,93.5,111.2,93.5z M110.3,106.5V95.6l1.8-0.3v11.2C112.1,106.5,110.3,106.5,110.3,106.5z"/>
	<path class="st1" d="M120.1,96.8h-2.3v7.1c0,1.2,0.3,1.6,1.4,1.6c0.4,0,0.7-0.1,1.1-0.2l0.2,1.1c-0.6,0.3-1.3,0.5-1.9,0.4
		c-0.5,0-1-0.1-1.4-0.3c-0.8-0.4-1-1.1-1-2.2v-7.5h-1.5v-1.3h1.4c0-1,0.1-2.4,0.2-2.8l1.8-0.4c-0.1,1.1-0.2,2.1-0.2,3.2h2.8
		L120.1,96.8z"/>
	<path class="st1" d="M124,101.3v0.3c-0.1,0.8,0.1,1.7,0.5,2.4c0.6,0.9,1.6,1.4,2.7,1.3c1,0,2-0.3,2.7-1l0.7,1.1
		c-1,0.9-2.3,1.4-3.7,1.4c-3,0-4.9-2.2-4.9-5.8c-0.1-1.5,0.4-3,1.3-4.1c0.8-1,2-1.5,3.3-1.5c1.1,0,2.2,0.4,3,1.2
		c0.9,1,1.3,2,1.3,4.6v0.2L124,101.3z M128.5,97.6c-0.5-0.6-1.2-1-2-1c-1.6,0-2.4,1.1-2.5,3.4h5C129,99.1,128.9,98.3,128.5,97.6z"/>
	<path class="st1" d="M137.9,106.7c-1.4,0.1-2.7-0.5-3.5-1.6c-0.7-1.2-1.1-2.5-1-3.9c-0.2-1.7,0.4-3.4,1.6-4.7
		c0.8-0.8,1.9-1.3,3-1.3s2.2,0.4,3,1.2l-0.9,1.2c-0.5-0.6-1.3-0.9-2.1-0.9c-0.9,0-1.7,0.5-2.1,1.2c-0.5,1.1-0.7,2.4-0.6,3.6
		c0,2.5,0.9,3.8,2.7,3.8c0.9,0,1.8-0.5,2.4-1.2l0.9,1.1C140.5,106.2,139.2,106.8,137.9,106.7z"/>
	<path class="st1" d="M148.6,96.8h-2.3v7.1c0,1.2,0.3,1.6,1.4,1.6c0.4,0,0.7-0.1,1.1-0.2l0.2,1.1c-0.6,0.3-1.3,0.5-1.9,0.4
		c-0.5,0-1-0.1-1.4-0.3c-0.8-0.4-1.2-1.3-1.1-2.2v-7.5h-1.4v-1.3h1.4c0-1,0.1-2.4,0.2-2.8l1.8-0.4c-0.1,1.1-0.2,2.1-0.2,3.2h2.8
		L148.6,96.8z"/>
	<path class="st1" d="M159.4,106.9c-0.6-0.4-1-1-1.2-1.8c-0.8,1.1-2.1,1.7-3.5,1.7c-1.2,0.1-2.3-0.5-2.9-1.6
		c-0.2-0.5-0.3-1.1-0.3-1.6v-8l1.7-0.3v7.9c0,1,0.2,1.5,0.7,1.9c0.4,0.3,0.9,0.4,1.3,0.4c1.2-0.1,2.3-0.9,2.8-2v-7.8l1.7-0.3v8
		c0,1.4,0.2,1.9,0.8,2.4L159.4,106.9z"/>
	<path class="st1" d="M171.3,106.9c-0.6-0.4-1-1-1.2-1.8c-0.8,1.1-2.1,1.7-3.5,1.7c-1.2,0.1-2.3-0.5-2.9-1.6
		c-0.2-0.5-0.3-1.1-0.3-1.6v-8l1.7-0.3v7.9c0,1,0.2,1.5,0.7,1.9c0.4,0.3,0.9,0.4,1.3,0.4c1.2-0.1,2.3-0.9,2.8-2v-7.8l1.7-0.3v8
		c0,1.4,0.2,1.9,0.8,2.4L171.3,106.9z"/>
	<path class="st1" d="M180.1,97.2c-0.2-0.1-0.3-0.1-0.5-0.1c-0.7,0-1.3,0.3-1.8,0.8c-0.5,0.4-0.7,1.1-0.6,1.7v6.9h-1.7v-8.4
		c0-0.8-0.1-1.6-0.4-2.3l1.7-0.5c0.3,0.6,0.4,1.2,0.4,1.8c0.7-1.1,1.8-1.7,3.1-1.8c0.2,0,0.4,0,0.6,0.1L180.1,97.2z"/>
	<path class="st1" d="M188.4,109.7H187l5.7-19.9h1.4L188.4,109.7z"/>
	<path class="st1" d="M210,105.8c-1,0.6-2.2,1-3.4,0.9c-1.7,0-3.4-0.5-4.8-1.4l0.8-1.4c1.2,0.9,2.6,1.3,4,1.3
		c0.9,0.1,1.7-0.2,2.4-0.7s1.1-1.3,1.1-2.2c0-1.3-0.9-2.3-2.7-2.8l-1.5-0.5c-1-0.2-1.9-0.7-2.7-1.3c-0.6-0.7-1-1.5-1-2.5
		c0-2.6,2-4.3,4.9-4.3c1.6,0,3.2,0.5,4.6,1.5l-0.8,1.3c-1.1-0.8-2.3-1.3-3.7-1.3c-1.9,0-3,0.9-3,2.5c0,1.2,0.7,1.9,2.5,2.5l1.7,0.6
		c1,0.2,1.9,0.8,2.7,1.5c0.6,0.7,1,1.7,1,2.7C212,103.7,211.3,105,210,105.8z"/>
	<path class="st1" d="M219,96.8h-2.3v7.1c0,1.2,0.3,1.6,1.4,1.6c0.4,0,0.7-0.1,1.1-0.2l0.2,1.1c-0.6,0.3-1.3,0.5-1.9,0.4
		c-0.5,0-1-0.1-1.4-0.3c-0.8-0.4-1.2-1.3-1.1-2.2v-7.5h-1.4v-1.3h1.4c0-1,0.1-2.4,0.2-2.8l1.8-0.4c-0.1,1.1-0.2,2.1-0.2,3.2h2.8
		L219,96.8z"/>
	<path class="st1" d="M226.9,97.2c-0.2-0.1-0.3-0.1-0.5-0.1c-0.7,0-1.3,0.3-1.8,0.8c-0.5,0.4-0.7,1.1-0.6,1.7v6.9h-1.7v-8.4
		c0-0.8-0.1-1.6-0.4-2.3l1.7-0.5c0.3,0.6,0.4,1.2,0.4,1.8c0.7-1.1,1.8-1.7,3.1-1.8c0.2,0,0.4,0,0.6,0.1L226.9,97.2z"/>
	<path class="st1" d="M237.1,106.9c-0.7-0.2-1.3-0.8-1.5-1.6c-0.8,0.9-1.9,1.5-3.2,1.5c-2.7,0-3.5-1.6-3.5-3.1
		c0-2.5,2.1-3.9,5.8-3.9c0.3,0,0.5,0,0.8,0V99c0-1,0-1.4-0.4-1.7c-0.4-0.4-0.9-0.6-1.5-0.6c-1.3,0.1-2.5,0.5-3.5,1.3l-0.9-1.2
		c1.4-0.9,3-1.4,4.6-1.5c1.3-0.1,2.5,0.6,3,1.7c0.2,0.8,0.3,1.6,0.2,2.4l-0.1,3.6c0,1.8,0.1,2.2,0.9,2.7L237.1,106.9z M234.6,100.9
		c-2.8,0-3.8,0.9-3.8,2.6c0,1.3,0.6,2,1.9,2c1.1,0,2.2-0.7,2.7-1.7l0.1-2.9C235.2,100.9,234.8,100.9,234.6,100.9L234.6,100.9z"/>
	<path class="st1" d="M245.1,96.8h-2.3v7.1c0,1.2,0.3,1.6,1.4,1.6c0.4,0,0.7-0.1,1.1-0.2l0.2,1.1c-0.6,0.3-1.3,0.5-1.9,0.4
		c-0.5,0-1-0.1-1.4-0.3c-0.8-0.4-1.1-1.1-1.1-2.2v-7.5h-1.4v-1.3h1.4c0-1,0.1-2.4,0.2-2.8l1.8-0.4c-0.1,1.1-0.2,2.1-0.2,3.2h2.7
		L245.1,96.8z"/>
	<path class="st1" d="M249,101.3v0.3c-0.1,0.8,0.1,1.7,0.5,2.4c0.6,0.9,1.6,1.4,2.7,1.3c1,0,2-0.3,2.7-1l0.7,1.1
		c-1,0.9-2.3,1.4-3.7,1.4c-3,0-4.9-2.2-4.9-5.8c-0.1-1.5,0.4-3,1.3-4.1c0.8-1,2-1.5,3.3-1.5c1.1,0,2.2,0.4,3,1.2
		c0.9,1,1.3,2,1.3,4.6v0.2L249,101.3z M253.5,97.6c-0.5-0.6-1.2-1-2-1c-1.6,0-2.4,1.1-2.5,3.4h5C254.1,99.1,253.9,98.3,253.5,97.6z"
		/>
	<path class="st1" d="M266.5,97.2c-0.3,0-0.5,0-0.8-0.1c0.4,0.5,0.7,1.2,0.7,1.9c0,1.2-0.6,2.3-1.6,3c-0.6,0.3-1.3,0.5-2,0.5
		c-1.5,0.5-2,0.9-2,1.3s0.3,0.5,0.9,0.5h1.8c0.9-0.1,1.8,0.1,2.6,0.6c0.8,0.5,1.2,1.4,1.2,2.3c0,2.4-1.7,3.4-4.4,3.4
		c-3.4,0-4.8-1.2-4.8-2.8c0-0.4,0.1-0.8,0.2-1.2l1.8-0.2c-0.2,0.3-0.3,0.6-0.3,1c0,0.5,0.2,1,0.6,1.3c0.7,0.3,1.5,0.5,2.2,0.5
		c1.7,0,2.7-0.6,2.7-1.9c0-0.5-0.2-1-0.6-1.3c-0.7-0.3-1.4-0.5-2.1-0.4h-1.7c-1.3,0-2.1-0.6-2.1-1.6s0.5-1.4,2-1.9
		c-1.4-0.4-2.4-1.7-2.5-3.2c0-2.2,1.6-3.7,4-3.7c1.7,0,2,0.6,3.3,0.6c0.5,0,1.1-0.2,1.5-0.5l1,1C267.8,96.9,267.1,97.1,266.5,97.2z
		 M262.3,96.7c-1.4,0-2.1,0.8-2.1,2.3c-0.1,1.1,0.6,2,1.6,2.2c0.2,0,0.3,0,0.5,0c1.3,0,2-0.8,2-2.2S263.8,96.7,262.3,96.7
		L262.3,96.7z"/>
	<path class="st1" d="M271.5,93.5c-0.7,0-1.3-0.6-1.3-1.3l0,0c0-0.7,0.6-1.4,1.3-1.4l0,0c0.7,0,1.3,0.6,1.3,1.3
		C272.8,92.9,272.2,93.5,271.5,93.5z M270.6,106.5V95.6l1.8-0.3v11.2C272.4,106.5,270.6,106.5,270.6,106.5z"/>
	<path class="st1" d="M277.5,101.3v0.3c-0.1,0.8,0.1,1.7,0.5,2.4c0.6,0.9,1.6,1.4,2.7,1.3c1,0,2-0.3,2.7-1l0.7,1.1
		c-1,0.9-2.3,1.4-3.7,1.4c-3,0-4.9-2.2-4.9-5.8c-0.1-1.5,0.4-3,1.3-4.1c0.8-1,2-1.5,3.3-1.5c1.1,0,2.2,0.4,3,1.2c1,1,1.2,2,1.2,4.6
		v0.2L277.5,101.3z M282,97.6c-0.5-0.7-1.2-1-2-1c-1.6,0-2.4,1.1-2.5,3.4h5C282.5,99.1,282.3,98.3,282,97.6z"/>
	<path class="st1" d="M293.4,109.7H292l5.7-19.9h1.4L293.4,109.7z"/>
	<path class="st1" d="M316.9,105.3c-1,1-2.4,1.5-3.8,1.4c-1.6,0-3.2-0.7-4.3-1.9c-1.3-1.7-1.9-3.8-1.8-6c0-4.8,2.3-7.7,6-7.7
		c1.9-0.1,3.7,0.9,4.8,2.5c1,1.7,1.5,3.6,1.4,5.6C319.2,102.1,318.5,103.9,316.9,105.3z M316.4,94.7c-0.6-1.3-1.9-2.1-3.4-2.1
		c-1.3,0-2.6,0.6-3.2,1.8c-0.6,1.3-0.9,2.7-0.8,4.2c-0.1,1.8,0.3,3.6,1,5.3c0.7,1,1.9,1.6,3.2,1.6c1.1,0.1,2.1-0.4,2.8-1.3
		c0.8-1,1.1-2.2,1.1-4.6C317.2,97.8,317,96.2,316.4,94.7z"/>
	<path class="st1" d="M328.8,106.5v-7.4c0-1.2-0.1-1.4-0.4-1.8c-0.3-0.3-0.8-0.5-1.2-0.5c-1.1,0.2-2.2,0.7-3,1.5v8.2h-1.7v-8.4
		c0-0.8-0.1-1.6-0.4-2.3l1.7-0.5c0.2,0.5,0.4,1.1,0.4,1.7c0.9-1,2.1-1.6,3.5-1.7c1.1,0,2.2,0.6,2.7,1.6c0.2,0.4,0.3,0.8,0.3,1.3v8.3
		C330.7,106.5,328.8,106.5,328.8,106.5z"/>
	<path class="st1" d="M338.5,96.8h-2.3v7.1c0,1.2,0.3,1.6,1.4,1.6c0.4,0,0.7-0.1,1.1-0.2l0.2,1.1c-0.6,0.3-1.3,0.5-1.9,0.4
		c-0.5,0-1-0.1-1.4-0.3c-0.8-0.4-1-1.1-1-2.2v-7.5h-1.4v-1.3h1.4c0-1,0.1-2.4,0.2-2.8l1.8-0.4c-0.1,1.1-0.2,2.1-0.2,3.2h2.8
		L338.5,96.8z"/>
	<path class="st1" d="M352,106.7h-1.7l-2.2-7.7c-0.2-0.6-0.3-1.1-0.3-1.2l0,0c0,0.2-0.2,0.8-0.2,1.1l-2.2,7.8h-1.7l-3-11l1.7-0.4
		l1.8,7.2c0.2,0.9,0.4,1.7,0.4,1.8h0.1c0.1-0.5,0.2-1.1,0.4-1.6l2-7.2h1.9l1.9,7.3c0.1,0.5,0.4,1.4,0.4,1.6l0,0l0.3-1.5l1.7-7.4h1.8
		L352,106.7z"/>
	<path class="st1" d="M358.5,93.5c-0.7,0-1.3-0.6-1.3-1.3l0,0c0-0.7,0.6-1.4,1.3-1.4l0,0c0.7,0,1.3,0.6,1.3,1.3
		C359.8,92.9,359.2,93.5,358.5,93.5z M357.6,106.5V95.6l1.8-0.3v11.2C359.4,106.5,357.6,106.5,357.6,106.5z"/>
	<path class="st1" d="M363.1,106.5V93c0-0.8-0.1-1.5-0.3-2.2l1.7-0.3c0.2,0.8,0.3,1.7,0.3,2.6v13.4H363.1z M369.9,106.5l-5-6.2
		l4.2-4.8h2.2l-4.3,4.8l5.3,6.2H369.9z"/>
	<path class="st1" d="M374.6,106.5V93c0-0.8-0.1-1.5-0.3-2.2l1.7-0.3c0.2,0.8,0.3,1.7,0.3,2.6v13.4H374.6z M381.4,106.5l-5-6.2
		l4.2-4.8h2.1l-4.3,4.8l5.3,6.2H381.4z"/>
	<path class="st1" d="M386.6,101.3v0.3c-0.1,0.8,0.1,1.7,0.5,2.4c0.6,0.9,1.6,1.4,2.7,1.3c1,0,2-0.3,2.7-1l0.7,1.1
		c-1,0.9-2.3,1.4-3.7,1.4c-3,0-4.9-2.2-4.9-5.8c-0.1-1.5,0.4-3,1.3-4.1c0.8-1,2-1.5,3.3-1.5c1.1,0,2.2,0.4,3,1.2
		c0.9,1,1.2,2,1.2,4.6v0.2L386.6,101.3z M391.1,97.6c-0.5-0.7-1.2-1-2-1c-1.6,0-2.4,1.1-2.5,3.4h5C391.6,99.1,391.5,98.3,391.1,97.6
		z"/>
	<path class="st1" d="M398.3,106.7c-0.5,0-0.9-0.1-1.3-0.5s-0.6-1-0.5-1.6V93c0-0.8-0.1-1.5-0.3-2.2l1.7-0.3
		c0.2,0.9,0.3,1.7,0.3,2.6v11.2c0,0.9,0.1,1.1,0.6,1.1h0.2l0.3,1.1C399.1,106.7,398.7,106.7,398.3,106.7z"/>
	<path class="st1" d="M403.1,93.5c-0.7,0-1.3-0.6-1.3-1.3l0,0c0-0.7,0.6-1.4,1.4-1.4c0.7,0,1.3,0.6,1.3,1.3
		C404.4,92.9,403.8,93.5,403.1,93.5z M402.1,106.5V95.6l1.8-0.3v11.2C403.9,106.5,402.1,106.5,402.1,106.5z"/>
	<path class="st1" d="M414,106.5v-7.4c0-1.2-0.1-1.4-0.4-1.8c-0.3-0.3-0.8-0.5-1.2-0.5c-1.1,0.2-2.2,0.7-3,1.5v8.2h-1.7v-8.4
		c0-0.8-0.1-1.6-0.4-2.3l1.7-0.5c0.2,0.5,0.4,1.1,0.4,1.7c0.9-1,2.1-1.6,3.5-1.7c1.1,0,2.2,0.6,2.7,1.6c0.2,0.4,0.3,0.8,0.3,1.3v8.3
		C415.9,106.5,414,106.5,414,106.5z"/>
	<path class="st1" d="M426.9,97.2c-0.3,0-0.5,0-0.8-0.1c0.4,0.5,0.7,1.2,0.7,1.9c0,1.2-0.6,2.3-1.6,3c-0.6,0.3-1.3,0.5-2,0.5
		c-1.5,0.5-2,0.9-2,1.3s0.3,0.5,0.9,0.5h1.8c0.9-0.1,1.8,0.1,2.6,0.6c0.8,0.5,1.2,1.4,1.2,2.3c0,2.4-1.7,3.4-4.4,3.4
		c-3.4,0-4.8-1.2-4.8-2.8c0-0.4,0.1-0.8,0.2-1.2l1.8-0.2c-0.2,0.3-0.3,0.6-0.3,1c0,0.5,0.2,1,0.6,1.3c0.7,0.3,1.5,0.5,2.2,0.5
		c1.7,0,2.7-0.6,2.7-1.9c0-0.5-0.2-1-0.6-1.3c-0.7-0.3-1.4-0.5-2.1-0.4h-1.6c-1.3,0-2.1-0.6-2.1-1.6s0.5-1.4,2-1.9
		c-1.4-0.4-2.4-1.7-2.5-3.2c0-2.2,1.6-3.7,4-3.7c1.7,0,2,0.6,3.3,0.6c0.5,0,1.1-0.2,1.5-0.5l1,1C428.3,96.9,427.6,97.1,426.9,97.2z
		 M422.8,96.7c-1.4,0-2.1,0.8-2.1,2.3c-0.1,1.1,0.6,2,1.6,2.2c0.2,0,0.3,0,0.5,0c1.3,0,2-0.8,2-2.2S424.3,96.7,422.8,96.7z"/>
</g>
<polygon class="st1" points="1042.7,105.6 1043.7,116.9 1073.6,96.6 1040.6,81.1 1041.5,92.4 989.3,96.9 990.5,110.2 "/>
<polygon class="st1" points="1029.5,113.8 1020.2,114.6 1023.2,150 1032.7,150 "/>
<path class="st1" d="M955.5,75.2c6.7-0.6,11.5-7.5,10.9-15.5s-6.7-14-13.4-13.4s-11.5,7.5-10.9,15.5S948.8,75.8,955.5,75.2z"/>
<polygon class="st1" points="1100,42.5 1100,33.1 1013.7,40.7 1017.7,86.5 1027.1,85.7 1023.8,49.2 "/>
<polygon class="st1" points="908.8,150 924.3,150 923.7,131.6 946.9,143.1 947,150 959.7,150 958.3,133.2 933.4,120.2 943.2,103.2 
	944.1,113.7 981.3,110.7 980.2,97.6 969.1,98.5 969.3,100.8 954.9,102 953.1,79.6 935.2,70.1 903.9,72.7 886.5,102.6 899.5,110.2 
	905.7,99.3 901.9,97.1 909.5,84 928.2,82.5 908.5,118.6 911.1,148.7 "/>
</svg>
