<svg xmlns="http://www.w3.org/2000/svg" viewBox="0 0 482 71.3"><path d="M148.1 35.8c-2.4 3.4-6.1 5.6-10.1 6-1.6.1-3.5.2-6 .2h-10.2V.3h8.4c2.4 0 5.6.1 7.3.2 3.4.2 6.7 1.7 9.1 4.1 3.8 3.8 5.7 9.1 5.7 16.6 0 5.8-1.4 10.8-4.2 14.6zm-7.3-25.4c-1.4-2.3-3.3-3.5-6.6-3.5h-3.9v28.3h4.5c5.5 0 8-4.3 8-13.1.1-4.8-.3-8.9-2-11.7zm42 31.6l-3-9.9h-12.2l-2.9 9.9h-8.8L169.6.2h9.1L191.8 42h-9zm-7.3-25.2l-1.7-7.4c-.2 1-1.3 5.3-2 8-.8 3-1.3 5-2.2 7.7h8.2c-.3-.8-1.7-5.5-2.3-8.3zm37.4 25.5h-7.6L191.1.3h9.2l6.9 21.7c.8 2.4 1.4 4.8 1.9 7.3.6-2.8 1.4-5.6 2.4-8.3L218.6.4h8.8l-14.5 41.9zm44.8-.3h-23.5V.3h8.6V35h14.9v7zm45.8-1.7c-2.7 1.8-6 2.6-9.2 2.5-4.7.1-9.3-1.2-13.2-3.7l2.2-3.8c3.2 2.4 7 3.6 11 3.5 3.1 0 4.8-.5 6.5-1.8 1.9-1.3 3-3.6 2.9-5.9 0-3.7-2.4-6.2-7.4-7.7l-4.1-1.2c-3.7-1.1-5.7-2-7.3-3.7-1.7-1.8-2.6-4.2-2.6-6.7 0-7 5.3-11.8 13.3-11.8 4.5 0 8.8 1.4 12.4 4l-2.2 3.5c-4-2.6-6.5-3.5-10-3.5-5.2 0-8.2 2.6-8.2 6.8 0 3.3 2 5.2 6.8 6.7l4.7 1.5c3.7 1.1 5.6 2.2 7.3 4.1 1.7 2 2.7 4.6 2.7 7.3 0 4.1-2.1 7.8-5.6 9.9zM343.8 5h-11.1v37H328V5h-11V.9h27.2l-.4 4.1zm32.7 34.6c-2.5 2.2-5.8 3.2-10.8 3.2-6.4 0-10-1.9-12.2-5.9-.9-2-1.3-4.2-1.2-6.4V.9h4.9v27.7c-.1 2 .2 4 .7 5.9.8 1.8 3 4 8 4 3.4 0 6-.9 7.3-2.6 1.4-1.9 1.6-3.7 1.6-6.4V.9h4.9v29.3c-.1 4.9-.8 7.3-3.2 9.4zm39.8-2.7c-3.6 4-7.2 5.2-13 5.2h-10.7V.9h8.2c6.3 0 9.2.3 13.2 3.2 4.7 3.4 7 9.4 7 17.5 0 7.1-1.9 12.2-4.7 15.3zm-4.2-28.2c-2.7-3.2-5.3-3.8-9.7-3.8h-4.9V38h4.9c4.3 0 8.2-.5 10.4-4.3 1.9-3.5 2.9-7.5 2.8-11.5.1-6.3-.7-10.2-3.5-13.5zM432.4 42V.9h4.8v41.2l-4.8-.1zm43.4-3.1c-2.8 2.7-6.6 4.1-10.4 4-4.5.1-8.8-1.8-11.7-5.2-3.2-3.7-4.9-9.3-4.9-16.3C448.8 8.3 455 .3 465.1.3c5.2-.2 10.1 2.4 13 6.7 2.6 3.8 3.7 8.6 3.7 15.2 0 7.8-1.9 12.8-6 16.7zm-1.5-29.1c-1.6-3.6-5.3-5.8-9.2-5.6-3.6-.1-7 1.7-8.8 4.8-1.4 2.7-2.1 6.2-2.1 11.3 0 6.2 1 11.6 2.6 14.3 1.6 2.7 5.4 4.4 8.8 4.4 3 .1 5.8-1.2 7.7-3.5 2-2.6 3-5.9 3-12.7-.1-6-.7-10.2-2-13zM130.1 67.2l-1.4-4.6h-5.6l-1.5 4.6h-1.8l5-15.1h2.4l5 15.1h-2.1zm-4.2-13.5l-2.4 7.4h4.7l-2.3-7.4zm13.4 4.2c-.2-.1-.3-.1-.5-.1-.7 0-1.3.3-1.8.8-.5.4-.7 1.1-.6 1.7v6.9h-1.7v-8.4c0-.8-.1-1.6-.4-2.3l1.7-.5c.3.6.4 1.2.3 1.8.7-1.1 1.8-1.7 3.1-1.8.2 0 .4 0 .6.1l-.7 1.8zm6.2 9.5c-1.4.1-2.7-.5-3.5-1.6-.8-1.2-1.1-2.5-1.1-3.9-.2-1.7.5-3.4 1.7-4.7.8-.8 1.9-1.3 3-1.3s2.2.4 3 1.2l-1 1.2c-.5-.6-1.3-.9-2.1-.9-.9 0-1.7.5-2.1 1.2-.5 1.1-.7 2.4-.6 3.6 0 2.5 1 3.8 2.7 3.8.9 0 1.8-.4 2.3-1.2l.9 1.1c-.6 1-1.9 1.6-3.2 1.5zm12.8-.2v-7.6c.1-.6-.1-1.2-.4-1.6-.3-.3-.8-.5-1.3-.4-1.3.1-2.4.8-3.2 1.8v7.8h-1.7V53.7c0-.8-.1-1.5-.3-2.2l1.7-.3c.2.8.3 1.7.3 2.6v2.6c0 .6 0 1.3-.1 1.5 1-1 2.3-1.6 3.7-1.7 1.2-.1 2.4.6 2.8 1.7.1.5.2 1.1.2 1.6v7.9h-1.7v-.2zm6.3-13c-.7 0-1.3-.6-1.3-1.3 0-.7.6-1.3 1.3-1.4.7 0 1.3.6 1.3 1.3.1.8-.5 1.4-1.3 1.4zm-.9 13V56.3l1.8-.3v11.2h-1.8zm9.8-9.7h-2.3v7.1c0 1.2.3 1.6 1.4 1.6.4 0 .7-.1 1.1-.2l.2 1.1c-.6.3-1.3.5-1.9.4-.5 0-1-.1-1.4-.3-.8-.4-1-1.1-1-2.2v-7.5h-1.5v-1.3h1.4c0-1 .1-2.4.2-2.8l1.8-.4c-.1 1.1-.2 2.1-.2 3.2h2.8l-.6 1.3zm3.9 4.5v.3c-.1.8.1 1.7.5 2.4.6.9 1.6 1.4 2.7 1.3 1 0 2-.3 2.7-1l.7 1.1c-1 .9-2.3 1.4-3.7 1.4-3 0-4.9-2.2-4.9-5.8-.1-1.5.4-3 1.3-4.1.8-1 2-1.5 3.3-1.5 1.1 0 2.2.4 3 1.2.9 1 1.3 2 1.3 4.6v.2l-6.9-.1zm4.5-3.7c-.5-.6-1.2-1-2-1-1.6 0-2.4 1.1-2.5 3.4h5c0-.9-.1-1.7-.5-2.4zm9.4 9.1c-1.4.1-2.7-.5-3.5-1.6-.7-1.2-1.1-2.5-1-3.9-.2-1.7.4-3.4 1.6-4.7.8-.8 1.9-1.3 3-1.3s2.2.4 3 1.2l-.9 1.2c-.5-.6-1.3-.9-2.1-.9-.9 0-1.7.5-2.1 1.2-.5 1.1-.7 2.4-.6 3.6 0 2.5.9 3.8 2.7 3.8.9 0 1.8-.5 2.4-1.2l.9 1.1c-.8 1-2.1 1.6-3.4 1.5zm10.7-9.9h-2.3v7.1c0 1.2.3 1.6 1.4 1.6.4 0 .7-.1 1.1-.2l.2 1.1c-.6.3-1.3.5-1.9.4-.5 0-1-.1-1.4-.3-.8-.4-1.2-1.3-1.1-2.2v-7.5h-1.4v-1.3h1.4c0-1 .1-2.4.2-2.8l1.8-.4c-.1 1.1-.2 2.1-.2 3.2h2.8l-.6 1.3zm10.8 10.1c-.6-.4-1-1-1.2-1.8-.8 1.1-2.1 1.7-3.5 1.7-1.2.1-2.3-.5-2.9-1.6-.2-.5-.3-1.1-.3-1.6v-8l1.7-.3v7.9c0 1 .2 1.5.7 1.9.4.3.9.4 1.3.4 1.2-.1 2.3-.9 2.8-2v-7.8l1.7-.3v8c0 1.4.2 1.9.8 2.4l-1.1 1.1zm11.9 0c-.6-.4-1-1-1.2-1.8-.8 1.1-2.1 1.7-3.5 1.7-1.2.1-2.3-.5-2.9-1.6-.2-.5-.3-1.1-.3-1.6v-8l1.7-.3v7.9c0 1 .2 1.5.7 1.9.4.3.9.4 1.3.4 1.2-.1 2.3-.9 2.8-2v-7.8l1.7-.3v8c0 1.4.2 1.9.8 2.4l-1.1 1.1zm8.8-9.7c-.2-.1-.3-.1-.5-.1-.7 0-1.3.3-1.8.8-.5.4-.7 1.1-.6 1.7v6.9h-1.7v-8.4c0-.8-.1-1.6-.4-2.3l1.7-.5c.3.6.4 1.2.4 1.8.7-1.1 1.8-1.7 3.1-1.8.2 0 .4 0 .6.1l-.8 1.8zm8.3 12.5h-1.4l5.7-19.9h1.4l-5.7 19.9zm21.6-3.9c-1 .6-2.2 1-3.4.9-1.7 0-3.4-.5-4.8-1.4l.8-1.4c1.2.9 2.6 1.3 4 1.3.9.1 1.7-.2 2.4-.7.7-.5 1.1-1.3 1.1-2.2 0-1.3-.9-2.3-2.7-2.8l-1.5-.5c-1-.2-1.9-.7-2.7-1.3-.6-.7-1-1.5-1-2.5 0-2.6 2-4.3 4.9-4.3 1.6 0 3.2.5 4.6 1.5l-.8 1.3c-1.1-.8-2.3-1.3-3.7-1.3-1.9 0-3 .9-3 2.5 0 1.2.7 1.9 2.5 2.5l1.7.6c1 .2 1.9.8 2.7 1.5.6.7 1 1.7 1 2.7-.1 1.5-.8 2.8-2.1 3.6zm9-9h-2.3v7.1c0 1.2.3 1.6 1.4 1.6.4 0 .7-.1 1.1-.2l.2 1.1c-.6.3-1.3.5-1.9.4-.5 0-1-.1-1.4-.3-.8-.4-1.2-1.3-1.1-2.2v-7.5H267v-1.3h1.4c0-1 .1-2.4.2-2.8l1.8-.4c-.1 1.1-.2 2.1-.2 3.2h2.8l-.6 1.3zm7.9.4c-.2-.1-.3-.1-.5-.1-.7 0-1.3.3-1.8.8-.5.4-.7 1.1-.6 1.7v6.9h-1.7v-8.4c0-.8-.1-1.6-.4-2.3l1.7-.5c.3.6.4 1.2.4 1.8.7-1.1 1.8-1.7 3.1-1.8.2 0 .4 0 .6.1l-.8 1.8zm10.2 9.7c-.7-.2-1.3-.8-1.5-1.6-.8.9-1.9 1.5-3.2 1.5-2.7 0-3.5-1.6-3.5-3.1 0-2.5 2.1-3.9 5.8-3.9h.8v-.8c0-1 0-1.4-.4-1.7-.4-.4-.9-.6-1.5-.6-1.3.1-2.5.5-3.5 1.3l-.9-1.2c1.4-.9 3-1.4 4.6-1.5 1.3-.1 2.5.6 3 1.7.2.8.3 1.6.2 2.4l-.1 3.6c0 1.8.1 2.2.9 2.7l-.7 1.2zm-2.5-6c-2.8 0-3.8.9-3.8 2.6 0 1.3.6 2 1.9 2 1.1 0 2.2-.7 2.7-1.7l.1-2.9h-.9zm10.5-4.1h-2.3v7.1c0 1.2.3 1.6 1.4 1.6.4 0 .7-.1 1.1-.2l.2 1.1c-.6.3-1.3.5-1.9.4-.5 0-1-.1-1.4-.3-.8-.4-1.1-1.1-1.1-2.2v-7.5h-1.4v-1.3h1.4c0-1 .1-2.4.2-2.8l1.8-.4c-.1 1.1-.2 2.1-.2 3.2h2.7l-.5 1.3zm3.9 4.5v.3c-.1.8.1 1.7.5 2.4.6.9 1.6 1.4 2.7 1.3 1 0 2-.3 2.7-1l.7 1.1c-1 .9-2.3 1.4-3.7 1.4-3 0-4.9-2.2-4.9-5.8-.1-1.5.4-3 1.3-4.1.8-1 2-1.5 3.3-1.5 1.1 0 2.2.4 3 1.2.9 1 1.3 2 1.3 4.6v.2l-6.9-.1zm4.5-3.7c-.5-.6-1.2-1-2-1-1.6 0-2.4 1.1-2.5 3.4h5c.1-.9-.1-1.7-.5-2.4zm13-.4c-.3 0-.5 0-.8-.1.4.5.7 1.2.7 1.9 0 1.2-.6 2.3-1.6 3-.6.3-1.3.5-2 .5-1.5.5-2 .9-2 1.3s.3.5.9.5h1.8c.9-.1 1.8.1 2.6.6s1.2 1.4 1.2 2.3c0 2.4-1.7 3.4-4.4 3.4-3.4 0-4.8-1.2-4.8-2.8 0-.4.1-.8.2-1.2l1.8-.2c-.2.3-.3.6-.3 1 0 .5.2 1 .6 1.3.7.3 1.5.5 2.2.5 1.7 0 2.7-.6 2.7-1.9 0-.5-.2-1-.6-1.3-.7-.3-1.4-.5-2.1-.4h-1.7c-1.3 0-2.1-.6-2.1-1.6s.5-1.4 2-1.9c-1.4-.4-2.4-1.7-2.5-3.2 0-2.2 1.6-3.7 4-3.7 1.7 0 2 .6 3.3.6.5 0 1.1-.2 1.5-.5l1 1c-.3.6-1 .8-1.6.9zm-4.2-.5c-1.4 0-2.1.8-2.1 2.3-.1 1.1.6 2 1.6 2.2h.5c1.3 0 2-.8 2-2.2s-.5-2.3-2-2.3zm9.2-3.2c-.7 0-1.3-.6-1.3-1.3 0-.7.6-1.4 1.3-1.4.7 0 1.3.6 1.3 1.3 0 .8-.6 1.4-1.3 1.4zm-.9 13V56.3l1.8-.3v11.2H324zm6.9-5.2v.3c-.1.8.1 1.7.5 2.4.6.9 1.6 1.4 2.7 1.3 1 0 2-.3 2.7-1l.7 1.1c-1 .9-2.3 1.4-3.7 1.4-3 0-4.9-2.2-4.9-5.8-.1-1.5.4-3 1.3-4.1.8-1 2-1.5 3.3-1.5 1.1 0 2.2.4 3 1.2 1 1 1.2 2 1.2 4.6v.2l-6.8-.1zm4.5-3.7c-.5-.7-1.2-1-2-1-1.6 0-2.4 1.1-2.5 3.4h5c0-.9-.2-1.7-.5-2.4zm11.4 12.1h-1.4l5.7-19.9h1.4l-5.7 19.9zm23.5-4.4c-1 1-2.4 1.5-3.8 1.4-1.6 0-3.2-.7-4.3-1.9-1.3-1.7-1.9-3.8-1.8-6 0-4.8 2.3-7.7 6-7.7 1.9-.1 3.7.9 4.8 2.5 1 1.7 1.5 3.6 1.4 5.6 0 2.9-.7 4.7-2.3 6.1zm-.5-10.6c-.6-1.3-1.9-2.1-3.4-2.1-1.3 0-2.6.6-3.2 1.8-.6 1.3-.9 2.7-.8 4.2-.1 1.8.3 3.6 1 5.3.7 1 1.9 1.6 3.2 1.6 1.1.1 2.1-.4 2.8-1.3.8-1 1.1-2.2 1.1-4.6.1-1.8-.1-3.4-.7-4.9zm12.4 11.8v-7.4c0-1.2-.1-1.4-.4-1.8-.3-.3-.8-.5-1.2-.5-1.1.2-2.2.7-3 1.5v8.2h-1.7v-8.4c0-.8-.1-1.6-.4-2.3l1.7-.5c.2.5.4 1.1.4 1.7.9-1 2.1-1.6 3.5-1.7 1.1 0 2.2.6 2.7 1.6.2.4.3.8.3 1.3v8.3h-1.9zm9.7-9.7h-2.3v7.1c0 1.2.3 1.6 1.4 1.6.4 0 .7-.1 1.1-.2l.2 1.1c-.6.3-1.3.5-1.9.4-.5 0-1-.1-1.4-.3-.8-.4-1-1.1-1-2.2v-7.5h-1.4v-1.3h1.4c0-1 .1-2.4.2-2.8l1.8-.4c-.1 1.1-.2 2.1-.2 3.2h2.8l-.7 1.3zm13.5 9.9h-1.7l-2.2-7.7c-.2-.6-.3-1.1-.3-1.2 0 .2-.2.8-.2 1.1l-2.2 7.8h-1.7l-3-11 1.7-.4 1.8 7.2c.2.9.4 1.7.4 1.8h.1c.1-.5.2-1.1.4-1.6l2-7.2h1.9l1.9 7.3c.1.5.4 1.4.4 1.6l.3-1.5 1.7-7.4h1.8l-3.1 11.2zm6.5-13.2c-.7 0-1.3-.6-1.3-1.3 0-.7.6-1.4 1.3-1.4.7 0 1.3.6 1.3 1.3 0 .8-.6 1.4-1.3 1.4zm-.9 13V56.3l1.8-.3v11.2H411zm5.5 0V53.7c0-.8-.1-1.5-.3-2.2l1.7-.3c.2.8.3 1.7.3 2.6v13.4h-1.7zm6.8 0l-5-6.2 4.2-4.8h2.2l-4.3 4.8 5.3 6.2h-2.4zm4.7 0V53.7c0-.8-.1-1.5-.3-2.2l1.7-.3c.2.8.3 1.7.3 2.6v13.4H428zm6.8 0l-5-6.2 4.2-4.8h2.1l-4.3 4.8 5.3 6.2h-2.3zM440 62v.3c-.1.8.1 1.7.5 2.4.6.9 1.6 1.4 2.7 1.3 1 0 2-.3 2.7-1l.7 1.1c-1 .9-2.3 1.4-3.7 1.4-3 0-4.9-2.2-4.9-5.8-.1-1.5.4-3 1.3-4.1.8-1 2-1.5 3.3-1.5 1.1 0 2.2.4 3 1.2.9 1 1.2 2 1.2 4.6v.2L440 62zm4.5-3.7c-.5-.7-1.2-1-2-1-1.6 0-2.4 1.1-2.5 3.4h5c0-.9-.1-1.7-.5-2.4zm7.2 9.1c-.5 0-.9-.1-1.3-.5s-.6-1-.5-1.6V53.7c0-.8-.1-1.5-.3-2.2l1.7-.3c.2.9.3 1.7.3 2.6V65c0 .9.1 1.1.6 1.1h.2l.3 1.1c-.2.2-.6.2-1 .2zm4.8-13.2c-.7 0-1.3-.6-1.3-1.3 0-.7.6-1.4 1.4-1.4.7 0 1.3.6 1.3 1.3-.1.8-.7 1.4-1.4 1.4zm-1 13V56.3l1.8-.3v11.2h-1.8zm11.9 0v-7.4c0-1.2-.1-1.4-.4-1.8-.3-.3-.8-.5-1.2-.5-1.1.2-2.2.7-3 1.5v8.2h-1.7v-8.4c0-.8-.1-1.6-.4-2.3l1.7-.5c.2.5.4 1.1.4 1.7.9-1 2.1-1.6 3.5-1.7 1.1 0 2.2.6 2.7 1.6.2.4.3.8.3 1.3v8.3h-1.9zm12.9-9.3c-.3 0-.5 0-.8-.1.4.5.7 1.2.7 1.9 0 1.2-.6 2.3-1.6 3-.6.3-1.3.5-2 .5-1.5.5-2 .9-2 1.3s.3.5.9.5h1.8c.9-.1 1.8.1 2.6.6s1.2 1.4 1.2 2.3c0 2.4-1.7 3.4-4.4 3.4-3.4 0-4.8-1.2-4.8-2.8 0-.4.1-.8.2-1.2l1.8-.2c-.2.3-.3.6-.3 1 0 .5.2 1 .6 1.3.7.3 1.5.5 2.2.5 1.7 0 2.7-.6 2.7-1.9 0-.5-.2-1-.6-1.3-.7-.3-1.4-.5-2.1-.4h-1.6c-1.3 0-2.1-.6-2.1-1.6s.5-1.4 2-1.9c-1.4-.4-2.4-1.7-2.5-3.2 0-2.2 1.6-3.7 4-3.7 1.7 0 2 .6 3.3.6.5 0 1.1-.2 1.5-.5l1 1c-.3.6-1 .8-1.7.9zm-4.1-.5c-1.4 0-2.1.8-2.1 2.3-.1 1.1.6 2 1.6 2.2h.5c1.3 0 2-.8 2-2.2s-.5-2.3-2-2.3z" fill="#333"/><g fill="#333"><path d="M34.9 21.1c3.2-.3 5.5-3.6 5.2-7.4-.3-3.8-3.2-6.7-6.4-6.4-3.2.2-5.5 3.6-5.2 7.4.3 3.9 3.2 6.7 6.4 6.4zm79.6 39.8l-46.4 4-2.2-24.8 4.4-.5 1.8 20.5 37.5-3.3L105 5.4 67.7 8.7l1.5 17.5-4.5.3-1.9-22 46.4-4z"/><path d="M91.5 31.4l-15.8-7.5.4 5.5-25 2.1.6 6.4 25-2.2.5 5.4zm-44.8.6l-5.4.5.1 1.1-6.9.6-.9-10.8s-8.8-5.2-8.6-4.5l-15 1.2-7.3 12.5 2.7 1.6-.7 1.4 1.3.7-2.6 5L6 42.9l5.4-10.2-1.9-1.1 3.3-6 9-.8-9.3 17.4 1.3 14.5L0 64.3l2.6 6.1L20 60.9l-.4-12.6 11.1 5.5.2 14.2 6.9-.5-1.5-18.4-12-6.2 4.7-8.2.4 5 17.9-1.6-.6-6.1z"/></g></svg>