<svg xmlns="http://www.w3.org/2000/svg" viewBox="0 0 183.7 112.2"><g fill="#fff"><path d="M56 33.1c5.2-.5 8.9-5.8 8.4-11.9s-5.2-10.7-10.3-10.3c-5.2.4-8.9 5.8-8.4 11.9.5 6.2 5.1 10.8 10.3 10.3zm127.7 63.8l-74.4 6.5-3.5-39.9 7.1-.7 2.9 32.8 60.1-5.2-7.3-82.6-60 5.3 2.5 28.1-7.2.6-3.1-35.3L175.2 0z"/><path d="M146.9 49.6l-25.4-12 .7 8.8L82 49.8l.9 10.2 40.2-3.5.8 8.7zm-71.9.9l-8.6.8.2 1.7-11.1 1L54 36.6s-14.2-8.3-13.8-7.3L16 31.5 4.3 51.6l4.3 2.5-1.2 2.3 2.1 1.1-4.1 8L9.5 68l8.6-16.4-3-1.8 5.3-9.6 14.4-1.3-15 27.9L21.9 90 0 102.4l4.2 9.8 27.9-15.3-.7-20.3 17.8 8.9.4 22.8 11.1-.8L58.3 78 39 68.1 46.5 55l.7 8.1 28.7-2.5-.9-10.1z"/></g></svg>