<?xml version="1.0" encoding="utf-8"?>
<!-- Generator: Adobe Illustrator 26.3.1, SVG Export Plug-In . SVG Version: 6.00 Build 0)  -->
<svg version="1.1" id="Laag_1" xmlns="http://www.w3.org/2000/svg" xmlns:xlink="http://www.w3.org/1999/xlink" x="0px" y="0px"
	 viewBox="0 0 183.7 112.2" style="enable-background:new 0 0 183.7 112.2;" xml:space="preserve">
<style type="text/css">
	.st0{fill:#333333;}
</style>
<g>
	<path class="st0" d="M56,33.1c5.2-0.5,8.9-5.8,8.4-11.9s-5.2-10.7-10.3-10.3c-5.2,0.4-8.9,5.8-8.4,11.9C46.2,29,50.8,33.6,56,33.1z
		"/>
	<polygon class="st0" points="183.7,96.9 109.3,103.4 105.8,63.5 112.9,62.8 115.8,95.6 175.9,90.4 168.6,7.8 108.6,13.1 
		111.1,41.2 103.9,41.8 100.8,6.5 175.2,0 	"/>
	<polygon class="st0" points="146.9,49.6 121.5,37.6 122.2,46.4 82,49.8 82.9,60 123.1,56.5 123.9,65.2 	"/>
	<polygon class="st0" points="47.3,62.9 46.6,54.8 39.1,67.9 58.3,77.9 60.7,107.2 49.5,108 49.3,85.2 31.6,76.3 32.1,96.5 
		4.2,111.7 0,101.9 21.9,89.7 19.9,66.5 35.1,38.8 20.7,39.9 14.8,50.1 17.7,51.8 12.9,60.1 3,54.3 16.4,31.2 40.5,29.3 54.2,36.6 
		55.6,53.9 66.7,53 66.5,51.2 75.1,50.5 75.9,60.6 	"/>
</g>
</svg>
