<svg version="1" xmlns="http://www.w3.org/2000/svg" width="682.667" height="682.667" viewBox="0 0 512.000000 512.000000"><path d="M485.9 101.4c-.2.2-4.7.7-9.9 1.1-5.2.4-11.1.9-13 1-1.9.2-6.6.6-10.5 1-14.1 1.3-16.1 1.4-23 2-3.8.3-9 .8-11.5 1-2.5.3-7.4.7-11 1-3.6.3-8.5.7-11 1-2.5.2-7.9.7-12 1-4.1.3-9.7.8-12.5 1.1-2.7.3-7.4.7-10.4.9-5.4.4-16.3 1.3-23.1 2-1.9.2-6.9.6-11 1-4.1.3-9.5.8-12 1-2.5.3-8.1.8-12.5 1.1-4.4.4-9.3.8-11 .9-1.6.2-4.3.4-5.9.4l-2.8.1.7 8.2c.3 4.6.8 9.6 1 11.3.2 1.6.6 6.4 1 10.5.3 4.1.8 9.7 1 12.5.3 2.7.7 7.5 1 10.5 1 13.6 1.6 20.7 2 23.5.2 1.6.7 7.2 1.1 12.4l.7 9.3 9.6-.7c5.3-.4 9.9-1.1 10.2-1.7.3-.5.5-2.2.3-3.6-.2-1.5-.6-5.4-.9-8.7-.3-3.3-.7-8-1-10.5-.2-2.5-.7-7.7-1-11.5-.5-6.6-1.1-13-2-22-.2-2.2-.7-7.7-1.1-12.2l-.6-8.2 3.4-.5c1.8-.3 6.9-.8 11.3-1.1 4.4-.3 10-.8 12.5-1 2.5-.3 7.4-.7 11-1 3.6-.3 8.5-.7 11-1 7.3-.7 18.2-1.7 23-2 4.2-.3 6.9-.6 23-2 3.6-.4 8.5-.8 11-1 8-.6 26.5-2.3 33-3 4.1-.4 19.3-1.6 23.4-1.8 3.3-.2 3.2-.5 4.1 11.8.3 4.4.8 9.1 1 10.5.2 1.4.6 6.4 1 11.2.4 4.9.8 10 1 11.5.2 1.6.6 6.6 1 11.3.3 4.7.8 10.1 1 12 .2 1.9.7 7.1 1 11.5.4 4.4.8 9.1 1 10.5.3 1.4.7 6.1 1 10.5.3 4.4.7 9.6 1 11.5.2 1.9.7 7.3 1 12 .3 4.7.8 9.6 1 11 .2 1.4.7 6.3 1 11 .3 4.7.8 10.5 1 13 .2 2.5.7 7.4 1 11 .3 3.6.8 8.1 1 10 .2 1.9.7 7.3 1 12 .4 4.7.8 9.6 1 11 .2 1.4.7 6.8 1 12 .4 5.2.9 10.3 1 11.2.2 1-.3 1.6-1.3 1.6-1.5 0-6.9.4-21.2 1.7-4.5.4-13.4 1.1-24 2-3 .2-7.5.7-10 .9-2.5.3-7.5.8-11.2 1.1-15.3 1.2-20.5 1.6-25.3 2.1-2.7.3-7.5.7-10.5.9-3 .3-7.7.7-10.5 1-2.7.2-8.6.7-13 1-4.4.3-9.6.8-11.5 1-1.9.2-6.9.7-11 1-4.1.3-9.5.8-12 1.1-4.4.5-4.5.4-4.6-2.3-.1-1.5-.4-5.7-.8-9.3-1-11.4-1.6-17.3-2.1-24.5-.3-3.9-.8-8.6-1-10.5-.3-1.9-.7-6.9-1-11-.3-4.1-.8-9.5-1-12-1.2-11.4-1.7-17.6-1.7-19.3.1-1.6-.6-1.7-6.6-1.1-3.7.4-7.4.8-8.2 1-.8.1-2.3.3-3.4.3-1.7.1-1.8.8-1.2 9.4.4 5.2.8 10.4 1.1 11.8.2 1.3.6 6.2 1 10.9s.8 9.8 1 11.5c.2 1.6.7 6.8 1 11.5.3 4.7.8 10.3 1 12.5.3 2.2.7 7.1 1.1 11 .6 8 1 11.9 2 22.5.3 4.1.7 8 .7 8.7 0 .8 1.4 1.1 4.1.8 2.3-.2 7.3-.6 11.1-1 13.2-1.1 22.1-1.9 34-3 2.8-.3 8.2-.7 12-1 6.4-.4 10.8-.8 22-2 2.2-.2 7.6-.7 12-1 4.4-.3 9.6-.8 11.5-1 1.9-.3 7.1-.7 11.5-1 4.4-.3 9.6-.8 11.5-1 1.9-.2 7.1-.7 11.5-1.1 4.4-.3 9.6-.8 11.5-.9 1.9-.2 7.3-.6 12-1s9.4-.8 10.6-1c1.1-.2 6.5-.6 12-1 5.4-.4 10.6-.9 11.4-1.1.8-.1 2.8-.3 4.4-.3l2.8-.1-.7-11.2c-.4-6.1-.8-11.8-1-12.7-.1-.9-.6-6.1-1-11.6s-.8-10.7-1-11.5c-.2-.9-.6-5.7-1-10.9-.4-5.1-.8-10.5-1-11.9-.2-1.5-.6-6.5-1-11.2-.3-4.7-.8-10.1-1-12-.8-7.1-1.6-15.6-2-21-.2-3-.6-8.7-1-12.5-.9-10.3-1.3-14.1-2-23-.3-4.4-.8-9.6-1-11.5-.3-1.9-.7-7.1-1-11.5-.4-4.4-.8-9.6-1-11.5-.4-3.4-.9-8.8-2-22.3-.3-3.4-.8-8.2-1-10.7-.3-2.5-.7-7.9-1-12-.3-4.1-.8-9.1-1-11-.2-1.9-.6-7.3-1-12s-.9-9.4-1-10.5c-.1-1.1-.3-3-.4-4.3-.1-1.9-1.9-3-3.2-1.8zM148.6 132.7c-13.3 3.9-20.9 21.2-17.1 38.7 1.6 7.5 8.2 15.9 15.4 19.5 7.6 3.9 19.6 2.1 25.9-3.8 5.9-5.7 10.8-18.7 9.7-25.6-.3-1.7-.8-4.6-1.1-6.4-.8-5-4.7-12.2-8.6-16-6.9-6.8-15.3-9.1-24.2-6.4zM112.8 182.5c-.2.2-4.6.6-9.8 1-5.2.4-10.2.8-11.1 1-.8.2-5.5.6-10.5 1-4.9.4-9.9.8-11.1 1-1.2.2-6.1.7-10.8 1-11.9 1-11.4.8-12.9 3.6-.7 1.3-5 8.6-9.4 16.3-4.5 7.6-8.2 13.9-8.2 14.1 0 .2-1.9 3.3-4.1 7.1-9 14.8-9.3 15.4-7.2 16.9 1 .8 3.5 2.2 5.5 3.2 4.1 2 4.4 2.6 2.4 6.3-1.3 2.3-1.2 2.6 1.5 4.2L30 261l-5.6 10.6c-3.9 7.4-5.3 10.9-4.5 11.7.6.6 3.2 2.3 5.8 3.8l4.7 2.8 5.1-9.7C54.7 243.9 55.1 243 52.9 243c-.6 0-2.4-.9-3.9-2l-2.8-2 4.5-8.3c2.5-4.5 5.7-10.3 7.1-13 1.7-3.1 3.3-4.7 4.6-4.8 1.2-.1 3-.3 4.1-.4 7.8-.9 15.1-1.6 21.1-2 3.8-.3 8.1-.7 9.7-.9l2.7-.3-3.8 7.1c-2.2 3.9-11.4 21.2-20.7 38.3L58.8 286l.6 8.9c.4 5 .9 10 1.1 11.3.2 1.3.6 6.1 1 10.8.3 4.7.8 9.8 1 11.5.2 1.6.7 6.6 1 11 .4 4.4.9 8.3 1.1 8.7.9 1.4-3.4 4.1-31.7 20.1-15.6 8.8-28.6 16.1-28.7 16.3-.3.2 10.6 26.4 11.3 27.2.3.3 6.6-3 21.5-11.3 4.1-2.3 10.7-5.9 14.5-8 3.9-2.1 11.5-6.3 17-9.3 5.5-3 13.2-7.2 17-9.3l7-3.8-.1-11.8c-.1-6.5-.4-19.1-.7-28.1-.4-9-.3-16.2.1-16 .4.2 11.4 5.6 24.5 12.2l23.7 11.8.1 4.2c0 2.2.2 12 .4 21.6.2 9.6.4 21.9.4 27.4l.1 9.8 11.8-.7c6.4-.4 12.8-.9 14.2-1 1.4-.2 3.1-.3 3.9-.4 1-.1 1.2-1.5.7-6.4-.3-3.4-.8-9.6-1.1-13.7-.3-4.1-.7-9.8-1-12.5-.2-2.8-.7-8.6-1-13-.3-4.4-.8-9.8-1-12-.2-2.2-.7-8.3-1-13.5-.4-5.2-1.2-10-1.8-10.6-1.2-1.1-12.8-7.3-39.4-20.8l-13.1-6.7 10-17.5c5.5-9.6 10.2-17.4 10.3-17.2.2.2.6 4.5.9 9.7.4 5.2.9 9.8 1.3 10.3.4.9 7.5.6 20.8-.7 6-.5 17.1-1.5 23.5-2.1 10.4-.9 15-1.3 22.5-2 3.9-.3 8.1-.7 9.5-.8 2.5-.1 2.5-.1 2.2-8.8-.2-4.8-.5-9.5-.7-10.5-.2-1-.4-3.4-.4-5.4l-.1-3.6-5.7.4c-3.2.2-7.1.6-8.8.7-1.6.2-4.5.4-6.2.5-2.8.1-3.3.5-3.3 2.6 0 1.4-.6 2.5-1.2 2.6-.7 0-2.2.2-3.3.3-1.1.2-6 .6-11 1-4.9.4-10.2.9-11.7 1.2-1.6.2-2.8.1-2.9-.3 0-.5-.2-1.5-.3-2.3-.2-.8-.6-5.6-1-10.5-.4-5-.9-11-1.2-13.5-.6-5.1-1.2-14.2-1.3-18.2-.1-2.3-1.3-3.5-8.8-7.9-19.6-11.6-30.9-16.9-32.5-15.4z"/><path d="M340.4 210.2c.3 2.4.8 7.8 1.1 12l.6 7.8-3.8.1c-2.1 0-4.5.2-5.3.3-.8.2-5.5.6-10.5 1-4.9.4-10.6.9-12.5 1.1-1.9.2-7.5.7-12.5 1-4.9.3-10.1.8-11.5 1-1.4.2-6.5.6-11.5 1-4.9.3-10.6.8-12.5 1-5.9.7-23.7 2.2-28.8 2.4-2.6.1-2.6-.3-.6 20.6.1 1.6.3 4.2.3 5.6.1 2.4.5 2.6 3.4 2.4 1.7-.2 7-.6 11.7-1 4.7-.3 9.6-.8 11-1 1.4-.2 5.9-.6 10-1 14.4-1.1 19.5-1.6 23.5-2 4.9-.5 16-1.4 23.5-1.9 6.7-.5 16.9-1.5 23.2-2.2 2.5-.3 4.8-.1 5.1.3.3.5.9 4.9 1.2 9.7.4 4.9.9 9.7 1 10.5.2.9.4 2 .4 2.4.1.5 9-5.2 19.9-12.6 10.8-7.4 25.2-17.1 31.9-21.7l12.3-8.3-6.3-2.9c-3.4-1.7-8.9-4.3-12.2-5.8-3.3-1.5-16.1-7.6-28.4-13.4-12.3-5.8-22.8-10.6-23.3-10.6s-.6 1.9-.4 4.2z"/></svg>