<svg xmlns="http://www.w3.org/2000/svg" viewBox="0 0 1100 150"><title>header</title><path d="M911.26,149.18,908.52,119l19.55-36.28-18.76,1.64-6.82,12.48,3.87,2.33-11.11,21.25-5.31-3.2,5.26-10.37-2.7-1.45,1.58-2.92-5.62-3.29L903.6,73.07,935,70.31c-.56-1.34,17.94,9.46,17.94,9.46l2,22.46L969.25,101l-.2-2.26,11.14-1,1.14,13.12-37.22,3.25-.93-10.54-9.72,17.09,25,12.87L960,150h63.3l-3.1-35.38,9.33-.79,3.17,36.17H1100V42.53l-76.17,6.67,3.23,36.51-9.33.83-4-45.86L1100,33.13V0H0V150H909.8Zm130.26-56.74-1-11.37,33,15.55-29.91,20.3-1-11.37-52.2,4.6L989.32,97ZM953,46.38c6.69-.59,12.68,5.4,13.38,13.36s-4.16,14.91-10.86,15.5-12.68-5.41-13.38-13.38S946.32,47,953,46.38Z" fill="#4d4d4d"/><path d="M46.29,98.59a14.29,14.29,0,0,1-10.14,6c-1.56.12-3.54.24-6,.24H20V63.13h8.4c2.4,0,5.58.12,7.26.24a14.14,14.14,0,0,1,9.12,4.14c3.84,3.78,5.7,9.12,5.7,16.62C50.49,89.83,49.11,94.81,46.29,98.59ZM39,73.21c-1.38-2.28-3.3-3.48-6.6-3.48H28.53V98H33c5.52,0,8-4.26,8-13.08C41.07,80.05,40.65,76,39,73.21Z" fill="#fff"/><path d="M81,104.83,78,94.93H65.77l-2.94,9.9H54.07L67.75,63h9.06L90,104.83ZM73.69,79.57,72,72.19c-.24,1-1.26,5.28-2,8-.78,3-1.32,5-2.22,7.74H76C75.67,87.07,74.35,82.45,73.69,79.57Z" fill="#fff"/><path d="M111.14,105.13h-7.62l-14.15-42h9.17l6.9,21.72a74.56,74.56,0,0,1,1.92,7.26,80.08,80.08,0,0,1,2.4-8.34l7.08-20.64h8.82Z" fill="#fff"/><path d="M155.85,104.83H132.33V63.13h8.58V97.87h14.94Z" fill="#fff"/><path d="M201.69,103.09a15.91,15.91,0,0,1-9.24,2.52,24.12,24.12,0,0,1-13.2-3.72l2.16-3.84a18,18,0,0,0,11,3.54c3.12,0,4.8-.48,6.54-1.8a7,7,0,0,0,2.94-5.88c0-3.66-2.4-6.18-7.38-7.68L190.41,85c-3.72-1.14-5.7-2-7.32-3.66a9.59,9.59,0,0,1-2.58-6.72c0-7,5.34-11.82,13.32-11.82a21.64,21.64,0,0,1,12.42,4l-2.16,3.54c-4-2.58-6.48-3.48-10-3.48-5.16,0-8.22,2.58-8.22,6.78,0,3.3,2,5.16,6.84,6.72l4.74,1.5c3.66,1.14,5.58,2.22,7.26,4.14a11.42,11.42,0,0,1,2.7,7.26A11.82,11.82,0,0,1,201.69,103.09Z" fill="#fff"/><path d="M242,67.81H230.85v37h-4.73v-37h-11V63.67h27.23Z" fill="#fff"/><path d="M274.66,102.37c-2.52,2.16-5.82,3.18-10.8,3.18-6.36,0-10-1.86-12.18-5.94a14,14,0,0,1-1.2-6.42V63.67h4.86V91.39a18.92,18.92,0,0,0,.72,5.94c.78,1.8,3,4,8,4,3.42,0,6-.9,7.26-2.58,1.38-1.86,1.56-3.66,1.56-6.42V63.67h4.86V93C277.78,97.93,277.12,100.27,274.66,102.37Z" fill="#fff"/><path d="M314.52,99.67c-3.6,4-7.2,5.16-13,5.16H290.82V63.67H299c6.3,0,9.18.3,13.2,3.18,4.68,3.36,7,9.42,7,17.46C319.2,91.51,317.28,96.61,314.52,99.67Zm-4.2-28.2c-2.7-3.18-5.34-3.78-9.66-3.78h-4.92v33.06h4.92c4.26,0,8.22-.48,10.44-4.32a22.9,22.9,0,0,0,2.76-11.52C313.86,78.73,313.08,74.77,310.32,71.47Z" fill="#fff"/><path d="M330.64,104.83V63.67h4.8v41.16Z" fill="#fff"/><path d="M374,101.65a14.39,14.39,0,0,1-10.44,4,15,15,0,0,1-11.7-5.22c-3.24-3.72-4.92-9.3-4.92-16.32C346.89,71,353.13,63,363.27,63a14.84,14.84,0,0,1,13,6.72c2.58,3.84,3.72,8.64,3.72,15.24C380,92.83,378.15,97.81,374,101.65Zm-1.5-29.1a9.69,9.69,0,0,0-9.18-5.64,9.83,9.83,0,0,0-8.82,4.8c-1.44,2.7-2.1,6.24-2.1,11.34,0,6.18,1,11.58,2.64,14.34s5.4,4.44,8.76,4.44a9.17,9.17,0,0,0,7.68-3.54c2-2.58,3-5.88,3-12.66C374.43,79.57,373.83,75.43,372.45,72.55Z" fill="#fff"/><path d="M28.33,130l-1.43-4.63H21.27L19.82,130H18l5-15.08h2.35l5,15.08Zm-4.2-13.49-2.38,7.38h4.69Z" fill="#fff"/><path d="M37.49,120.68a1.34,1.34,0,0,0-.49-.09,2.57,2.57,0,0,0-1.82.79,2,2,0,0,0-.64,1.74V130H32.83v-8.44a5.8,5.8,0,0,0-.38-2.33l1.72-.46a4,4,0,0,1,.35,1.78,4,4,0,0,1,3.08-1.82,1.78,1.78,0,0,1,.59.11Z" fill="#fff"/><path d="M43.74,130.22a4,4,0,0,1-3.49-1.65,6.5,6.5,0,0,1-1.06-3.89A6,6,0,0,1,40.84,120a4,4,0,0,1,3-1.28,4.29,4.29,0,0,1,3,1.19l-.95,1.19a2.88,2.88,0,0,0-2.08-.88,2.35,2.35,0,0,0-2.07,1.23,7.84,7.84,0,0,0-.62,3.58c0,2.46,1,3.8,2.71,3.8a3,3,0,0,0,2.35-1.18l.94,1.1A4.26,4.26,0,0,1,43.74,130.22Z" fill="#fff"/><path d="M56.45,130v-7.56a2.19,2.19,0,0,0-.42-1.62,1.77,1.77,0,0,0-1.27-.44,4.41,4.41,0,0,0-3.19,1.84V130H49.85V116.48a7.55,7.55,0,0,0-.28-2.25l1.71-.33a9.14,9.14,0,0,1,.29,2.6v2.55c0,.61,0,1.34-.07,1.49a5.57,5.57,0,0,1,3.65-1.73A2.87,2.87,0,0,1,58,120.54a5,5,0,0,1,.17,1.59V130Z" fill="#fff"/><path d="M62.81,117a1.33,1.33,0,0,1-1.34-1.32,1.36,1.36,0,0,1,1.34-1.36,1.34,1.34,0,1,1,0,2.68Zm-.92,13v-10.9l1.78-.29V130Z" fill="#fff"/><path d="M71.67,120.32H69.38v7.06c0,1.21.33,1.63,1.41,1.63a2.21,2.21,0,0,0,1.07-.22l.24,1.1a4.1,4.1,0,0,1-1.93.44,3.17,3.17,0,0,1-1.43-.31c-.77-.38-1-1.08-1-2.18v-7.52H66.26V119h1.43c0-1,.13-2.42.17-2.77l1.8-.4a30.29,30.29,0,0,0-.22,3.17h2.75Z" fill="#fff"/><path d="M75.6,124.79v.26a4.44,4.44,0,0,0,.5,2.4,3.12,3.12,0,0,0,2.73,1.34,3.74,3.74,0,0,0,2.68-1l.66,1.1a5.46,5.46,0,0,1-3.69,1.37c-3,0-4.86-2.2-4.86-5.83a5.85,5.85,0,0,1,1.32-4.13,4.1,4.1,0,0,1,3.28-1.52,4,4,0,0,1,3,1.19c.95,1,1.26,2,1.26,4.61v.25Zm4.51-3.74a2.36,2.36,0,0,0-2-1c-1.56,0-2.44,1.14-2.53,3.41h5A4.68,4.68,0,0,0,80.11,121.05Z" fill="#fff"/><path d="M89.54,130.22a4,4,0,0,1-3.5-1.65A6.57,6.57,0,0,1,85,124.68,6,6,0,0,1,86.64,120a4,4,0,0,1,3-1.28,4.26,4.26,0,0,1,3,1.19l-.94,1.19a2.88,2.88,0,0,0-2.09-.88,2.36,2.36,0,0,0-2.07,1.23,8,8,0,0,0-.61,3.58c0,2.46.94,3.8,2.7,3.8a3.06,3.06,0,0,0,2.36-1.18l.94,1.1A4.28,4.28,0,0,1,89.54,130.22Z" fill="#fff"/><path d="M100.2,120.32H97.91v7.06c0,1.21.33,1.63,1.41,1.63a2.25,2.25,0,0,0,1.08-.22l.24,1.1a4.15,4.15,0,0,1-1.94.44,3.1,3.1,0,0,1-1.42-.31,2.12,2.12,0,0,1-1.06-2.18v-7.52H94.79V119h1.43c0-1,.13-2.42.18-2.77l1.8-.4A30.29,30.29,0,0,0,98,119h2.75Z" fill="#fff"/><path d="M111,130.44a2.87,2.87,0,0,1-1.19-1.76,4.06,4.06,0,0,1-3.47,1.67,3,3,0,0,1-2.88-1.56,3.9,3.9,0,0,1-.29-1.63v-8l1.7-.33v7.87c0,1,.15,1.5.65,1.85a2.51,2.51,0,0,0,1.35.38,3.38,3.38,0,0,0,2.79-2v-7.76l1.69-.29v8c0,1.39.2,1.94.75,2.44Z" fill="#fff"/><path d="M122.89,130.44a2.83,2.83,0,0,1-1.19-1.76,4.07,4.07,0,0,1-3.47,1.67,3,3,0,0,1-2.88-1.56,3.9,3.9,0,0,1-.29-1.63v-8l1.69-.33v7.87c0,1,.16,1.5.66,1.85a2.48,2.48,0,0,0,1.34.38,3.38,3.38,0,0,0,2.8-2v-7.76l1.69-.29v8c0,1.39.2,1.94.75,2.44Z" fill="#fff"/><path d="M131.73,120.68a1.34,1.34,0,0,0-.49-.09,2.6,2.6,0,0,0-1.82.79,2,2,0,0,0-.64,1.74V130h-1.71v-8.44a5.8,5.8,0,0,0-.38-2.33l1.72-.46a3.76,3.76,0,0,1,.35,1.78,4,4,0,0,1,3.08-1.82,1.73,1.73,0,0,1,.59.11Z" fill="#fff"/><path d="M140,133.23h-1.45l5.69-19.9h1.45Z" fill="#fff"/><path d="M161.64,129.34a5.88,5.88,0,0,1-3.38.92,8.89,8.89,0,0,1-4.84-1.36l.79-1.41a6.62,6.62,0,0,0,4,1.3,3.5,3.5,0,0,0,2.39-.66,2.58,2.58,0,0,0,1.08-2.16c0-1.34-.88-2.26-2.7-2.81l-1.52-.46a5.79,5.79,0,0,1-2.68-1.34,3.5,3.5,0,0,1-1-2.46c0-2.58,2-4.34,4.88-4.34a7.89,7.89,0,0,1,4.55,1.46l-.79,1.29a6.1,6.1,0,0,0-3.67-1.27c-1.89,0-3,.94-3,2.48,0,1.21.73,1.89,2.51,2.46l1.73.55a5.21,5.21,0,0,1,2.66,1.52,4.14,4.14,0,0,1,1,2.66A4.34,4.34,0,0,1,161.64,129.34Z" fill="#fff"/><path d="M170.64,120.32h-2.29v7.06c0,1.21.33,1.63,1.41,1.63a2.25,2.25,0,0,0,1.08-.22l.24,1.1a4.13,4.13,0,0,1-1.93.44,3.11,3.11,0,0,1-1.43-.31,2.12,2.12,0,0,1-1.06-2.18v-7.52h-1.43V119h1.43c0-1,.13-2.42.18-2.77l1.8-.4a30.29,30.29,0,0,0-.22,3.17h2.75Z" fill="#fff"/><path d="M178.51,120.68a1.34,1.34,0,0,0-.49-.09,2.57,2.57,0,0,0-1.82.79,2,2,0,0,0-.64,1.74V130h-1.71v-8.44a5.8,5.8,0,0,0-.38-2.33l1.72-.46a3.76,3.76,0,0,1,.35,1.78,4,4,0,0,1,3.08-1.82,1.78,1.78,0,0,1,.59.11Z" fill="#fff"/><path d="M188.69,130.39a2.25,2.25,0,0,1-1.49-1.6,4.11,4.11,0,0,1-3.17,1.47c-2.7,0-3.51-1.65-3.51-3.12,0-2.49,2.13-3.94,5.8-3.94a7.62,7.62,0,0,1,.77,0v-.77c0-1,0-1.37-.35-1.72a1.81,1.81,0,0,0-1.47-.59,6.09,6.09,0,0,0-3.5,1.29l-.86-1.23a8.3,8.3,0,0,1,4.6-1.47,3,3,0,0,1,3,1.72,6.34,6.34,0,0,1,.24,2.41l-.09,3.61c0,1.78.07,2.24.88,2.68Zm-2.5-6c-2.77,0-3.76.94-3.76,2.61,0,1.3.64,2,1.89,2a3,3,0,0,0,2.66-1.72l.07-2.86C186.83,124.39,186.43,124.37,186.19,124.37Z" fill="#fff"/><path d="M196.68,120.32h-2.29v7.06c0,1.21.33,1.63,1.41,1.63a2.18,2.18,0,0,0,1.07-.22l.25,1.1a4.15,4.15,0,0,1-1.94.44,3.17,3.17,0,0,1-1.43-.31c-.77-.38-1.05-1.08-1.05-2.18v-7.52h-1.43V119h1.43c0-1,.13-2.42.17-2.77l1.81-.4a27.68,27.68,0,0,0-.22,3.17h2.74Z" fill="#fff"/><path d="M200.61,124.79v.26a4.35,4.35,0,0,0,.51,2.4,3.09,3.09,0,0,0,2.72,1.34,3.74,3.74,0,0,0,2.68-1l.66,1.1a5.44,5.44,0,0,1-3.69,1.37c-3,0-4.86-2.2-4.86-5.83a5.85,5.85,0,0,1,1.32-4.13,4.1,4.1,0,0,1,3.28-1.52,4,4,0,0,1,3,1.19c.95,1,1.26,2,1.26,4.61v.25Zm4.51-3.74a2.36,2.36,0,0,0-2-1c-1.56,0-2.44,1.14-2.53,3.41h5A4.68,4.68,0,0,0,205.12,121.05Z" fill="#fff"/><path d="M218.05,120.65a1.87,1.87,0,0,1-.75-.13,2.91,2.91,0,0,1,.66,1.87,3.56,3.56,0,0,1-1.63,3,3.77,3.77,0,0,1-2,.49c-1.48.52-2,.9-2,1.27s.33.53.88.53H215a4.18,4.18,0,0,1,2.63.61,2.64,2.64,0,0,1,1.21,2.31c0,2.38-1.69,3.45-4.35,3.45-3.43,0-4.75-1.23-4.75-2.79a3.38,3.38,0,0,1,.22-1.16l1.8-.16a2.06,2.06,0,0,0-.3,1,1.46,1.46,0,0,0,.63,1.28,4.7,4.7,0,0,0,2.22.5c1.7,0,2.66-.55,2.66-1.91a1.48,1.48,0,0,0-.59-1.32,4,4,0,0,0-2.15-.4l-1.7,0c-1.29,0-2.06-.6-2.06-1.59s.48-1.4,2-1.86a3.37,3.37,0,0,1-2.47-3.17c0-2.2,1.65-3.69,4-3.69,1.67,0,2,.61,3.34.61a2.51,2.51,0,0,0,1.52-.48l1,1A2.89,2.89,0,0,1,218.05,120.65Zm-4.12-.44c-1.36,0-2.06.75-2.06,2.27a1.92,1.92,0,0,0,2.11,2.17c1.32,0,2-.77,2-2.24S215.39,120.21,213.93,120.21Z" fill="#fff"/><path d="M223.1,117a1.32,1.32,0,0,1-1.34-1.32,1.35,1.35,0,0,1,1.34-1.36,1.34,1.34,0,0,1,0,2.68Zm-.93,13v-10.9l1.79-.29V130Z" fill="#fff"/><path d="M229.05,124.79v.26a4.44,4.44,0,0,0,.5,2.4,3.12,3.12,0,0,0,2.73,1.34,3.75,3.75,0,0,0,2.68-1l.66,1.1a5.48,5.48,0,0,1-3.69,1.37c-3,0-4.86-2.2-4.86-5.83a5.85,5.85,0,0,1,1.32-4.13,4.1,4.1,0,0,1,3.27-1.52,4,4,0,0,1,3,1.19c1,1,1.25,2,1.25,4.61v.25Zm4.5-3.74a2.33,2.33,0,0,0-2-1c-1.56,0-2.44,1.14-2.53,3.41h5A4.67,4.67,0,0,0,233.55,121.05Z" fill="#fff"/><path d="M245,133.23h-1.45l5.69-19.9h1.45Z" fill="#fff"/><path d="M268.55,128.81a5.29,5.29,0,0,1-3.83,1.45,5.49,5.49,0,0,1-4.28-1.91,9,9,0,0,1-1.81-6c0-4.79,2.29-7.74,6-7.74a5.44,5.44,0,0,1,4.75,2.46,9.62,9.62,0,0,1,1.37,5.59C270.75,125.58,270.09,127.4,268.55,128.81ZM268,118.15a3.56,3.56,0,0,0-3.37-2.07,3.6,3.6,0,0,0-3.23,1.76,8.83,8.83,0,0,0-.77,4.15,11.65,11.65,0,0,0,1,5.26,3.93,3.93,0,0,0,3.21,1.63,3.35,3.35,0,0,0,2.81-1.3c.75-1,1.1-2.16,1.1-4.64A11.51,11.51,0,0,0,268,118.15Z" fill="#fff"/><path d="M280.41,130v-7.4c0-1.17-.09-1.45-.39-1.83a1.63,1.63,0,0,0-1.21-.46,5.05,5.05,0,0,0-3,1.54V130H274.1v-8.44a5.34,5.34,0,0,0-.41-2.3l1.67-.47a4.51,4.51,0,0,1,.39,1.72,4.91,4.91,0,0,1,3.45-1.7,2.92,2.92,0,0,1,2.69,1.61,3.25,3.25,0,0,1,.26,1.28V130Z" fill="#fff"/><path d="M290.06,120.32h-2.28v7.06c0,1.21.33,1.63,1.4,1.63a2.23,2.23,0,0,0,1.08-.22l.24,1.1a4.1,4.1,0,0,1-1.93.44,3.17,3.17,0,0,1-1.43-.31c-.77-.38-1.05-1.08-1.05-2.18v-7.52h-1.43V119h1.43c0-1,.13-2.42.17-2.77l1.8-.4a30.29,30.29,0,0,0-.22,3.17h2.75Z" fill="#fff"/><path d="M303.57,130.06h-1.69l-2.18-7.69c-.18-.64-.29-1.12-.31-1.21h0c0,.15-.16.81-.24,1.12l-2.2,7.78H295.3l-3-11,1.72-.37,1.75,7.23c.22.9.38,1.67.4,1.83h.07a15.69,15.69,0,0,1,.37-1.58l2-7.19h1.86l1.92,7.27c.13.53.37,1.41.44,1.61h0l.33-1.52,1.74-7.36h1.8Z" fill="#fff"/><path d="M310.1,117a1.32,1.32,0,0,1-1.34-1.32,1.35,1.35,0,0,1,1.34-1.36,1.34,1.34,0,0,1,0,2.68Zm-.92,13v-10.9l1.78-.29V130Z" fill="#fff"/><path d="M314.72,130V116.48a7.55,7.55,0,0,0-.28-2.25l1.71-.33a9.14,9.14,0,0,1,.29,2.6V130Zm6.82,0-5-6.19,4.18-4.75h2.16l-4.31,4.75,5.29,6.19Z" fill="#fff"/><path d="M326.16,130V116.48a7.55,7.55,0,0,0-.28-2.25l1.71-.33a9.14,9.14,0,0,1,.29,2.6V130Zm6.82,0-5-6.19,4.18-4.75h2.15l-4.3,4.75,5.29,6.19Z" fill="#fff"/><path d="M338.21,124.79v.26a4.44,4.44,0,0,0,.51,2.4,3.12,3.12,0,0,0,2.73,1.34,3.75,3.75,0,0,0,2.68-1l.66,1.1a5.49,5.49,0,0,1-3.7,1.37c-3,0-4.85-2.2-4.85-5.83a5.85,5.85,0,0,1,1.31-4.13,4.1,4.1,0,0,1,3.28-1.52,4,4,0,0,1,3,1.19c.94,1,1.25,2,1.25,4.61v.25Zm4.51-3.74a2.33,2.33,0,0,0-2-1c-1.56,0-2.44,1.14-2.53,3.41h5A4.77,4.77,0,0,0,342.72,121.05Z" fill="#fff"/><path d="M349.93,130.19a1.83,1.83,0,0,1-1.3-.46,1.91,1.91,0,0,1-.52-1.56V116.56a8.11,8.11,0,0,0-.27-2.24l1.72-.33a9.8,9.8,0,0,1,.28,2.6v11.19c0,.85.13,1.1.62,1.1l.22,0L351,130A2.15,2.15,0,0,1,349.93,130.19Z" fill="#fff"/><path d="M354.66,117a1.33,1.33,0,0,1-1.35-1.32,1.36,1.36,0,0,1,1.35-1.36,1.34,1.34,0,0,1,0,2.68Zm-.93,13v-10.9l1.78-.29V130Z" fill="#fff"/><path d="M365.61,130v-7.4c0-1.17-.09-1.45-.39-1.83a1.65,1.65,0,0,0-1.21-.46,5,5,0,0,0-3,1.54V130H359.3v-8.44a5.1,5.1,0,0,0-.42-2.3l1.68-.47a4.51,4.51,0,0,1,.39,1.72,4.89,4.89,0,0,1,3.45-1.7,2.9,2.9,0,0,1,2.68,1.61,3.09,3.09,0,0,1,.27,1.28V130Z" fill="#fff"/><path d="M378.53,120.65a1.87,1.87,0,0,1-.75-.13,2.91,2.91,0,0,1,.66,1.87,3.56,3.56,0,0,1-1.63,3,3.77,3.77,0,0,1-2,.49c-1.48.52-2,.9-2,1.27s.33.53.88.53h1.76a4.18,4.18,0,0,1,2.63.61,2.64,2.64,0,0,1,1.21,2.31c0,2.38-1.69,3.45-4.35,3.45-3.43,0-4.75-1.23-4.75-2.79a3.38,3.38,0,0,1,.22-1.16l1.8-.16a2.06,2.06,0,0,0-.3,1,1.46,1.46,0,0,0,.63,1.28,4.7,4.7,0,0,0,2.22.5c1.7,0,2.66-.55,2.66-1.91a1.48,1.48,0,0,0-.59-1.32,4,4,0,0,0-2.15-.4l-1.7,0c-1.29,0-2.06-.6-2.06-1.59s.48-1.4,2-1.86a3.37,3.37,0,0,1-2.47-3.17c0-2.2,1.65-3.69,4-3.69,1.67,0,2,.61,3.34.61a2.51,2.51,0,0,0,1.52-.48l1.05,1A2.89,2.89,0,0,1,378.53,120.65Zm-4.12-.44c-1.36,0-2.06.75-2.06,2.27a1.92,1.92,0,0,0,2.11,2.17c1.32,0,2-.77,2-2.24S375.87,120.21,374.41,120.21Z" fill="#fff"/><polygon points="946.89 143.11 923.73 131.56 924.35 150 947 150 946.89 143.11" fill="#4d4d4d"/><polygon points="1042.67 105.55 1043.66 116.92 1073.58 96.62 1040.56 81.07 1041.52 92.44 989.32 96.95 990.47 110.15 1042.67 105.55" fill="#fff"/><polygon points="1029.48 113.83 1020.15 114.62 1023.25 150 1032.65 150 1029.48 113.83" fill="#fff"/><path d="M892.5,105.41l2.7,1.45-5.26,10.37,5.31,3.2,11.11-21.25-3.87-2.33,6.82-12.48,18.76-1.64L908.52,119l2.74,30.17-1.46.82h14.55l-.62-18.44,23.16,11.55L947,150h13l-1.44-16.47-25-12.87,9.72-17.09.93,10.54,37.22-3.25-1.14-13.12-11.14,1,.2,2.26-14.37,1.25-2-22.46S934.42,69,935,70.31L903.6,73.07,888.46,99.2l5.62,3.29Z" fill="#fff"/><path d="M955.53,75.24c6.7-.59,11.55-7.53,10.86-15.5s-6.69-14-13.38-13.36-11.55,7.52-10.86,15.48S948.85,75.82,955.53,75.24Z" fill="#fff"/><polygon points="1100 42.53 1100 33.13 1013.69 40.68 1017.73 86.54 1027.07 85.71 1023.83 49.2 1100 42.53" fill="#fff"/></svg>