<?xml version="1.0" encoding="utf-8"?>
<!-- Generator: Adobe Illustrator 22.0.1, SVG Export Plug-In . SVG Version: 6.00 Build 0)  -->
<!DOCTYPE svg PUBLIC "-//W3C//DTD SVG 1.1//EN" "http://www.w3.org/Graphics/SVG/1.1/DTD/svg11.dtd" [
	<!ENTITY st0 "fill:#333333;">
]>
<svg version="1.1" id="Layer_1" xmlns="http://www.w3.org/2000/svg" xmlns:xlink="http://www.w3.org/1999/xlink" x="0px" y="0px"
	 viewBox="0 0 482 71.3" style="enable-background:new 0 0 482 71.3;" xml:space="preserve">
<title>header</title>
<g>
	<path style="&st0;" d="M148.1,35.8c-2.4,3.4-6.1,5.6-10.1,6c-1.6,0.1-3.5,0.2-6,0.2h-10.2V0.3h8.4c2.4,0,5.6,0.1,7.3,0.2
		c3.4,0.2,6.7,1.7,9.1,4.1c3.8,3.8,5.7,9.1,5.7,16.6C152.3,27,150.9,32,148.1,35.8z M140.8,10.4c-1.4-2.3-3.3-3.5-6.6-3.5h-3.9v28.3
		h4.5c5.5,0,8-4.3,8-13.1C142.9,17.3,142.5,13.2,140.8,10.4z"/>
	<path style="&st0;" d="M182.8,42l-3-9.9h-12.2l-2.9,9.9h-8.8l13.7-41.8h9.1L191.8,42H182.8z M175.5,16.8l-1.7-7.4
		c-0.2,1-1.3,5.3-2,8c-0.8,3-1.3,5-2.2,7.7h8.2C177.5,24.3,176.1,19.6,175.5,16.8z"/>
	<path style="&st0;" d="M212.9,42.3h-7.6l-14.2-42h9.2l6.9,21.7c0.8,2.4,1.4,4.8,1.9,7.3c0.6-2.8,1.4-5.6,2.4-8.3l7.1-20.6h8.8
		L212.9,42.3z"/>
	<path style="&st0;" d="M257.7,42h-23.5V0.3h8.6V35h14.9V42z"/>
	<path style="&st0;" d="M303.5,40.3c-2.7,1.8-6,2.6-9.2,2.5c-4.7,0.1-9.3-1.2-13.2-3.7l2.2-3.8c3.2,2.4,7,3.6,11,3.5
		c3.1,0,4.8-0.5,6.5-1.8c1.9-1.3,3-3.6,2.9-5.9c0-3.7-2.4-6.2-7.4-7.7l-4.1-1.2c-3.7-1.1-5.7-2-7.3-3.7c-1.7-1.8-2.6-4.2-2.6-6.7
		c0-7,5.3-11.8,13.3-11.8c4.5,0,8.8,1.4,12.4,4l-2.2,3.5c-4-2.6-6.5-3.5-10-3.5c-5.2,0-8.2,2.6-8.2,6.8c0,3.3,2,5.2,6.8,6.7l4.7,1.5
		c3.7,1.1,5.6,2.2,7.3,4.1c1.7,2,2.7,4.6,2.7,7.3C309.1,34.5,307,38.2,303.5,40.3z"/>
	<path style="&st0;" d="M343.8,5h-11.1v37H328V5h-11V0.9h27.2L343.8,5z"/>
	<path style="&st0;" d="M376.5,39.6c-2.5,2.2-5.8,3.2-10.8,3.2c-6.4,0-10-1.9-12.2-5.9c-0.9-2-1.3-4.2-1.2-6.4V0.9h4.9v27.7
		c-0.1,2,0.2,4,0.7,5.9c0.8,1.8,3,4,8,4c3.4,0,6-0.9,7.3-2.6c1.4-1.9,1.6-3.7,1.6-6.4V0.9h4.9v29.3
		C379.6,35.1,378.9,37.5,376.5,39.6z"/>
	<path style="&st0;" d="M416.3,36.9c-3.6,4-7.2,5.2-13,5.2h-10.7V0.9h8.2c6.3,0,9.2,0.3,13.2,3.2c4.7,3.4,7,9.4,7,17.5
		C421,28.7,419.1,33.8,416.3,36.9z M412.1,8.7c-2.7-3.2-5.3-3.8-9.7-3.8h-4.9V38h4.9c4.3,0,8.2-0.5,10.4-4.3
		c1.9-3.5,2.9-7.5,2.8-11.5C415.7,15.9,414.9,12,412.1,8.7L412.1,8.7z"/>
	<path style="&st0;" d="M432.4,42V0.9h4.8v41.2L432.4,42L432.4,42z"/>
	<path style="&st0;" d="M475.8,38.9c-2.8,2.7-6.6,4.1-10.4,4c-4.5,0.1-8.8-1.8-11.7-5.2c-3.2-3.7-4.9-9.3-4.9-16.3
		c0-13.1,6.2-21.1,16.3-21.1c5.2-0.2,10.1,2.4,13,6.7c2.6,3.8,3.7,8.6,3.7,15.2C481.8,30,479.9,35,475.8,38.9z M474.3,9.8
		c-1.6-3.6-5.3-5.8-9.2-5.6c-3.6-0.1-7,1.7-8.8,4.8c-1.4,2.7-2.1,6.2-2.1,11.3c0,6.2,1,11.6,2.6,14.3c1.6,2.7,5.4,4.4,8.8,4.4
		c3,0.1,5.8-1.2,7.7-3.5c2-2.6,3-5.9,3-12.7C476.2,16.8,475.6,12.6,474.3,9.8L474.3,9.8z"/>
	<path style="&st0;" d="M130.1,67.2l-1.4-4.6h-5.6l-1.5,4.6h-1.8l5-15.1h2.4l5,15.1H130.1z M125.9,53.7l-2.4,7.4h4.7L125.9,53.7z"/>
	<path style="&st0;" d="M139.3,57.9c-0.2-0.1-0.3-0.1-0.5-0.1c-0.7,0-1.3,0.3-1.8,0.8c-0.5,0.4-0.7,1.1-0.6,1.7v6.9h-1.7v-8.4
		c0-0.8-0.1-1.6-0.4-2.3L136,56c0.3,0.6,0.4,1.2,0.3,1.8c0.7-1.1,1.8-1.7,3.1-1.8c0.2,0,0.4,0,0.6,0.1L139.3,57.9z"/>
	<path style="&st0;" d="M145.5,67.4c-1.4,0.1-2.7-0.5-3.5-1.6c-0.8-1.2-1.1-2.5-1.1-3.9c-0.2-1.7,0.5-3.4,1.7-4.7
		c0.8-0.8,1.9-1.3,3-1.3c1.1,0,2.2,0.4,3,1.2l-1,1.2c-0.5-0.6-1.3-0.9-2.1-0.9c-0.9,0-1.7,0.5-2.1,1.2c-0.5,1.1-0.7,2.4-0.6,3.6
		c0,2.5,1,3.8,2.7,3.8c0.9,0,1.8-0.4,2.3-1.2l0.9,1.1C148.1,66.9,146.8,67.5,145.5,67.4z"/>
	<path style="&st0;" d="M158.3,67.2v-7.6c0.1-0.6-0.1-1.2-0.4-1.6c-0.3-0.3-0.8-0.5-1.3-0.4c-1.3,0.1-2.4,0.8-3.2,1.8v7.8h-1.7V53.7
		c0-0.8-0.1-1.5-0.3-2.2l1.7-0.3c0.2,0.8,0.3,1.7,0.3,2.6v2.6c0,0.6,0,1.3-0.1,1.5c1-1,2.3-1.6,3.7-1.7c1.2-0.1,2.4,0.6,2.8,1.7
		c0.1,0.5,0.2,1.1,0.2,1.6v7.9h-1.7V67.2z"/>
	<path style="&st0;" d="M164.6,54.2c-0.7,0-1.3-0.6-1.3-1.3l0,0c0-0.7,0.6-1.3,1.3-1.4c0.7,0,1.3,0.6,1.3,1.3
		C166,53.6,165.4,54.2,164.6,54.2z M163.7,67.2V56.3l1.8-0.3v11.2C165.5,67.2,163.7,67.2,163.7,67.2z"/>
	<path style="&st0;" d="M173.5,57.5h-2.3v7.1c0,1.2,0.3,1.6,1.4,1.6c0.4,0,0.7-0.1,1.1-0.2l0.2,1.1c-0.6,0.3-1.3,0.5-1.9,0.4
		c-0.5,0-1-0.1-1.4-0.3c-0.8-0.4-1-1.1-1-2.2v-7.5h-1.5v-1.3h1.4c0-1,0.1-2.4,0.2-2.8l1.8-0.4c-0.1,1.1-0.2,2.1-0.2,3.2h2.8
		L173.5,57.5z"/>
	<path style="&st0;" d="M177.4,62v0.3c-0.1,0.8,0.1,1.7,0.5,2.4c0.6,0.9,1.6,1.4,2.7,1.3c1,0,2-0.3,2.7-1l0.7,1.1
		c-1,0.9-2.3,1.4-3.7,1.4c-3,0-4.9-2.2-4.9-5.8c-0.1-1.5,0.4-3,1.3-4.1c0.8-1,2-1.5,3.3-1.5c1.1,0,2.2,0.4,3,1.2
		c0.9,1,1.3,2,1.3,4.6v0.2L177.4,62z M181.9,58.3c-0.5-0.6-1.2-1-2-1c-1.6,0-2.4,1.1-2.5,3.4h5C182.4,59.8,182.3,59,181.9,58.3z"/>
	<path style="&st0;" d="M191.3,67.4c-1.4,0.1-2.7-0.5-3.5-1.6c-0.7-1.2-1.1-2.5-1-3.9c-0.2-1.7,0.4-3.4,1.6-4.7
		c0.8-0.8,1.9-1.3,3-1.3s2.2,0.4,3,1.2l-0.9,1.2c-0.5-0.6-1.3-0.9-2.1-0.9c-0.9,0-1.7,0.5-2.1,1.2c-0.5,1.1-0.7,2.4-0.6,3.6
		c0,2.5,0.9,3.8,2.7,3.8c0.9,0,1.8-0.5,2.4-1.2l0.9,1.1C193.9,66.9,192.6,67.5,191.3,67.4z"/>
	<path style="&st0;" d="M202,57.5h-2.3v7.1c0,1.2,0.3,1.6,1.4,1.6c0.4,0,0.7-0.1,1.1-0.2l0.2,1.1c-0.6,0.3-1.3,0.5-1.9,0.4
		c-0.5,0-1-0.1-1.4-0.3c-0.8-0.4-1.2-1.3-1.1-2.2v-7.5h-1.4v-1.3h1.4c0-1,0.1-2.4,0.2-2.8L200,53c-0.1,1.1-0.2,2.1-0.2,3.2h2.8
		L202,57.5z"/>
	<path style="&st0;" d="M212.8,67.6c-0.6-0.4-1-1-1.2-1.8c-0.8,1.1-2.1,1.7-3.5,1.7c-1.2,0.1-2.3-0.5-2.9-1.6
		c-0.2-0.5-0.3-1.1-0.3-1.6v-8l1.7-0.3v7.9c0,1,0.2,1.5,0.7,1.9c0.4,0.3,0.9,0.4,1.3,0.4c1.2-0.1,2.3-0.9,2.8-2v-7.8l1.7-0.3v8
		c0,1.4,0.2,1.9,0.8,2.4L212.8,67.6z"/>
	<path style="&st0;" d="M224.7,67.6c-0.6-0.4-1-1-1.2-1.8c-0.8,1.1-2.1,1.7-3.5,1.7c-1.2,0.1-2.3-0.5-2.9-1.6
		c-0.2-0.5-0.3-1.1-0.3-1.6v-8l1.7-0.3v7.9c0,1,0.2,1.5,0.7,1.9c0.4,0.3,0.9,0.4,1.3,0.4c1.2-0.1,2.3-0.9,2.8-2v-7.8l1.7-0.3v8
		c0,1.4,0.2,1.9,0.8,2.4L224.7,67.6z"/>
	<path style="&st0;" d="M233.5,57.9c-0.2-0.1-0.3-0.1-0.5-0.1c-0.7,0-1.3,0.3-1.8,0.8c-0.5,0.4-0.7,1.1-0.6,1.7v6.9h-1.7v-8.4
		c0-0.8-0.1-1.6-0.4-2.3l1.7-0.5c0.3,0.6,0.4,1.2,0.4,1.8c0.7-1.1,1.8-1.7,3.1-1.8c0.2,0,0.4,0,0.6,0.1L233.5,57.9z"/>
	<path style="&st0;" d="M241.8,70.4h-1.4l5.7-19.9h1.4L241.8,70.4z"/>
	<path style="&st0;" d="M263.4,66.5c-1,0.6-2.2,1-3.4,0.9c-1.7,0-3.4-0.5-4.8-1.4l0.8-1.4c1.2,0.9,2.6,1.3,4,1.3
		c0.9,0.1,1.7-0.2,2.4-0.7c0.7-0.5,1.1-1.3,1.1-2.2c0-1.3-0.9-2.3-2.7-2.8l-1.5-0.5c-1-0.2-1.9-0.7-2.7-1.3c-0.6-0.7-1-1.5-1-2.5
		c0-2.6,2-4.3,4.9-4.3c1.6,0,3.2,0.5,4.6,1.5l-0.8,1.3c-1.1-0.8-2.3-1.3-3.7-1.3c-1.9,0-3,0.9-3,2.5c0,1.2,0.7,1.9,2.5,2.5l1.7,0.6
		c1,0.2,1.9,0.8,2.7,1.5c0.6,0.7,1,1.7,1,2.7C265.4,64.4,264.7,65.7,263.4,66.5z"/>
	<path style="&st0;" d="M272.4,57.5h-2.3v7.1c0,1.2,0.3,1.6,1.4,1.6c0.4,0,0.7-0.1,1.1-0.2l0.2,1.1c-0.6,0.3-1.3,0.5-1.9,0.4
		c-0.5,0-1-0.1-1.4-0.3c-0.8-0.4-1.2-1.3-1.1-2.2v-7.5H267v-1.3h1.4c0-1,0.1-2.4,0.2-2.8l1.8-0.4c-0.1,1.1-0.2,2.1-0.2,3.2h2.8
		L272.4,57.5z"/>
	<path style="&st0;" d="M280.3,57.9c-0.2-0.1-0.3-0.1-0.5-0.1c-0.7,0-1.3,0.3-1.8,0.8c-0.5,0.4-0.7,1.1-0.6,1.7v6.9h-1.7v-8.4
		c0-0.8-0.1-1.6-0.4-2.3L277,56c0.3,0.6,0.4,1.2,0.4,1.8c0.7-1.1,1.8-1.7,3.1-1.8c0.2,0,0.4,0,0.6,0.1L280.3,57.9z"/>
	<path style="&st0;" d="M290.5,67.6c-0.7-0.2-1.3-0.8-1.5-1.6c-0.8,0.9-1.9,1.5-3.2,1.5c-2.7,0-3.5-1.6-3.5-3.1
		c0-2.5,2.1-3.9,5.8-3.9c0.3,0,0.5,0,0.8,0v-0.8c0-1,0-1.4-0.4-1.7c-0.4-0.4-0.9-0.6-1.5-0.6c-1.3,0.1-2.5,0.5-3.5,1.3l-0.9-1.2
		c1.4-0.9,3-1.4,4.6-1.5c1.3-0.1,2.5,0.6,3,1.7c0.2,0.8,0.3,1.6,0.2,2.4l-0.1,3.6c0,1.8,0.1,2.2,0.9,2.7L290.5,67.6z M288,61.6
		c-2.8,0-3.8,0.9-3.8,2.6c0,1.3,0.6,2,1.9,2c1.1,0,2.2-0.7,2.7-1.7l0.1-2.9C288.6,61.6,288.2,61.6,288,61.6L288,61.6z"/>
	<path style="&st0;" d="M298.5,57.5h-2.3v7.1c0,1.2,0.3,1.6,1.4,1.6c0.4,0,0.7-0.1,1.1-0.2l0.2,1.1c-0.6,0.3-1.3,0.5-1.9,0.4
		c-0.5,0-1-0.1-1.4-0.3c-0.8-0.4-1.1-1.1-1.1-2.2v-7.5h-1.4v-1.3h1.4c0-1,0.1-2.4,0.2-2.8l1.8-0.4c-0.1,1.1-0.2,2.1-0.2,3.2h2.7
		L298.5,57.5z"/>
	<path style="&st0;" d="M302.4,62v0.3c-0.1,0.8,0.1,1.7,0.5,2.4c0.6,0.9,1.6,1.4,2.7,1.3c1,0,2-0.3,2.7-1l0.7,1.1
		c-1,0.9-2.3,1.4-3.7,1.4c-3,0-4.9-2.2-4.9-5.8c-0.1-1.5,0.4-3,1.3-4.1c0.8-1,2-1.5,3.3-1.5c1.1,0,2.2,0.4,3,1.2
		c0.9,1,1.3,2,1.3,4.6v0.2L302.4,62z M306.9,58.3c-0.5-0.6-1.2-1-2-1c-1.6,0-2.4,1.1-2.5,3.4h5C307.5,59.8,307.3,59,306.9,58.3z"/>
	<path style="&st0;" d="M319.9,57.9c-0.3,0-0.5,0-0.8-0.1c0.4,0.5,0.7,1.2,0.7,1.9c0,1.2-0.6,2.3-1.6,3c-0.6,0.3-1.3,0.5-2,0.5
		c-1.5,0.5-2,0.9-2,1.3c0,0.4,0.3,0.5,0.9,0.5h1.8c0.9-0.1,1.8,0.1,2.6,0.6c0.8,0.5,1.2,1.4,1.2,2.3c0,2.4-1.7,3.4-4.4,3.4
		c-3.4,0-4.8-1.2-4.8-2.8c0-0.4,0.1-0.8,0.2-1.2l1.8-0.2c-0.2,0.3-0.3,0.6-0.3,1c0,0.5,0.2,1,0.6,1.3c0.7,0.3,1.5,0.5,2.2,0.5
		c1.7,0,2.7-0.6,2.7-1.9c0-0.5-0.2-1-0.6-1.3c-0.7-0.3-1.4-0.5-2.1-0.4h-1.7c-1.3,0-2.1-0.6-2.1-1.6c0-1,0.5-1.4,2-1.9
		c-1.4-0.4-2.4-1.7-2.5-3.2c0-2.2,1.6-3.7,4-3.7c1.7,0,2,0.6,3.3,0.6c0.5,0,1.1-0.2,1.5-0.5l1,1C321.2,57.6,320.5,57.8,319.9,57.9z
		 M315.7,57.4c-1.4,0-2.1,0.8-2.1,2.3c-0.1,1.1,0.6,2,1.6,2.2c0.2,0,0.3,0,0.5,0c1.3,0,2-0.8,2-2.2S317.2,57.4,315.7,57.4
		L315.7,57.4z"/>
	<path style="&st0;" d="M324.9,54.2c-0.7,0-1.3-0.6-1.3-1.3l0,0c0-0.7,0.6-1.4,1.3-1.4l0,0c0.7,0,1.3,0.6,1.3,1.3
		C326.2,53.6,325.6,54.2,324.9,54.2z M324,67.2V56.3l1.8-0.3v11.2C325.8,67.2,324,67.2,324,67.2z"/>
	<path style="&st0;" d="M330.9,62v0.3c-0.1,0.8,0.1,1.7,0.5,2.4c0.6,0.9,1.6,1.4,2.7,1.3c1,0,2-0.3,2.7-1l0.7,1.1
		c-1,0.9-2.3,1.4-3.7,1.4c-3,0-4.9-2.2-4.9-5.8c-0.1-1.5,0.4-3,1.3-4.1c0.8-1,2-1.5,3.3-1.5c1.1,0,2.2,0.4,3,1.2c1,1,1.2,2,1.2,4.6
		v0.2L330.9,62z M335.4,58.3c-0.5-0.7-1.2-1-2-1c-1.6,0-2.4,1.1-2.5,3.4h5C335.9,59.8,335.7,59,335.4,58.3z"/>
	<path style="&st0;" d="M346.8,70.4h-1.4l5.7-19.9h1.4L346.8,70.4z"/>
	<path style="&st0;" d="M370.3,66c-1,1-2.4,1.5-3.8,1.4c-1.6,0-3.2-0.7-4.3-1.9c-1.3-1.7-1.9-3.8-1.8-6c0-4.8,2.3-7.7,6-7.7
		c1.9-0.1,3.7,0.9,4.8,2.5c1,1.7,1.5,3.6,1.4,5.6C372.6,62.8,371.9,64.6,370.3,66z M369.8,55.4c-0.6-1.3-1.9-2.1-3.4-2.1
		c-1.3,0-2.6,0.6-3.2,1.8c-0.6,1.3-0.9,2.7-0.8,4.2c-0.1,1.8,0.3,3.6,1,5.3c0.7,1,1.9,1.6,3.2,1.6c1.1,0.1,2.1-0.4,2.8-1.3
		c0.8-1,1.1-2.2,1.1-4.6C370.6,58.5,370.4,56.9,369.8,55.4z"/>
	<path style="&st0;" d="M382.2,67.2v-7.4c0-1.2-0.1-1.4-0.4-1.8c-0.3-0.3-0.8-0.5-1.2-0.5c-1.1,0.2-2.2,0.7-3,1.5v8.2h-1.7v-8.4
		c0-0.8-0.1-1.6-0.4-2.3l1.7-0.5c0.2,0.5,0.4,1.1,0.4,1.7c0.9-1,2.1-1.6,3.5-1.7c1.1,0,2.2,0.6,2.7,1.6c0.2,0.4,0.3,0.8,0.3,1.3v8.3
		C384.1,67.2,382.2,67.2,382.2,67.2z"/>
	<path style="&st0;" d="M391.9,57.5h-2.3v7.1c0,1.2,0.3,1.6,1.4,1.6c0.4,0,0.7-0.1,1.1-0.2l0.2,1.1c-0.6,0.3-1.3,0.5-1.9,0.4
		c-0.5,0-1-0.1-1.4-0.3c-0.8-0.4-1-1.1-1-2.2v-7.5h-1.4v-1.3h1.4c0-1,0.1-2.4,0.2-2.8L390,53c-0.1,1.1-0.2,2.1-0.2,3.2h2.8
		L391.9,57.5z"/>
	<path style="&st0;" d="M405.4,67.4h-1.7l-2.2-7.7c-0.2-0.6-0.3-1.1-0.3-1.2l0,0c0,0.2-0.2,0.8-0.2,1.1l-2.2,7.8h-1.7l-3-11l1.7-0.4
		l1.8,7.2c0.2,0.9,0.4,1.7,0.4,1.8h0.1c0.1-0.5,0.2-1.1,0.4-1.6l2-7.2h1.9l1.9,7.3c0.1,0.5,0.4,1.4,0.4,1.6l0,0l0.3-1.5l1.7-7.4h1.8
		L405.4,67.4z"/>
	<path style="&st0;" d="M411.9,54.2c-0.7,0-1.3-0.6-1.3-1.3l0,0c0-0.7,0.6-1.4,1.3-1.4l0,0c0.7,0,1.3,0.6,1.3,1.3
		C413.2,53.6,412.6,54.2,411.9,54.2z M411,67.2V56.3l1.8-0.3v11.2C412.8,67.2,411,67.2,411,67.2z"/>
	<path style="&st0;" d="M416.5,67.2V53.7c0-0.8-0.1-1.5-0.3-2.2l1.7-0.3c0.2,0.8,0.3,1.7,0.3,2.6v13.4H416.5z M423.3,67.2l-5-6.2
		l4.2-4.8h2.2l-4.3,4.8l5.3,6.2H423.3z"/>
	<path style="&st0;" d="M428,67.2V53.7c0-0.8-0.1-1.5-0.3-2.2l1.7-0.3c0.2,0.8,0.3,1.7,0.3,2.6v13.4H428z M434.8,67.2l-5-6.2
		l4.2-4.8h2.1l-4.3,4.8l5.3,6.2H434.8z"/>
	<path style="&st0;" d="M440,62v0.3c-0.1,0.8,0.1,1.7,0.5,2.4c0.6,0.9,1.6,1.4,2.7,1.3c1,0,2-0.3,2.7-1l0.7,1.1
		c-1,0.9-2.3,1.4-3.7,1.4c-3,0-4.9-2.2-4.9-5.8c-0.1-1.5,0.4-3,1.3-4.1c0.8-1,2-1.5,3.3-1.5c1.1,0,2.2,0.4,3,1.2
		c0.9,1,1.2,2,1.2,4.6v0.2L440,62z M444.5,58.3c-0.5-0.7-1.2-1-2-1c-1.6,0-2.4,1.1-2.5,3.4h5C445,59.8,444.9,59,444.5,58.3z"/>
	<path style="&st0;" d="M451.7,67.4c-0.5,0-0.9-0.1-1.3-0.5c-0.4-0.4-0.6-1-0.5-1.6V53.7c0-0.8-0.1-1.5-0.3-2.2l1.7-0.3
		c0.2,0.9,0.3,1.7,0.3,2.6V65c0,0.9,0.1,1.1,0.6,1.1h0.2l0.3,1.1C452.5,67.4,452.1,67.4,451.7,67.4z"/>
	<path style="&st0;" d="M456.5,54.2c-0.7,0-1.3-0.6-1.3-1.3l0,0c0-0.7,0.6-1.4,1.4-1.4c0.7,0,1.3,0.6,1.3,1.3
		C457.8,53.6,457.2,54.2,456.5,54.2z M455.5,67.2V56.3l1.8-0.3v11.2C457.3,67.2,455.5,67.2,455.5,67.2z"/>
	<path style="&st0;" d="M467.4,67.2v-7.4c0-1.2-0.1-1.4-0.4-1.8c-0.3-0.3-0.8-0.5-1.2-0.5c-1.1,0.2-2.2,0.7-3,1.5v8.2h-1.7v-8.4
		c0-0.8-0.1-1.6-0.4-2.3l1.7-0.5c0.2,0.5,0.4,1.1,0.4,1.7c0.9-1,2.1-1.6,3.5-1.7c1.1,0,2.2,0.6,2.7,1.6c0.2,0.4,0.3,0.8,0.3,1.3v8.3
		C469.3,67.2,467.4,67.2,467.4,67.2z"/>
	<path style="&st0;" d="M480.3,57.9c-0.3,0-0.5,0-0.8-0.1c0.4,0.5,0.7,1.2,0.7,1.9c0,1.2-0.6,2.3-1.6,3c-0.6,0.3-1.3,0.5-2,0.5
		c-1.5,0.5-2,0.9-2,1.3c0,0.4,0.3,0.5,0.9,0.5h1.8c0.9-0.1,1.8,0.1,2.6,0.6c0.8,0.5,1.2,1.4,1.2,2.3c0,2.4-1.7,3.4-4.4,3.4
		c-3.4,0-4.8-1.2-4.8-2.8c0-0.4,0.1-0.8,0.2-1.2l1.8-0.2c-0.2,0.3-0.3,0.6-0.3,1c0,0.5,0.2,1,0.6,1.3c0.7,0.3,1.5,0.5,2.2,0.5
		c1.7,0,2.7-0.6,2.7-1.9c0-0.5-0.2-1-0.6-1.3c-0.7-0.3-1.4-0.5-2.1-0.4h-1.6c-1.3,0-2.1-0.6-2.1-1.6c0-1,0.5-1.4,2-1.9
		c-1.4-0.4-2.4-1.7-2.5-3.2c0-2.2,1.6-3.7,4-3.7c1.7,0,2,0.6,3.3,0.6c0.5,0,1.1-0.2,1.5-0.5l1,1C481.7,57.6,481,57.8,480.3,57.9z
		 M476.2,57.4c-1.4,0-2.1,0.8-2.1,2.3c-0.1,1.1,0.6,2,1.6,2.2c0.2,0,0.3,0,0.5,0c1.3,0,2-0.8,2-2.2S477.7,57.4,476.2,57.4z"/>
</g>
<g>
	<path style="&st0;" d="M34.9,21.1c3.2-0.3,5.5-3.6,5.2-7.4c-0.3-3.8-3.2-6.7-6.4-6.4c-3.2,0.2-5.5,3.6-5.2,7.4
		C28.8,18.6,31.7,21.4,34.9,21.1z"/>
	<polygon style="&st0;" points="114.5,60.9 68.1,64.9 65.9,40.1 70.3,39.6 72.1,60.1 109.6,56.8 105,5.4 67.7,8.7 69.2,26.2 
		64.7,26.5 62.8,4.5 109.2,0.5 	"/>
	<polygon style="&st0;" points="91.5,31.4 75.7,23.9 76.1,29.4 51.1,31.5 51.7,37.9 76.7,35.7 77.2,41.1 	"/>
	<path style="&st0;" d="M46.7,32l-5.4,0.5l0.1,1.1l-6.9,0.6l-0.9-10.8c0,0-8.8-5.2-8.6-4.5L10,20.1L2.7,32.6l2.7,1.6l-0.7,1.4
		l1.3,0.7l-2.6,5l2.6,1.6l5.4-10.2l-1.9-1.1l3.3-6l9-0.8l-9.3,17.4l1.3,14.5L0,64.3l2.6,6.1L20,60.9l-0.4-12.6l11.1,5.5L30.9,68
		l6.9-0.5l-1.5-18.4l-12-6.2l4.7-8.2l0.4,5l17.9-1.6L46.7,32z"/>
</g>
</svg>
