<?xml version="1.0" encoding="utf-8"?>
<!-- Generator: Adobe Illustrator 22.0.1, SVG Export Plug-In . SVG Version: 6.00 Build 0)  -->
<svg version="1.1" id="Layer_1" xmlns="http://www.w3.org/2000/svg" xmlns:xlink="http://www.w3.org/1999/xlink" x="0px" y="0px"
	 viewBox="0 0 1100 150" style="enable-background:new 0 0 1100 150;" xml:space="preserve">
<style type="text/css">
	.st0{fill:#4D4D4D;}
	.st1{fill:#FFFFFF;}
</style>
<title>header</title>
<path class="st0" d="M911.3,149.2l-2.7-30.2l19.5-36.3l-18.8,1.6l-6.8,12.5l3.9,2.3l-11.1,21.2l-5.3-3.2l5.3-10.4l-2.7-1.4l1.6-2.9
	l-5.6-3.3l15.1-26.1l31.4-2.8c-0.6-1.3,17.9,9.5,17.9,9.5l2,22.5l14.3-1.2l-0.2-2.3l11.1-1l1.1,13.1l-37.2,3.2l-0.9-10.5l-9.7,17.1
	l25,12.9L960,150h63.3l-3.1-35.4l9.3-0.8l3.2,36.2h67.3V42.5l-76.2,6.7l3.2,36.5l-9.3,0.8l-4-45.9l86.3-7.5V0H0v150h909.8
	L911.3,149.2z M1041.5,92.4l-1-11.4l33,15.6l-29.9,20.3l-1-11.4l-52.2,4.6L989.3,97L1041.5,92.4z M953,46.4
	c6.7-0.6,12.7,5.4,13.4,13.4s-4.2,14.9-10.9,15.5s-12.7-5.4-13.4-13.4S946.3,47,953,46.4z"/>
<path class="st1" d="M46.3,98.6c-2.4,3.4-6.1,5.6-10.1,6c-1.6,0.1-3.5,0.2-6,0.2H20V63.1h8.4c2.4,0,5.6,0.1,7.3,0.2
	c3.4,0.2,6.7,1.7,9.1,4.1c3.8,3.8,5.7,9.1,5.7,16.6C50.5,89.8,49.1,94.8,46.3,98.6z M39,73.2c-1.4-2.3-3.3-3.5-6.6-3.5h-3.9V98H33
	c5.5,0,8-4.3,8-13.1C41.1,80.1,40.7,76,39,73.2z"/>
<path class="st1" d="M81,104.8l-3-9.9H65.8l-2.9,9.9h-8.8L67.8,63h9.1L90,104.8H81z M73.7,79.6L72,72.2c-0.2,1-1.3,5.3-2,8
	c-0.8,3-1.3,5-2.2,7.7H76C75.7,87.1,74.3,82.4,73.7,79.6z"/>
<path class="st1" d="M111.1,105.1h-7.6l-14.2-42h9.2l6.9,21.7c0.8,2.4,1.4,4.8,1.9,7.3c0.6-2.8,1.4-5.6,2.4-8.3l7.1-20.6h8.8
	L111.1,105.1z"/>
<path class="st1" d="M155.9,104.8h-23.5V63.1h8.6v34.7h14.9V104.8z"/>
<path class="st1" d="M201.7,103.1c-2.7,1.8-6,2.6-9.2,2.5c-4.7,0.1-9.3-1.2-13.2-3.7l2.2-3.8c3.2,2.4,7,3.6,11,3.5
	c3.1,0,4.8-0.5,6.5-1.8c1.9-1.3,3-3.6,2.9-5.9c0-3.7-2.4-6.2-7.4-7.7l-4.1-1.2c-3.7-1.1-5.7-2-7.3-3.7c-1.7-1.8-2.6-4.2-2.6-6.7
	c0-7,5.3-11.8,13.3-11.8c4.5,0,8.8,1.4,12.4,4l-2.2,3.5c-4-2.6-6.5-3.5-10-3.5c-5.2,0-8.2,2.6-8.2,6.8c0,3.3,2,5.2,6.8,6.7l4.7,1.5
	c3.7,1.1,5.6,2.2,7.3,4.1c1.7,2,2.7,4.6,2.7,7.3C207.3,97.3,205.2,101,201.7,103.1z"/>
<path class="st1" d="M242,67.8h-11.1v37h-4.7v-37h-11v-4.1h27.2L242,67.8z"/>
<path class="st1" d="M274.7,102.4c-2.5,2.2-5.8,3.2-10.8,3.2c-6.4,0-10-1.9-12.2-5.9c-0.9-2-1.3-4.2-1.2-6.4V63.7h4.9v27.7
	c-0.1,2,0.2,4,0.7,5.9c0.8,1.8,3,4,8,4c3.4,0,6-0.9,7.3-2.6c1.4-1.9,1.6-3.7,1.6-6.4V63.7h4.9V93
	C277.8,97.9,277.1,100.3,274.7,102.4z"/>
<path class="st1" d="M314.5,99.7c-3.6,4-7.2,5.2-13,5.2h-10.7V63.7h8.2c6.3,0,9.2,0.3,13.2,3.2c4.7,3.4,7,9.4,7,17.5
	C319.2,91.5,317.3,96.6,314.5,99.7z M310.3,71.5c-2.7-3.2-5.3-3.8-9.7-3.8h-4.9v33.1h4.9c4.3,0,8.2-0.5,10.4-4.3
	c1.9-3.5,2.9-7.5,2.8-11.5C313.9,78.7,313.1,74.8,310.3,71.5L310.3,71.5z"/>
<path class="st1" d="M330.6,104.8V63.7h4.8v41.2H330.6z"/>
<path class="st1" d="M374,101.7c-2.8,2.7-6.6,4.1-10.4,4c-4.5,0.1-8.8-1.8-11.7-5.2c-3.2-3.7-4.9-9.3-4.9-16.3
	c0-13.1,6.2-21.1,16.3-21.1c5.2-0.2,10.1,2.4,13,6.7c2.6,3.8,3.7,8.6,3.7,15.2C380,92.8,378.1,97.8,374,101.7z M372.5,72.6
	c-1.6-3.6-5.3-5.8-9.2-5.6c-3.6-0.1-7,1.7-8.8,4.8c-1.4,2.7-2.1,6.2-2.1,11.3c0,6.2,1,11.6,2.6,14.3s5.4,4.4,8.8,4.4
	c3,0.1,5.8-1.2,7.7-3.5c2-2.6,3-5.9,3-12.7C374.4,79.6,373.8,75.4,372.5,72.6L372.5,72.6z"/>
<path class="st1" d="M28.3,130l-1.4-4.6h-5.6l-1.5,4.6H18l5-15.1h2.4l5,15.1H28.3z M24.1,116.5l-2.4,7.4h4.7L24.1,116.5z"/>
<path class="st1" d="M37.5,120.7c-0.2-0.1-0.3-0.1-0.5-0.1c-0.7,0-1.3,0.3-1.8,0.8c-0.5,0.4-0.7,1.1-0.6,1.7v6.9h-1.7v-8.4
	c0-0.8-0.1-1.6-0.4-2.3l1.7-0.5c0.3,0.6,0.4,1.2,0.3,1.8c0.7-1.1,1.8-1.7,3.1-1.8c0.2,0,0.4,0,0.6,0.1L37.5,120.7z"/>
<path class="st1" d="M43.7,130.2c-1.4,0.1-2.7-0.5-3.5-1.6c-0.8-1.2-1.1-2.5-1.1-3.9c-0.2-1.7,0.5-3.4,1.7-4.7
	c0.8-0.8,1.9-1.3,3-1.3c1.1,0,2.2,0.4,3,1.2l-1,1.2c-0.5-0.6-1.3-0.9-2.1-0.9c-0.9,0-1.7,0.5-2.1,1.2c-0.5,1.1-0.7,2.4-0.6,3.6
	c0,2.5,1,3.8,2.7,3.8c0.9,0,1.8-0.4,2.3-1.2l0.9,1.1C46.3,129.7,45,130.3,43.7,130.2z"/>
<path class="st1" d="M56.5,130v-7.6c0.1-0.6-0.1-1.2-0.4-1.6c-0.3-0.3-0.8-0.5-1.3-0.4c-1.3,0.1-2.4,0.8-3.2,1.8v7.8h-1.7v-13.5
	c0-0.8-0.1-1.5-0.3-2.2l1.7-0.3c0.2,0.8,0.3,1.7,0.3,2.6v2.6c0,0.6,0,1.3-0.1,1.5c1-1,2.3-1.6,3.7-1.7c1.2-0.1,2.4,0.6,2.8,1.7
	c0.1,0.5,0.2,1.1,0.2,1.6v7.9H56.5z"/>
<path class="st1" d="M62.8,117c-0.7,0-1.3-0.6-1.3-1.3c0,0,0,0,0,0c0-0.7,0.6-1.3,1.3-1.4c0.7,0,1.3,0.6,1.3,1.3
	C64.2,116.4,63.6,117,62.8,117z M61.9,130v-10.9l1.8-0.3V130H61.9z"/>
<path class="st1" d="M71.7,120.3h-2.3v7.1c0,1.2,0.3,1.6,1.4,1.6c0.4,0,0.7-0.1,1.1-0.2l0.2,1.1c-0.6,0.3-1.3,0.5-1.9,0.4
	c-0.5,0-1-0.1-1.4-0.3c-0.8-0.4-1-1.1-1-2.2v-7.5h-1.5V119h1.4c0-1,0.1-2.4,0.2-2.8l1.8-0.4c-0.1,1.1-0.2,2.1-0.2,3.2h2.8
	L71.7,120.3z"/>
<path class="st1" d="M75.6,124.8v0.3c-0.1,0.8,0.1,1.7,0.5,2.4c0.6,0.9,1.6,1.4,2.7,1.3c1,0,2-0.3,2.7-1l0.7,1.1
	c-1,0.9-2.3,1.4-3.7,1.4c-3,0-4.9-2.2-4.9-5.8c-0.1-1.5,0.4-3,1.3-4.1c0.8-1,2-1.5,3.3-1.5c1.1,0,2.2,0.4,3,1.2c0.9,1,1.3,2,1.3,4.6
	v0.2L75.6,124.8z M80.1,121.1c-0.5-0.6-1.2-1-2-1c-1.6,0-2.4,1.1-2.5,3.4h5C80.6,122.6,80.5,121.8,80.1,121.1z"/>
<path class="st1" d="M89.5,130.2c-1.4,0.1-2.7-0.5-3.5-1.6c-0.7-1.2-1.1-2.5-1-3.9c-0.2-1.7,0.4-3.4,1.6-4.7c0.8-0.8,1.9-1.3,3-1.3
	c1.1,0,2.2,0.4,3,1.2l-0.9,1.2c-0.5-0.6-1.3-0.9-2.1-0.9c-0.9,0-1.7,0.5-2.1,1.2c-0.5,1.1-0.7,2.4-0.6,3.6c0,2.5,0.9,3.8,2.7,3.8
	c0.9,0,1.8-0.5,2.4-1.2l0.9,1.1C92.1,129.7,90.8,130.3,89.5,130.2z"/>
<path class="st1" d="M100.2,120.3h-2.3v7.1c0,1.2,0.3,1.6,1.4,1.6c0.4,0,0.7-0.1,1.1-0.2l0.2,1.1c-0.6,0.3-1.3,0.5-1.9,0.4
	c-0.5,0-1-0.1-1.4-0.3c-0.8-0.4-1.2-1.3-1.1-2.2v-7.5h-1.4V119h1.4c0-1,0.1-2.4,0.2-2.8l1.8-0.4c-0.1,1.1-0.2,2.1-0.2,3.2h2.8
	L100.2,120.3z"/>
<path class="st1" d="M111,130.4c-0.6-0.4-1-1-1.2-1.8c-0.8,1.1-2.1,1.7-3.5,1.7c-1.2,0.1-2.3-0.5-2.9-1.6c-0.2-0.5-0.3-1.1-0.3-1.6
	v-8l1.7-0.3v7.9c0,1,0.2,1.5,0.7,1.9c0.4,0.3,0.9,0.4,1.3,0.4c1.2-0.1,2.3-0.9,2.8-2v-7.8l1.7-0.3v8c0,1.4,0.2,1.9,0.8,2.4
	L111,130.4z"/>
<path class="st1" d="M122.9,130.4c-0.6-0.4-1-1-1.2-1.8c-0.8,1.1-2.1,1.7-3.5,1.7c-1.2,0.1-2.3-0.5-2.9-1.6
	c-0.2-0.5-0.3-1.1-0.3-1.6v-8l1.7-0.3v7.9c0,1,0.2,1.5,0.7,1.9c0.4,0.3,0.9,0.4,1.3,0.4c1.2-0.1,2.3-0.9,2.8-2v-7.8l1.7-0.3v8
	c0,1.4,0.2,1.9,0.8,2.4L122.9,130.4z"/>
<path class="st1" d="M131.7,120.7c-0.2-0.1-0.3-0.1-0.5-0.1c-0.7,0-1.3,0.3-1.8,0.8c-0.5,0.4-0.7,1.1-0.6,1.7v6.9h-1.7v-8.4
	c0-0.8-0.1-1.6-0.4-2.3l1.7-0.5c0.3,0.6,0.4,1.2,0.4,1.8c0.7-1.1,1.8-1.7,3.1-1.8c0.2,0,0.4,0,0.6,0.1L131.7,120.7z"/>
<path class="st1" d="M140,133.2h-1.4l5.7-19.9h1.4L140,133.2z"/>
<path class="st1" d="M161.6,129.3c-1,0.6-2.2,1-3.4,0.9c-1.7,0-3.4-0.5-4.8-1.4l0.8-1.4c1.2,0.9,2.6,1.3,4,1.3
	c0.9,0.1,1.7-0.2,2.4-0.7c0.7-0.5,1.1-1.3,1.1-2.2c0-1.3-0.9-2.3-2.7-2.8l-1.5-0.5c-1-0.2-1.9-0.7-2.7-1.3c-0.6-0.7-1-1.5-1-2.5
	c0-2.6,2-4.3,4.9-4.3c1.6,0,3.2,0.5,4.6,1.5l-0.8,1.3c-1.1-0.8-2.3-1.3-3.7-1.3c-1.9,0-3,0.9-3,2.5c0,1.2,0.7,1.9,2.5,2.5l1.7,0.6
	c1,0.2,1.9,0.8,2.7,1.5c0.6,0.7,1,1.7,1,2.7C163.6,127.2,162.9,128.5,161.6,129.3z"/>
<path class="st1" d="M170.6,120.3h-2.3v7.1c0,1.2,0.3,1.6,1.4,1.6c0.4,0,0.7-0.1,1.1-0.2l0.2,1.1c-0.6,0.3-1.3,0.5-1.9,0.4
	c-0.5,0-1-0.1-1.4-0.3c-0.8-0.4-1.2-1.3-1.1-2.2v-7.5h-1.4V119h1.4c0-1,0.1-2.4,0.2-2.8l1.8-0.4c-0.1,1.1-0.2,2.1-0.2,3.2h2.8
	L170.6,120.3z"/>
<path class="st1" d="M178.5,120.7c-0.2-0.1-0.3-0.1-0.5-0.1c-0.7,0-1.3,0.3-1.8,0.8c-0.5,0.4-0.7,1.1-0.6,1.7v6.9h-1.7v-8.4
	c0-0.8-0.1-1.6-0.4-2.3l1.7-0.5c0.3,0.6,0.4,1.2,0.4,1.8c0.7-1.1,1.8-1.7,3.1-1.8c0.2,0,0.4,0,0.6,0.1L178.5,120.7z"/>
<path class="st1" d="M188.7,130.4c-0.7-0.2-1.3-0.8-1.5-1.6c-0.8,0.9-1.9,1.5-3.2,1.5c-2.7,0-3.5-1.6-3.5-3.1c0-2.5,2.1-3.9,5.8-3.9
	c0.3,0,0.5,0,0.8,0v-0.8c0-1,0-1.4-0.4-1.7c-0.4-0.4-0.9-0.6-1.5-0.6c-1.3,0.1-2.5,0.5-3.5,1.3l-0.9-1.2c1.4-0.9,3-1.4,4.6-1.5
	c1.3-0.1,2.5,0.6,3,1.7c0.2,0.8,0.3,1.6,0.2,2.4l-0.1,3.6c0,1.8,0.1,2.2,0.9,2.7L188.7,130.4z M186.2,124.4c-2.8,0-3.8,0.9-3.8,2.6
	c0,1.3,0.6,2,1.9,2c1.1,0,2.2-0.7,2.7-1.7l0.1-2.9C186.8,124.4,186.4,124.4,186.2,124.4L186.2,124.4z"/>
<path class="st1" d="M196.7,120.3h-2.3v7.1c0,1.2,0.3,1.6,1.4,1.6c0.4,0,0.7-0.1,1.1-0.2l0.2,1.1c-0.6,0.3-1.3,0.5-1.9,0.4
	c-0.5,0-1-0.1-1.4-0.3c-0.8-0.4-1.1-1.1-1.1-2.2v-7.5h-1.4V119h1.4c0-1,0.1-2.4,0.2-2.8l1.8-0.4c-0.1,1.1-0.2,2.1-0.2,3.2h2.7
	L196.7,120.3z"/>
<path class="st1" d="M200.6,124.8v0.3c-0.1,0.8,0.1,1.7,0.5,2.4c0.6,0.9,1.6,1.4,2.7,1.3c1,0,2-0.3,2.7-1l0.7,1.1
	c-1,0.9-2.3,1.4-3.7,1.4c-3,0-4.9-2.2-4.9-5.8c-0.1-1.5,0.4-3,1.3-4.1c0.8-1,2-1.5,3.3-1.5c1.1,0,2.2,0.4,3,1.2c0.9,1,1.3,2,1.3,4.6
	v0.2L200.6,124.8z M205.1,121.1c-0.5-0.6-1.2-1-2-1c-1.6,0-2.4,1.1-2.5,3.4h5C205.7,122.6,205.5,121.8,205.1,121.1z"/>
<path class="st1" d="M218.1,120.7c-0.3,0-0.5,0-0.8-0.1c0.4,0.5,0.7,1.2,0.7,1.9c0,1.2-0.6,2.3-1.6,3c-0.6,0.3-1.3,0.5-2,0.5
	c-1.5,0.5-2,0.9-2,1.3s0.3,0.5,0.9,0.5h1.8c0.9-0.1,1.8,0.1,2.6,0.6c0.8,0.5,1.2,1.4,1.2,2.3c0,2.4-1.7,3.4-4.4,3.4
	c-3.4,0-4.8-1.2-4.8-2.8c0-0.4,0.1-0.8,0.2-1.2l1.8-0.2c-0.2,0.3-0.3,0.6-0.3,1c0,0.5,0.2,1,0.6,1.3c0.7,0.3,1.5,0.5,2.2,0.5
	c1.7,0,2.7-0.6,2.7-1.9c0-0.5-0.2-1-0.6-1.3c-0.7-0.3-1.4-0.5-2.1-0.4h-1.7c-1.3,0-2.1-0.6-2.1-1.6s0.5-1.4,2-1.9
	c-1.4-0.4-2.4-1.7-2.5-3.2c0-2.2,1.6-3.7,4-3.7c1.7,0,2,0.6,3.3,0.6c0.5,0,1.1-0.2,1.5-0.5l1,1C219.4,120.4,218.7,120.6,218.1,120.7
	z M213.9,120.2c-1.4,0-2.1,0.8-2.1,2.3c-0.1,1.1,0.6,2,1.6,2.2c0.2,0,0.3,0,0.5,0c1.3,0,2-0.8,2-2.2S215.4,120.2,213.9,120.2
	L213.9,120.2z"/>
<path class="st1" d="M223.1,117c-0.7,0-1.3-0.6-1.3-1.3c0,0,0,0,0,0c0-0.7,0.6-1.4,1.3-1.4c0,0,0,0,0,0c0.7,0,1.3,0.6,1.3,1.3
	C224.4,116.4,223.8,117,223.1,117z M222.2,130v-10.9l1.8-0.3V130H222.2z"/>
<path class="st1" d="M229.1,124.8v0.3c-0.1,0.8,0.1,1.7,0.5,2.4c0.6,0.9,1.6,1.4,2.7,1.3c1,0,2-0.3,2.7-1l0.7,1.1
	c-1,0.9-2.3,1.4-3.7,1.4c-3,0-4.9-2.2-4.9-5.8c-0.1-1.5,0.4-3,1.3-4.1c0.8-1,2-1.5,3.3-1.5c1.1,0,2.2,0.4,3,1.2c1,1,1.2,2,1.2,4.6
	v0.2L229.1,124.8z M233.6,121.1c-0.5-0.7-1.2-1-2-1c-1.6,0-2.4,1.1-2.5,3.4h5C234.1,122.6,233.9,121.8,233.6,121.1z"/>
<path class="st1" d="M245,133.2h-1.4l5.7-19.9h1.4L245,133.2z"/>
<path class="st1" d="M268.5,128.8c-1,1-2.4,1.5-3.8,1.4c-1.6,0-3.2-0.7-4.3-1.9c-1.3-1.7-1.9-3.8-1.8-6c0-4.8,2.3-7.7,6-7.7
	c1.9-0.1,3.7,0.9,4.8,2.5c1,1.7,1.5,3.6,1.4,5.6C270.8,125.6,270.1,127.4,268.5,128.8z M268,118.2c-0.6-1.3-1.9-2.1-3.4-2.1
	c-1.3,0-2.6,0.6-3.2,1.8c-0.6,1.3-0.9,2.7-0.8,4.2c-0.1,1.8,0.3,3.6,1,5.3c0.7,1,1.9,1.6,3.2,1.6c1.1,0.1,2.1-0.4,2.8-1.3
	c0.8-1,1.1-2.2,1.1-4.6C268.8,121.3,268.6,119.7,268,118.2z"/>
<path class="st1" d="M280.4,130v-7.4c0-1.2-0.1-1.4-0.4-1.8c-0.3-0.3-0.8-0.5-1.2-0.5c-1.1,0.2-2.2,0.7-3,1.5v8.2h-1.7v-8.4
	c0-0.8-0.1-1.6-0.4-2.3l1.7-0.5c0.2,0.5,0.4,1.1,0.4,1.7c0.9-1,2.1-1.6,3.5-1.7c1.1,0,2.2,0.6,2.7,1.6c0.2,0.4,0.3,0.8,0.3,1.3v8.3
	H280.4z"/>
<path class="st1" d="M290.1,120.3h-2.3v7.1c0,1.2,0.3,1.6,1.4,1.6c0.4,0,0.7-0.1,1.1-0.2l0.2,1.1c-0.6,0.3-1.3,0.5-1.9,0.4
	c-0.5,0-1-0.1-1.4-0.3c-0.8-0.4-1-1.1-1-2.2v-7.5h-1.4V119h1.4c0-1,0.1-2.4,0.2-2.8l1.8-0.4c-0.1,1.1-0.2,2.1-0.2,3.2h2.8
	L290.1,120.3z"/>
<path class="st1" d="M303.6,130.1h-1.7l-2.2-7.7c-0.2-0.6-0.3-1.1-0.3-1.2l0,0c0,0.2-0.2,0.8-0.2,1.1l-2.2,7.8h-1.7l-3-11l1.7-0.4
	l1.8,7.2c0.2,0.9,0.4,1.7,0.4,1.8h0.1c0.1-0.5,0.2-1.1,0.4-1.6l2-7.2h1.9l1.9,7.3c0.1,0.5,0.4,1.4,0.4,1.6l0,0l0.3-1.5l1.7-7.4h1.8
	L303.6,130.1z"/>
<path class="st1" d="M310.1,117c-0.7,0-1.3-0.6-1.3-1.3c0,0,0,0,0,0c0-0.7,0.6-1.4,1.3-1.4c0,0,0,0,0,0c0.7,0,1.3,0.6,1.3,1.3
	C311.4,116.4,310.8,117,310.1,117z M309.2,130v-10.9l1.8-0.3V130H309.2z"/>
<path class="st1" d="M314.7,130v-13.5c0-0.8-0.1-1.5-0.3-2.2l1.7-0.3c0.2,0.8,0.3,1.7,0.3,2.6V130H314.7z M321.5,130l-5-6.2l4.2-4.8
	h2.2l-4.3,4.8l5.3,6.2H321.5z"/>
<path class="st1" d="M326.2,130v-13.5c0-0.8-0.1-1.5-0.3-2.2l1.7-0.3c0.2,0.8,0.3,1.7,0.3,2.6V130H326.2z M333,130l-5-6.2l4.2-4.8
	h2.1l-4.3,4.8l5.3,6.2H333z"/>
<path class="st1" d="M338.2,124.8v0.3c-0.1,0.8,0.1,1.7,0.5,2.4c0.6,0.9,1.6,1.4,2.7,1.3c1,0,2-0.3,2.7-1l0.7,1.1
	c-1,0.9-2.3,1.4-3.7,1.4c-3,0-4.9-2.2-4.9-5.8c-0.1-1.5,0.4-3,1.3-4.1c0.8-1,2-1.5,3.3-1.5c1.1,0,2.2,0.4,3,1.2c0.9,1,1.2,2,1.2,4.6
	v0.2L338.2,124.8z M342.7,121.1c-0.5-0.7-1.2-1-2-1c-1.6,0-2.4,1.1-2.5,3.4h5C343.2,122.6,343.1,121.8,342.7,121.1z"/>
<path class="st1" d="M349.9,130.2c-0.5,0-0.9-0.1-1.3-0.5c-0.4-0.4-0.6-1-0.5-1.6v-11.6c0-0.8-0.1-1.5-0.3-2.2l1.7-0.3
	c0.2,0.9,0.3,1.7,0.3,2.6v11.2c0,0.9,0.1,1.1,0.6,1.1h0.2l0.3,1.1C350.7,130.2,350.3,130.2,349.9,130.2z"/>
<path class="st1" d="M354.7,117c-0.7,0-1.3-0.6-1.3-1.3c0,0,0,0,0,0c0-0.7,0.6-1.4,1.4-1.4c0.7,0,1.3,0.6,1.3,1.3
	C356,116.4,355.4,117,354.7,117z M353.7,130v-10.9l1.8-0.3V130H353.7z"/>
<path class="st1" d="M365.6,130v-7.4c0-1.2-0.1-1.4-0.4-1.8c-0.3-0.3-0.8-0.5-1.2-0.5c-1.1,0.2-2.2,0.7-3,1.5v8.2h-1.7v-8.4
	c0-0.8-0.1-1.6-0.4-2.3l1.7-0.5c0.2,0.5,0.4,1.1,0.4,1.7c0.9-1,2.1-1.6,3.5-1.7c1.1,0,2.2,0.6,2.7,1.6c0.2,0.4,0.3,0.8,0.3,1.3v8.3
	H365.6z"/>
<path class="st1" d="M378.5,120.7c-0.3,0-0.5,0-0.8-0.1c0.4,0.5,0.7,1.2,0.7,1.9c0,1.2-0.6,2.3-1.6,3c-0.6,0.3-1.3,0.5-2,0.5
	c-1.5,0.5-2,0.9-2,1.3s0.3,0.5,0.9,0.5h1.8c0.9-0.1,1.8,0.1,2.6,0.6c0.8,0.5,1.2,1.4,1.2,2.3c0,2.4-1.7,3.4-4.4,3.4
	c-3.4,0-4.8-1.2-4.8-2.8c0-0.4,0.1-0.8,0.2-1.2l1.8-0.2c-0.2,0.3-0.3,0.6-0.3,1c0,0.5,0.2,1,0.6,1.3c0.7,0.3,1.5,0.5,2.2,0.5
	c1.7,0,2.7-0.6,2.7-1.9c0-0.5-0.2-1-0.6-1.3c-0.7-0.3-1.4-0.5-2.1-0.4H373c-1.3,0-2.1-0.6-2.1-1.6s0.5-1.4,2-1.9
	c-1.4-0.4-2.4-1.7-2.5-3.2c0-2.2,1.6-3.7,4-3.7c1.7,0,2,0.6,3.3,0.6c0.5,0,1.1-0.2,1.5-0.5l1,1C379.9,120.4,379.2,120.6,378.5,120.7
	z M374.4,120.2c-1.4,0-2.1,0.8-2.1,2.3c-0.1,1.1,0.6,2,1.6,2.2c0.2,0,0.3,0,0.5,0c1.3,0,2-0.8,2-2.2S375.9,120.2,374.4,120.2z"/>
<polygon class="st0" points="946.9,143.1 923.7,131.6 924.3,150 947,150 "/>
<polygon class="st1" points="1042.7,105.6 1043.7,116.9 1073.6,96.6 1040.6,81.1 1041.5,92.4 989.3,96.9 990.5,110.2 "/>
<polygon class="st1" points="1029.5,113.8 1020.2,114.6 1023.2,150 1032.7,150 "/>
<path class="st1" d="M892.5,105.4l2.7,1.4l-5.3,10.4l5.3,3.2l11.1-21.2l-3.9-2.3l6.8-12.5l18.8-1.6L908.5,119l2.7,30.2l-1.5,0.8
	h14.5l-0.6-18.4l23.2,11.6l0.1,6.9h13l-1.4-16.5l-25-12.9l9.7-17.1l0.9,10.5l37.2-3.2l-1.1-13.1l-11.1,1l0.2,2.3l-14.4,1.2l-2-22.5
	c0,0-18.6-10.8-18-9.5l-31.4,2.8l-15.1,26.1l5.6,3.3L892.5,105.4z"/>
<path class="st1" d="M955.5,75.2c6.7-0.6,11.5-7.5,10.9-15.5s-6.7-14-13.4-13.4s-11.5,7.5-10.9,15.5S948.8,75.8,955.5,75.2z"/>
<polygon class="st1" points="1100,42.5 1100,33.1 1013.7,40.7 1017.7,86.5 1027.1,85.7 1023.8,49.2 "/>
</svg>
