<?xml version="1.0" encoding="utf-8"?>
<!-- Generator: Adobe Illustrator 21.1.0, SVG Export Plug-In . SVG Version: 6.00 Build 0)  -->
<!DOCTYPE svg PUBLIC "-//W3C//DTD SVG 1.1//EN" "http://www.w3.org/Graphics/SVG/1.1/DTD/svg11.dtd">
<svg version="1.1" id="Laag_1" xmlns="http://www.w3.org/2000/svg" xmlns:xlink="http://www.w3.org/1999/xlink" x="0px" y="0px"
	 viewBox="0 0 183.7 112.2" style="enable-background:new 0 0 183.7 112.2;" xml:space="preserve">
<style type="text/css">
	.st0{fill:#333333;}
</style>
<g>
	<path class="st0" d="M56,33.1c5.2-0.5,8.9-5.8,8.4-11.9c-0.5-6.1-5.2-10.7-10.3-10.3c-5.2,0.4-8.9,5.8-8.4,11.9
		C46.2,29,50.8,33.6,56,33.1z"/>
	<polygon class="st0" points="183.7,96.9 109.3,103.4 105.8,63.5 112.9,62.8 115.8,95.6 175.9,90.4 168.6,7.8 108.6,13.1 
		111.1,41.2 103.9,41.8 100.8,6.5 175.2,0 	"/>
	<polygon class="st0" points="146.9,49.6 121.5,37.6 122.2,46.4 82,49.8 82.9,60 123.1,56.5 123.9,65.2 	"/>
	<path class="st0" d="M75,50.5l-8.6,0.8l0.2,1.7l-11.1,1L54,36.6c0,0-14.2-8.3-13.8-7.3L16,31.5L4.3,51.6l4.3,2.5l-1.2,2.3l2.1,1.1
		l-4.1,8l4.1,2.5l8.6-16.4l-3-1.8l5.3-9.6l14.4-1.3L19.8,66.8l2.1,23.2L0,102.4l4.2,9.8l27.9-15.3l-0.7-20.3l17.8,8.9l0.4,22.8
		l11.1-0.8L58.3,78L39,68.1L46.5,55l0.7,8.1l28.7-2.5L75,50.5z"/>
</g>
</svg>
