<?xml version="1.0" encoding="utf-8"?>
<!-- Generator: Adobe Illustrator 22.0.1, SVG Export Plug-In . SVG Version: 6.00 Build 0)  -->
<svg version="1.1" id="Laag_1" xmlns="http://www.w3.org/2000/svg" xmlns:xlink="http://www.w3.org/1999/xlink" x="0px" y="0px"
	 viewBox="0 0 112.2 112.2" enable-background="new 0 0 112.2 112.2" xml:space="preserve">
<path fill="#808080" d="M105.6,104.2L80.1,78.7c5.3-7,8.2-15.6,8.2-24.6c0-10.9-4.2-21.2-12-28.9c-15.9-15.9-41.8-15.9-57.8,0
	C2.7,41.1,2.7,67.1,18.6,83c8,8,18.4,11.9,28.9,11.9c8.7,0,17.3-2.7,24.6-8.2l25.5,25.5L105.6,104.2z M26.6,75
	C21,69.4,18,62,18,54.1c0-7.9,3.1-15.3,8.6-20.9s13-8.6,20.9-8.6c7.9,0,15.3,3.1,20.9,8.6c5.6,5.6,8.6,13,8.6,20.9
	c0,7.9-3.1,15.3-8.6,20.9c-5.6,5.6-13,8.6-20.9,8.6C39.6,83.6,32.2,80.5,26.6,75z"/>
</svg>
