<?xml version="1.0" encoding="utf-8"?>
<!-- Generator: Adobe Illustrator 22.0.1, SVG Export Plug-In . SVG Version: 6.00 Build 0)  -->
<!DOCTYPE svg PUBLIC "-//W3C//DTD SVG 1.1//EN" "http://www.w3.org/Graphics/SVG/1.1/DTD/svg11.dtd" [
	<!ENTITY st0 "fill:#FFFFFF;">
]>
<svg version="1.1" id="Layer_1" xmlns="http://www.w3.org/2000/svg" xmlns:xlink="http://www.w3.org/1999/xlink" x="0px" y="0px"
	 viewBox="0 0 362.2 71.3" style="enable-background:new 0 0 362.2 71.3;" xml:space="preserve">
<title>header</title>
<g>
	<path style="&st0;" d="M28.3,35.8c-2.4,3.4-6.1,5.6-10.1,6c-1.6,0.1-3.5,0.2-6,0.2H2V0.3h8.4c2.4,0,5.6,0.1,7.3,0.2
		c3.4,0.2,6.7,1.7,9.1,4.1c3.8,3.8,5.7,9.1,5.7,16.6C32.5,27,31.1,32,28.3,35.8z M21,10.4c-1.4-2.3-3.3-3.5-6.6-3.5h-3.9v28.3H15
		c5.5,0,8-4.3,8-13.1C23.1,17.3,22.7,13.2,21,10.4z"/>
	<path style="&st0;" d="M63,42l-3-9.9H47.8L44.9,42h-8.8L49.8,0.2h9.1L72,42H63z M55.7,16.8L54,9.4c-0.2,1-1.3,5.3-2,8
		c-0.8,3-1.3,5-2.2,7.7H58C57.7,24.3,56.3,19.6,55.7,16.8z"/>
	<path style="&st0;" d="M93.1,42.3h-7.6l-14.2-42h9.2L87.4,22c0.8,2.4,1.4,4.8,1.9,7.3c0.6-2.8,1.4-5.6,2.4-8.3l7.1-20.6h8.8
		L93.1,42.3z"/>
	<path style="&st0;" d="M137.9,42h-23.5V0.3h8.6V35h14.9V42z"/>
	<path style="&st0;" d="M183.7,40.3c-2.7,1.8-6,2.6-9.2,2.5c-4.7,0.1-9.3-1.2-13.2-3.7l2.2-3.8c3.2,2.4,7,3.6,11,3.5
		c3.1,0,4.8-0.5,6.5-1.8c1.9-1.3,3-3.6,2.9-5.9c0-3.7-2.4-6.2-7.4-7.7l-4.1-1.2c-3.7-1.1-5.7-2-7.3-3.7c-1.7-1.8-2.6-4.2-2.6-6.7
		c0-7,5.3-11.8,13.3-11.8c4.5,0,8.8,1.4,12.4,4L186,7.5c-4-2.6-6.5-3.5-10-3.5c-5.2,0-8.2,2.6-8.2,6.8c0,3.3,2,5.2,6.8,6.7l4.7,1.5
		c3.7,1.1,5.6,2.2,7.3,4.1c1.7,2,2.7,4.6,2.7,7.3C189.3,34.5,187.2,38.2,183.7,40.3z"/>
	<path style="&st0;" d="M224,5h-11.1v37h-4.7V5h-11V0.9h27.2L224,5z"/>
	<path style="&st0;" d="M256.7,39.6c-2.5,2.2-5.8,3.2-10.8,3.2c-6.4,0-10-1.9-12.2-5.9c-0.9-2-1.3-4.2-1.2-6.4V0.9h4.9v27.7
		c-0.1,2,0.2,4,0.7,5.9c0.8,1.8,3,4,8,4c3.4,0,6-0.9,7.3-2.6c1.4-1.9,1.6-3.7,1.6-6.4V0.9h4.9v29.3
		C259.8,35.1,259.1,37.5,256.7,39.6z"/>
	<path style="&st0;" d="M296.5,36.9c-3.6,4-7.2,5.2-13,5.2h-10.7V0.9h8.2c6.3,0,9.2,0.3,13.2,3.2c4.7,3.4,7,9.4,7,17.5
		C301.2,28.7,299.3,33.8,296.5,36.9z M292.3,8.7c-2.7-3.2-5.3-3.8-9.7-3.8h-4.9V38h4.9c4.3,0,8.2-0.5,10.4-4.3
		c1.9-3.5,2.9-7.5,2.8-11.5C295.9,15.9,295.1,12,292.3,8.7L292.3,8.7z"/>
	<path style="&st0;" d="M312.6,42V0.9h4.8v41.2L312.6,42L312.6,42z"/>
	<path style="&st0;" d="M356,38.9c-2.8,2.7-6.6,4.1-10.4,4c-4.5,0.1-8.8-1.8-11.7-5.2c-3.2-3.7-4.9-9.3-4.9-16.3
		c0-13.1,6.2-21.1,16.3-21.1c5.2-0.2,10.1,2.4,13,6.7c2.6,3.8,3.7,8.6,3.7,15.2C362,30,360.1,35,356,38.9z M354.5,9.8
		c-1.6-3.6-5.3-5.8-9.2-5.6c-3.6-0.1-7,1.7-8.8,4.8c-1.4,2.7-2.1,6.2-2.1,11.3c0,6.2,1,11.6,2.6,14.3c1.6,2.7,5.4,4.4,8.8,4.4
		c3,0.1,5.8-1.2,7.7-3.5c2-2.6,3-5.9,3-12.7C356.4,16.8,355.8,12.6,354.5,9.8L354.5,9.8z"/>
	<path style="&st0;" d="M10.3,67.2l-1.4-4.6H3.3l-1.5,4.6H0l5-15.1h2.4l5,15.1H10.3z M6.1,53.7l-2.4,7.4h4.7L6.1,53.7z"/>
	<path style="&st0;" d="M19.5,57.9c-0.2-0.1-0.3-0.1-0.5-0.1c-0.7,0-1.3,0.3-1.8,0.8c-0.5,0.4-0.7,1.1-0.6,1.7v6.9h-1.7v-8.4
		c0-0.8-0.1-1.6-0.4-2.3l1.7-0.5c0.3,0.6,0.4,1.2,0.3,1.8c0.7-1.1,1.8-1.7,3.1-1.8c0.2,0,0.4,0,0.6,0.1L19.5,57.9z"/>
	<path style="&st0;" d="M25.7,67.4c-1.4,0.1-2.7-0.5-3.5-1.6c-0.8-1.2-1.1-2.5-1.1-3.9c-0.2-1.7,0.5-3.4,1.7-4.7
		c0.8-0.8,1.9-1.3,3-1.3s2.2,0.4,3,1.2l-1,1.2c-0.5-0.6-1.3-0.9-2.1-0.9c-0.9,0-1.7,0.5-2.1,1.2c-0.5,1.1-0.7,2.4-0.6,3.6
		c0,2.5,1,3.8,2.7,3.8c0.9,0,1.8-0.4,2.3-1.2l0.9,1.1C28.3,66.9,27,67.5,25.7,67.4z"/>
	<path style="&st0;" d="M38.5,67.2v-7.6c0.1-0.6-0.1-1.2-0.4-1.6c-0.3-0.3-0.8-0.5-1.3-0.4c-1.3,0.1-2.4,0.8-3.2,1.8v7.8h-1.7V53.7
		c0-0.8-0.1-1.5-0.3-2.2l1.7-0.3c0.2,0.8,0.3,1.7,0.3,2.6v2.6c0,0.6,0,1.3-0.1,1.5c1-1,2.3-1.6,3.7-1.7c1.2-0.1,2.4,0.6,2.8,1.7
		c0.1,0.5,0.2,1.1,0.2,1.6v7.9h-1.7V67.2z"/>
	<path style="&st0;" d="M44.8,54.2c-0.7,0-1.3-0.6-1.3-1.3l0,0c0-0.7,0.6-1.3,1.3-1.4c0.7,0,1.3,0.6,1.3,1.3
		C46.2,53.6,45.6,54.2,44.8,54.2z M43.9,67.2V56.3l1.8-0.3v11.2C45.7,67.2,43.9,67.2,43.9,67.2z"/>
	<path style="&st0;" d="M53.7,57.5h-2.3v7.1c0,1.2,0.3,1.6,1.4,1.6c0.4,0,0.7-0.1,1.1-0.2l0.2,1.1c-0.6,0.3-1.3,0.5-1.9,0.4
		c-0.5,0-1-0.1-1.4-0.3c-0.8-0.4-1-1.1-1-2.2v-7.5h-1.5v-1.3h1.4c0-1,0.1-2.4,0.2-2.8l1.8-0.4c-0.1,1.1-0.2,2.1-0.2,3.2h2.8
		L53.7,57.5z"/>
	<path style="&st0;" d="M57.6,62v0.3c-0.1,0.8,0.1,1.7,0.5,2.4c0.6,0.9,1.6,1.4,2.7,1.3c1,0,2-0.3,2.7-1l0.7,1.1
		c-1,0.9-2.3,1.4-3.7,1.4c-3,0-4.9-2.2-4.9-5.8c-0.1-1.5,0.4-3,1.3-4.1c0.8-1,2-1.5,3.3-1.5c1.1,0,2.2,0.4,3,1.2
		c0.9,1,1.3,2,1.3,4.6v0.2L57.6,62z M62.1,58.3c-0.5-0.6-1.2-1-2-1c-1.6,0-2.4,1.1-2.5,3.4h5C62.6,59.8,62.5,59,62.1,58.3z"/>
	<path style="&st0;" d="M71.5,67.4c-1.4,0.1-2.7-0.5-3.5-1.6c-0.7-1.2-1.1-2.5-1-3.9c-0.2-1.7,0.4-3.4,1.6-4.7
		c0.8-0.8,1.9-1.3,3-1.3s2.2,0.4,3,1.2l-0.9,1.2c-0.5-0.6-1.3-0.9-2.1-0.9c-0.9,0-1.7,0.5-2.1,1.2c-0.5,1.1-0.7,2.4-0.6,3.6
		c0,2.5,0.9,3.8,2.7,3.8c0.9,0,1.8-0.5,2.4-1.2l0.9,1.1C74.1,66.9,72.8,67.5,71.5,67.4z"/>
	<path style="&st0;" d="M82.2,57.5h-2.3v7.1c0,1.2,0.3,1.6,1.4,1.6c0.4,0,0.7-0.1,1.1-0.2l0.2,1.1c-0.6,0.3-1.3,0.5-1.9,0.4
		c-0.5,0-1-0.1-1.4-0.3c-0.8-0.4-1.2-1.3-1.1-2.2v-7.5h-1.4v-1.3h1.4c0-1,0.1-2.4,0.2-2.8l1.8-0.4c-0.1,1.1-0.2,2.1-0.2,3.2h2.8
		L82.2,57.5z"/>
	<path style="&st0;" d="M93,67.6c-0.6-0.4-1-1-1.2-1.8c-0.8,1.1-2.1,1.7-3.5,1.7c-1.2,0.1-2.3-0.5-2.9-1.6c-0.2-0.5-0.3-1.1-0.3-1.6
		v-8l1.7-0.3v7.9c0,1,0.2,1.5,0.7,1.9c0.4,0.3,0.9,0.4,1.3,0.4c1.2-0.1,2.3-0.9,2.8-2v-7.8l1.7-0.3v8c0,1.4,0.2,1.9,0.8,2.4L93,67.6
		z"/>
	<path style="&st0;" d="M104.9,67.6c-0.6-0.4-1-1-1.2-1.8c-0.8,1.1-2.1,1.7-3.5,1.7c-1.2,0.1-2.3-0.5-2.9-1.6
		c-0.2-0.5-0.3-1.1-0.3-1.6v-8l1.7-0.3v7.9c0,1,0.2,1.5,0.7,1.9c0.4,0.3,0.9,0.4,1.3,0.4c1.2-0.1,2.3-0.9,2.8-2v-7.8l1.7-0.3v8
		c0,1.4,0.2,1.9,0.8,2.4L104.9,67.6z"/>
	<path style="&st0;" d="M113.7,57.9c-0.2-0.1-0.3-0.1-0.5-0.1c-0.7,0-1.3,0.3-1.8,0.8c-0.5,0.4-0.7,1.1-0.6,1.7v6.9h-1.7v-8.4
		c0-0.8-0.1-1.6-0.4-2.3l1.7-0.5c0.3,0.6,0.4,1.2,0.4,1.8c0.7-1.1,1.8-1.7,3.1-1.8c0.2,0,0.4,0,0.6,0.1L113.7,57.9z"/>
	<path style="&st0;" d="M122,70.4h-1.4l5.7-19.9h1.4L122,70.4z"/>
	<path style="&st0;" d="M143.6,66.5c-1,0.6-2.2,1-3.4,0.9c-1.7,0-3.4-0.5-4.8-1.4l0.8-1.4c1.2,0.9,2.6,1.3,4,1.3
		c0.9,0.1,1.7-0.2,2.4-0.7s1.1-1.3,1.1-2.2c0-1.3-0.9-2.3-2.7-2.8l-1.5-0.5c-1-0.2-1.9-0.7-2.7-1.3c-0.6-0.7-1-1.5-1-2.5
		c0-2.6,2-4.3,4.9-4.3c1.6,0,3.2,0.5,4.6,1.5l-0.8,1.3c-1.1-0.8-2.3-1.3-3.7-1.3c-1.9,0-3,0.9-3,2.5c0,1.2,0.7,1.9,2.5,2.5l1.7,0.6
		c1,0.2,1.9,0.8,2.7,1.5c0.6,0.7,1,1.7,1,2.7C145.6,64.4,144.9,65.7,143.6,66.5z"/>
	<path style="&st0;" d="M152.6,57.5h-2.3v7.1c0,1.2,0.3,1.6,1.4,1.6c0.4,0,0.7-0.1,1.1-0.2l0.2,1.1c-0.6,0.3-1.3,0.5-1.9,0.4
		c-0.5,0-1-0.1-1.4-0.3c-0.8-0.4-1.2-1.3-1.1-2.2v-7.5h-1.4v-1.3h1.4c0-1,0.1-2.4,0.2-2.8l1.8-0.4c-0.1,1.1-0.2,2.1-0.2,3.2h2.8
		L152.6,57.5z"/>
	<path style="&st0;" d="M160.5,57.9c-0.2-0.1-0.3-0.1-0.5-0.1c-0.7,0-1.3,0.3-1.8,0.8c-0.5,0.4-0.7,1.1-0.6,1.7v6.9h-1.7v-8.4
		c0-0.8-0.1-1.6-0.4-2.3l1.7-0.5c0.3,0.6,0.4,1.2,0.4,1.8c0.7-1.1,1.8-1.7,3.1-1.8c0.2,0,0.4,0,0.6,0.1L160.5,57.9z"/>
	<path style="&st0;" d="M170.7,67.6c-0.7-0.2-1.3-0.8-1.5-1.6c-0.8,0.9-1.9,1.5-3.2,1.5c-2.7,0-3.5-1.6-3.5-3.1
		c0-2.5,2.1-3.9,5.8-3.9c0.3,0,0.5,0,0.8,0v-0.8c0-1,0-1.4-0.4-1.7c-0.4-0.4-0.9-0.6-1.5-0.6c-1.3,0.1-2.5,0.5-3.5,1.3l-0.9-1.2
		c1.4-0.9,3-1.4,4.6-1.5c1.3-0.1,2.5,0.6,3,1.7c0.2,0.8,0.3,1.6,0.2,2.4l-0.1,3.6c0,1.8,0.1,2.2,0.9,2.7L170.7,67.6z M168.2,61.6
		c-2.8,0-3.8,0.9-3.8,2.6c0,1.3,0.6,2,1.9,2c1.1,0,2.2-0.7,2.7-1.7l0.1-2.9C168.8,61.6,168.4,61.6,168.2,61.6L168.2,61.6z"/>
	<path style="&st0;" d="M178.7,57.5h-2.3v7.1c0,1.2,0.3,1.6,1.4,1.6c0.4,0,0.7-0.1,1.1-0.2l0.2,1.1c-0.6,0.3-1.3,0.5-1.9,0.4
		c-0.5,0-1-0.1-1.4-0.3c-0.8-0.4-1.1-1.1-1.1-2.2v-7.5h-1.4v-1.3h1.4c0-1,0.1-2.4,0.2-2.8l1.8-0.4c-0.1,1.1-0.2,2.1-0.2,3.2h2.7
		L178.7,57.5z"/>
	<path style="&st0;" d="M182.6,62v0.3c-0.1,0.8,0.1,1.7,0.5,2.4c0.6,0.9,1.6,1.4,2.7,1.3c1,0,2-0.3,2.7-1l0.7,1.1
		c-1,0.9-2.3,1.4-3.7,1.4c-3,0-4.9-2.2-4.9-5.8c-0.1-1.5,0.4-3,1.3-4.1c0.8-1,2-1.5,3.3-1.5c1.1,0,2.2,0.4,3,1.2
		c0.9,1,1.3,2,1.3,4.6v0.2L182.6,62z M187.1,58.3c-0.5-0.6-1.2-1-2-1c-1.6,0-2.4,1.1-2.5,3.4h5C187.7,59.8,187.5,59,187.1,58.3z"/>
	<path style="&st0;" d="M200.1,57.9c-0.3,0-0.5,0-0.8-0.1c0.4,0.5,0.7,1.2,0.7,1.9c0,1.2-0.6,2.3-1.6,3c-0.6,0.3-1.3,0.5-2,0.5
		c-1.5,0.5-2,0.9-2,1.3c0,0.4,0.3,0.5,0.9,0.5h1.8c0.9-0.1,1.8,0.1,2.6,0.6c0.8,0.5,1.2,1.4,1.2,2.3c0,2.4-1.7,3.4-4.4,3.4
		c-3.4,0-4.8-1.2-4.8-2.8c0-0.4,0.1-0.8,0.2-1.2l1.8-0.2c-0.2,0.3-0.3,0.6-0.3,1c0,0.5,0.2,1,0.6,1.3c0.7,0.3,1.5,0.5,2.2,0.5
		c1.7,0,2.7-0.6,2.7-1.9c0-0.5-0.2-1-0.6-1.3c-0.7-0.3-1.4-0.5-2.1-0.4h-1.7c-1.3,0-2.1-0.6-2.1-1.6c0-1,0.5-1.4,2-1.9
		c-1.4-0.4-2.4-1.7-2.5-3.2c0-2.2,1.6-3.7,4-3.7c1.7,0,2,0.6,3.3,0.6c0.5,0,1.1-0.2,1.5-0.5l1,1C201.4,57.6,200.7,57.8,200.1,57.9z
		 M195.9,57.4c-1.4,0-2.1,0.8-2.1,2.3c-0.1,1.1,0.6,2,1.6,2.2c0.2,0,0.3,0,0.5,0c1.3,0,2-0.8,2-2.2S197.4,57.4,195.9,57.4
		L195.9,57.4z"/>
	<path style="&st0;" d="M205.1,54.2c-0.7,0-1.3-0.6-1.3-1.3l0,0c0-0.7,0.6-1.4,1.3-1.4l0,0c0.7,0,1.3,0.6,1.3,1.3
		C206.4,53.6,205.8,54.2,205.1,54.2z M204.2,67.2V56.3L206,56v11.2C206,67.2,204.2,67.2,204.2,67.2z"/>
	<path style="&st0;" d="M211.1,62v0.3c-0.1,0.8,0.1,1.7,0.5,2.4c0.6,0.9,1.6,1.4,2.7,1.3c1,0,2-0.3,2.7-1l0.7,1.1
		c-1,0.9-2.3,1.4-3.7,1.4c-3,0-4.9-2.2-4.9-5.8c-0.1-1.5,0.4-3,1.3-4.1c0.8-1,2-1.5,3.3-1.5c1.1,0,2.2,0.4,3,1.2c1,1,1.2,2,1.2,4.6
		v0.2L211.1,62z M215.6,58.3c-0.5-0.7-1.2-1-2-1c-1.6,0-2.4,1.1-2.5,3.4h5C216.1,59.8,215.9,59,215.6,58.3z"/>
	<path style="&st0;" d="M227,70.4h-1.4l5.7-19.9h1.4L227,70.4z"/>
	<path style="&st0;" d="M250.5,66c-1,1-2.4,1.5-3.8,1.4c-1.6,0-3.2-0.7-4.3-1.9c-1.3-1.7-1.9-3.8-1.8-6c0-4.8,2.3-7.7,6-7.7
		c1.9-0.1,3.7,0.9,4.8,2.5c1,1.7,1.5,3.6,1.4,5.6C252.8,62.8,252.1,64.6,250.5,66z M250,55.4c-0.6-1.3-1.9-2.1-3.4-2.1
		c-1.3,0-2.6,0.6-3.2,1.8c-0.6,1.3-0.9,2.7-0.8,4.2c-0.1,1.8,0.3,3.6,1,5.3c0.7,1,1.9,1.6,3.2,1.6c1.1,0.1,2.1-0.4,2.8-1.3
		c0.8-1,1.1-2.2,1.1-4.6C250.8,58.5,250.6,56.9,250,55.4z"/>
	<path style="&st0;" d="M262.4,67.2v-7.4c0-1.2-0.1-1.4-0.4-1.8c-0.3-0.3-0.8-0.5-1.2-0.5c-1.1,0.2-2.2,0.7-3,1.5v8.2h-1.7v-8.4
		c0-0.8-0.1-1.6-0.4-2.3l1.7-0.5c0.2,0.5,0.4,1.1,0.4,1.7c0.9-1,2.1-1.6,3.5-1.7c1.1,0,2.2,0.6,2.7,1.6c0.2,0.4,0.3,0.8,0.3,1.3v8.3
		C264.3,67.2,262.4,67.2,262.4,67.2z"/>
	<path style="&st0;" d="M272.1,57.5h-2.3v7.1c0,1.2,0.3,1.6,1.4,1.6c0.4,0,0.7-0.1,1.1-0.2l0.2,1.1c-0.6,0.3-1.3,0.5-1.9,0.4
		c-0.5,0-1-0.1-1.4-0.3c-0.8-0.4-1-1.1-1-2.2v-7.5h-1.4v-1.3h1.4c0-1,0.1-2.4,0.2-2.8l1.8-0.4c-0.1,1.1-0.2,2.1-0.2,3.2h2.8
		L272.1,57.5z"/>
	<path style="&st0;" d="M285.6,67.4h-1.7l-2.2-7.7c-0.2-0.6-0.3-1.1-0.3-1.2l0,0c0,0.2-0.2,0.8-0.2,1.1l-2.2,7.8h-1.7l-3-11L276,56
		l1.8,7.2c0.2,0.9,0.4,1.7,0.4,1.8h0.1c0.1-0.5,0.2-1.1,0.4-1.6l2-7.2h1.9l1.9,7.3c0.1,0.5,0.4,1.4,0.4,1.6l0,0l0.3-1.5l1.7-7.4h1.8
		L285.6,67.4z"/>
	<path style="&st0;" d="M292.1,54.2c-0.7,0-1.3-0.6-1.3-1.3l0,0c0-0.7,0.6-1.4,1.3-1.4l0,0c0.7,0,1.3,0.6,1.3,1.3
		C293.4,53.6,292.8,54.2,292.1,54.2z M291.2,67.2V56.3L293,56v11.2C293,67.2,291.2,67.2,291.2,67.2z"/>
	<path style="&st0;" d="M296.7,67.2V53.7c0-0.8-0.1-1.5-0.3-2.2l1.7-0.3c0.2,0.8,0.3,1.7,0.3,2.6v13.4H296.7z M303.5,67.2l-5-6.2
		l4.2-4.8h2.2l-4.3,4.8l5.3,6.2H303.5z"/>
	<path style="&st0;" d="M308.2,67.2V53.7c0-0.8-0.1-1.5-0.3-2.2l1.7-0.3c0.2,0.8,0.3,1.7,0.3,2.6v13.4H308.2z M315,67.2l-5-6.2
		l4.2-4.8h2.1L312,61l5.3,6.2H315z"/>
	<path style="&st0;" d="M320.2,62v0.3c-0.1,0.8,0.1,1.7,0.5,2.4c0.6,0.9,1.6,1.4,2.7,1.3c1,0,2-0.3,2.7-1l0.7,1.1
		c-1,0.9-2.3,1.4-3.7,1.4c-3,0-4.9-2.2-4.9-5.8c-0.1-1.5,0.4-3,1.3-4.1c0.8-1,2-1.5,3.3-1.5c1.1,0,2.2,0.4,3,1.2
		c0.9,1,1.2,2,1.2,4.6v0.2L320.2,62z M324.7,58.3c-0.5-0.7-1.2-1-2-1c-1.6,0-2.4,1.1-2.5,3.4h5C325.2,59.8,325.1,59,324.7,58.3z"/>
	<path style="&st0;" d="M331.9,67.4c-0.5,0-0.9-0.1-1.3-0.5c-0.4-0.4-0.6-1-0.5-1.6V53.7c0-0.8-0.1-1.5-0.3-2.2l1.7-0.3
		c0.2,0.9,0.3,1.7,0.3,2.6V65c0,0.9,0.1,1.1,0.6,1.1h0.2l0.3,1.1C332.7,67.4,332.3,67.4,331.9,67.4z"/>
	<path style="&st0;" d="M336.7,54.2c-0.7,0-1.3-0.6-1.3-1.3l0,0c0-0.7,0.6-1.4,1.4-1.4c0.7,0,1.3,0.6,1.3,1.3
		C338,53.6,337.4,54.2,336.7,54.2z M335.7,67.2V56.3l1.8-0.3v11.2C337.5,67.2,335.7,67.2,335.7,67.2z"/>
	<path style="&st0;" d="M347.6,67.2v-7.4c0-1.2-0.1-1.4-0.4-1.8c-0.3-0.3-0.8-0.5-1.2-0.5c-1.1,0.2-2.2,0.7-3,1.5v8.2h-1.7v-8.4
		c0-0.8-0.1-1.6-0.4-2.3l1.7-0.5c0.2,0.5,0.4,1.1,0.4,1.7c0.9-1,2.1-1.6,3.5-1.7c1.1,0,2.2,0.6,2.7,1.6c0.2,0.4,0.3,0.8,0.3,1.3v8.3
		C349.5,67.2,347.6,67.2,347.6,67.2z"/>
	<path style="&st0;" d="M360.5,57.9c-0.3,0-0.5,0-0.8-0.1c0.4,0.5,0.7,1.2,0.7,1.9c0,1.2-0.6,2.3-1.6,3c-0.6,0.3-1.3,0.5-2,0.5
		c-1.5,0.5-2,0.9-2,1.3c0,0.4,0.3,0.5,0.9,0.5h1.8c0.9-0.1,1.8,0.1,2.6,0.6c0.8,0.5,1.2,1.4,1.2,2.3c0,2.4-1.7,3.4-4.4,3.4
		c-3.4,0-4.8-1.2-4.8-2.8c0-0.4,0.1-0.8,0.2-1.2l1.8-0.2c-0.2,0.3-0.3,0.6-0.3,1c0,0.5,0.2,1,0.6,1.3c0.7,0.3,1.5,0.5,2.2,0.5
		c1.7,0,2.7-0.6,2.7-1.9c0-0.5-0.2-1-0.6-1.3c-0.7-0.3-1.4-0.5-2.1-0.4H355c-1.3,0-2.1-0.6-2.1-1.6c0-1,0.5-1.4,2-1.9
		c-1.4-0.4-2.4-1.7-2.5-3.2c0-2.2,1.6-3.7,4-3.7c1.7,0,2,0.6,3.3,0.6c0.5,0,1.1-0.2,1.5-0.5l1,1C361.9,57.6,361.2,57.8,360.5,57.9z
		 M356.4,57.4c-1.4,0-2.1,0.8-2.1,2.3c-0.1,1.1,0.6,2,1.6,2.2c0.2,0,0.3,0,0.5,0c1.3,0,2-0.8,2-2.2S357.9,57.4,356.4,57.4z"/>
</g>
</svg>
